<?xml version="1.0" encoding="utf-8"?>
<!-- Generator: Adobe Illustrator 16.0.0, SVG Export Plug-In . SVG Version: 6.00 Build 0)  -->
<!DOCTYPE svg PUBLIC "-//W3C//DTD SVG 1.1//EN" "http://www.w3.org/Graphics/SVG/1.1/DTD/svg11.dtd">
<svg version="1.1" id="Layer_1" xmlns="http://www.w3.org/2000/svg" xmlns:xlink="http://www.w3.org/1999/xlink" x="0px" y="0px"
	 width="493.398px" height="316.271px" viewBox="0 0 493.398 316.271" enable-background="new 0 0 493.398 316.271"
	 xml:space="preserve">
<g>
	<radialGradient id="SVGID_1_" cx="463.7949" cy="28.5093" r="274.4149" gradientUnits="userSpaceOnUse">
		<stop  offset="0" style="stop-color:#A5CD39"/>
		<stop  offset="1" style="stop-color:#03A550"/>
	</radialGradient>
	<path fill-rule="evenodd" clip-rule="evenodd" fill="url(#SVGID_1_)" d="M275.476,0.187h9.57h75.846h6.047h98.794h9.573
		c9.95,0,18.093,8.145,18.093,18.094v9.566v52.959v6.053v16.891v6.05v39.778v6.054v52.912v9.573c0,9.946-8.143,18.089-18.093,18.089
		h-9.573h-75.846h-6.05h-98.791H6.46c-3.554,0-6.458-2.906-6.458-6.453l0,0c0-3.551,2.904-6.461,6.458-6.461h232.832
		c9.947,0,18.088-8.138,18.088-18.089v-49.57h0.003v-6.048h-0.003v-16.877h0.003v-6.078h-0.003v-16.877h0.003v-6.048h-0.003V86.813
		h0.003V80.76h-0.003V18.281C257.38,8.331,265.52,0.187,275.476,0.187z"/>
	<path fill-rule="evenodd" clip-rule="evenodd" fill="#464D30" d="M54.233,316.271H40.883v-61.945h19.214l15.68,47.471
		l15.763-47.471h19.043v61.945h-12.84l1.035-48.165l-15.764,48.165H69.139l-16.28-48.594L54.233,316.271L54.233,316.271z
		 M137.875,316.271h-13.791l26.024-61.945h13.785l26.454,61.945h-14.474l-5.69-14.816H143.21L137.875,316.271L137.875,316.271z
		 M147.436,290.511h18.525l-9.389-23.692L147.436,290.511L147.436,290.511z M216.861,316.271h-13.013v-61.945h31.967
		c1.611,0,3.256,0.083,4.947,0.257c1.7,0.171,3.594,0.501,5.691,0.991c2.096,0.486,4.066,1.643,5.902,3.444
		c1.839,1.812,3.186,3.897,4.05,6.25c0.752,2.524,1.116,5.107,1.116,7.753c0,2.934-0.425,5.57-1.293,7.926
		c-0.974,2.412-2.355,4.411-4.13,5.99c-1.782,1.577-4.108,2.713-6.981,3.4l15.253,25.934h-14.565l-13.694-24.205h-15.25V316.271
		L216.861,316.271z M232.798,265.437h-15.938v15.684h15.938c2.353,0,4.321-0.146,5.905-0.428c1.576-0.293,2.971-1.034,4.175-2.241
		c1.034-1.209,1.551-2.96,1.551-5.26c0-3.33-1.021-5.455-3.057-6.373C239.332,265.898,236.468,265.437,232.798,265.437
		L232.798,265.437z M290.586,316.271h-13.004v-61.945h13.004v29.812l24.382-29.812h15.597l-24.896,30.332l25.069,31.613H314.11
		l-23.524-30.755V316.271L290.586,316.271z M391.37,254.326v10.771h-21.367c-4.652,0-8.253,1.221-10.812,3.66
		c-2.56,2.443-3.835,6.046-3.835,10.814h36.014v10.766h-36.014c0,5.172,0.952,8.809,2.847,10.9c1.893,2.093,3.654,3.335,5.292,3.707
		c1.636,0.375,3.805,0.555,6.508,0.555h21.367v10.771h-21.881c-4.139,0-7.655-0.354-10.56-1.074
		c-2.902-0.722-5.815-2.17-8.741-4.352c-3.504-2.99-5.987-6.58-7.455-10.771c-1.464-4.19-2.202-8.729-2.202-13.615l0.18-3.702
		c0-2.243,0.228-4.422,0.685-6.542c0.461-2.128,1.034-4.144,1.729-6.039c0.684-1.896,1.491-3.558,2.413-4.992
		c0.913-1.44,2.262-3.043,4.044-4.832c1.781-1.777,3.938-3.086,6.463-3.916c2.526-0.835,4.898-1.389,7.107-1.682
		c2.21-0.288,4.435-0.428,6.678-0.428H391.37L391.37,254.326z M438.908,316.271H425.38v-51.003h-19.814v-10.776h53.331v10.776
		h-19.988V316.271z"/>
	<g>
		<path fill-rule="evenodd" clip-rule="evenodd" fill="#464D30" d="M54.19,40.309v21.646H41.023V0h30.919
			c5.623,0,9.667,0.387,12.12,1.176c4.054,1.363,7.265,4.201,9.617,8.491c1.749,3.173,2.633,6.68,2.633,10.491
			c0,3.141-0.57,6.131-1.715,8.938c-1.168,2.818-2.763,5.125-4.822,6.954c-1.811,1.597-3.764,2.715-5.852,3.333
			c-2.093,0.62-4.932,0.927-8.543,0.927H54.19L54.19,40.309z M54.19,29.279h17.972c3.203,0,5.469-0.511,6.767-1.55
			c1.936-1.53,2.899-4.213,2.899-8.022c0-4.183-1.471-6.867-4.405-8.04c-1.051-0.42-2.726-0.633-4.985-0.633H54.19V29.279
			L54.19,29.279z M151.807,50.922v11.034h-21.61c-4.108,0-7.254-0.221-9.436-0.636c-7.595-1.491-13.001-5.732-16.204-12.754
			c-2.123-4.691-3.173-10.502-3.173-17.425c0-8.32,1.622-15.105,4.858-20.347c2.326-3.745,5.453-6.486,9.377-8.208
			C119.519,0.87,124.597,0,130.828,0h20.979v11.034h-19.479c-5.898,0-10.223,1.58-12.983,4.721c-2.272,2.603-3.4,7.313-3.4,14.16
			c0,9.125,1.762,15.138,5.312,18.017c2.48,2,6.333,2.99,11.569,2.99H151.807L151.807,50.922z M161.16,61.956V0h35.043
			c5.485,0,9.47,0.621,11.995,1.857c2.894,1.491,5.093,3.889,6.566,7.221c1.065,2.309,1.592,4.694,1.592,7.174
			c0,3.207-0.851,6.213-2.572,8.986c-1.702,2.788-3.857,4.706-6.464,5.761c6.004,2.76,8.994,7.625,8.994,14.578
			c0,4.044-0.961,7.437-2.864,10.163c-1.631,2.356-3.75,3.98-6.369,4.88c-2.62,0.883-6.507,1.335-11.652,1.335H161.16L161.16,61.956
			z M174.33,25.472h17.972c1.869,0,3.25-0.095,4.121-0.295c0.848-0.2,1.691-0.606,2.465-1.213c1.936-1.47,2.907-3.514,2.907-6.114
			c0-2.529-0.913-4.37-2.719-5.549c-1.307-0.85-3.473-1.266-6.497-1.266H174.33V25.472L174.33,25.472z M174.33,50.922h17.972
			c1.869,0,3.25-0.094,4.134-0.295c0.868-0.199,1.686-0.601,2.452-1.208c1.936-1.471,2.894-3.515,2.894-6.118
			c0-2.509-0.918-4.353-2.726-5.531c-1.301-0.851-3.453-1.27-6.478-1.27H174.33V50.922z"/>
		<path fill-rule="evenodd" clip-rule="evenodd" fill="#464D30" d="M6.37,146.242h29.542c0.714,0,1.411,0.122,2.063,0.345
			c0.66,0.229,1.288,0.573,1.832,0.995c0.491,0.375,0.918,0.827,1.282,1.338c0.153,0.212,0.296,0.433,0.417,0.666H257.38v6.048
			H41.503c-0.127,0.231-0.267,0.458-0.42,0.664c-0.36,0.508-0.787,0.956-1.278,1.338l-0.003,0.001
			c-0.551,0.426-1.171,0.77-1.829,0.999c-0.651,0.218-1.349,0.345-2.063,0.345H6.37c-0.857,0-1.678-0.175-2.425-0.489
			c-0.784-0.326-1.488-0.805-2.072-1.385c-0.581-0.582-1.061-1.288-1.378-2.069C0.177,154.286,0,153.464,0,152.61
			c0-0.858,0.177-1.675,0.494-2.425c0.237-0.593,0.574-1.133,0.978-1.621v-0.048l0.401-0.404c0.584-0.583,1.288-1.058,2.072-1.381
			C4.691,146.419,5.513,146.242,6.37,146.242z"/>
		<path fill-rule="evenodd" clip-rule="evenodd" fill="#464D30" d="M6.37,123.315h29.542c0.714,0,1.411,0.123,2.063,0.344
			c0.66,0.23,1.288,0.57,1.832,0.999c0.491,0.371,0.918,0.825,1.282,1.34c0.153,0.209,0.29,0.431,0.417,0.661H257.38v6.05H41.503
			c-0.127,0.23-0.267,0.454-0.42,0.664c-0.36,0.506-0.787,0.955-1.278,1.335l-0.003,0.006c-0.551,0.424-1.171,0.767-1.829,0.993
			c-0.651,0.222-1.349,0.347-2.063,0.347H6.37c-0.857,0-1.678-0.174-2.425-0.492c-0.784-0.321-1.488-0.799-2.072-1.381
			c-0.581-0.582-1.061-1.287-1.378-2.066C0.177,131.358,0,130.537,0,129.683c0-0.855,0.177-1.675,0.494-2.428
			c0.237-0.59,0.574-1.133,0.978-1.617v-0.05l0.401-0.4c0.584-0.584,1.288-1.063,2.072-1.384
			C4.691,123.488,5.513,123.315,6.37,123.315z"/>
		<path fill-rule="evenodd" clip-rule="evenodd" fill="#464D30" d="M6.37,100.361h29.542c0.714,0,1.411,0.12,2.063,0.347
			c0.66,0.226,1.288,0.569,1.832,0.994c0.491,0.376,0.918,0.83,1.282,1.34c0.153,0.208,0.296,0.434,0.417,0.663H257.38v6.048H41.503
			c-0.127,0.23-0.267,0.454-0.42,0.669c-0.36,0.503-0.787,0.954-1.278,1.33l-0.003,0.006c-0.551,0.427-1.171,0.768-1.829,0.996
			c-0.651,0.221-1.349,0.341-2.063,0.341H6.37c-0.857,0-1.678-0.175-2.425-0.483c-0.784-0.327-1.488-0.802-2.072-1.386
			c-0.581-0.581-1.061-1.287-1.378-2.066C0.177,108.406,0,107.585,0,106.728c0-0.853,0.177-1.675,0.494-2.428
			c0.237-0.589,0.574-1.13,0.978-1.617v-0.047l0.401-0.406c0.584-0.582,1.288-1.057,2.072-1.381
			C4.691,100.538,5.513,100.361,6.37,100.361z"/>
		<path fill-rule="evenodd" clip-rule="evenodd" fill="#464D30" d="M6.37,77.418h29.542c0.714,0,1.411,0.12,2.063,0.34
			c0.66,0.233,1.288,0.575,1.832,1c0.491,0.375,0.918,0.827,1.282,1.341c0.153,0.211,0.296,0.432,0.417,0.661H257.38v6.053H41.503
			c-0.127,0.229-0.267,0.452-0.42,0.664c-0.36,0.504-0.787,0.956-1.278,1.333l-0.003,0.005c-0.551,0.425-1.171,0.766-1.829,0.994
			c-0.651,0.222-1.349,0.344-2.063,0.344H6.37c-0.857,0-1.678-0.175-2.425-0.491c-0.784-0.318-1.488-0.795-2.072-1.381
			c-0.581-0.581-1.061-1.286-1.378-2.069C0.177,85.46,0,84.637,0,83.785s0.177-1.675,0.494-2.426
			c0.237-0.593,0.574-1.132,0.978-1.622V79.69l0.401-0.402c0.584-0.585,1.288-1.059,2.072-1.385
			C4.691,77.591,5.513,77.418,6.37,77.418z"/>
		<path fill-rule="evenodd" clip-rule="evenodd" fill="#464D30" d="M54.674,197.125h-6.35v9.684c0,1.385-0.327,2.429-0.981,3.15
			c-0.653,0.714-1.481,1.074-2.476,1.074c-1.035,0-1.878-0.348-2.517-1.055c-0.64-0.714-0.957-1.762-0.957-3.116v-26.381
			c0-1.522,0.351-2.613,1.055-3.264c0.697-0.658,1.802-0.98,3.336-0.98h8.89c2.626,0,4.641,0.199,6.06,0.606
			c1.401,0.388,2.613,1.034,3.634,1.933c1.021,0.907,1.795,2.012,2.315,3.313c0.538,1.308,0.798,2.782,0.798,4.414
			c0,3.487-1.078,6.123-3.22,7.925C62.112,196.218,58.922,197.125,54.674,197.125L54.674,197.125z M52.992,181.436h-4.668V191.9
			h4.668c1.632,0,2.997-0.17,4.091-0.514c1.098-0.344,1.932-0.904,2.513-1.679c0.574-0.784,0.858-1.806,0.858-3.06
			c0-1.512-0.444-2.743-1.329-3.697C58.128,181.943,56.085,181.436,52.992,181.436L52.992,181.436z M88.173,175.653
			c3.554,0,6.597,0.721,9.146,2.159c2.54,1.441,4.465,3.483,5.779,6.134c1.298,2.655,1.956,5.769,1.956,9.355
			c0,2.646-0.363,5.046-1.078,7.208c-0.714,2.162-1.782,4.037-3.217,5.626c-1.435,1.581-3.193,2.796-5.276,3.637
			c-2.089,0.835-4.474,1.262-7.167,1.262c-2.68,0-5.076-0.431-7.194-1.302c-2.112-0.857-3.884-2.075-5.299-3.65
			c-1.418-1.568-2.486-3.46-3.207-5.666c-0.721-2.212-1.088-4.601-1.088-7.164c0-2.626,0.38-5.042,1.135-7.231
			c0.754-2.202,1.849-4.063,3.28-5.605c1.436-1.542,3.173-2.723,5.229-3.53C83.228,176.064,85.563,175.653,88.173,175.653
			L88.173,175.653z M98.026,193.251c0-2.51-0.411-4.675-1.211-6.517c-0.811-1.835-1.969-3.227-3.477-4.168
			c-1.495-0.938-3.213-1.412-5.165-1.412c-1.385,0-2.663,0.268-3.841,0.788c-1.171,0.523-2.182,1.278-3.033,2.275
			c-0.848,0.995-1.515,2.275-2.009,3.817c-0.49,1.549-0.734,3.29-0.734,5.216c0,1.945,0.244,3.701,0.734,5.275
			c0.494,1.568,1.188,2.87,2.079,3.908c0.894,1.034,1.919,1.812,3.08,2.318c1.155,0.521,2.433,0.778,3.818,0.778
			c1.778,0,3.403-0.447,4.891-1.339c1.492-0.878,2.666-2.249,3.544-4.107C97.589,198.244,98.026,195.96,98.026,193.251
			L98.026,193.251z M135.633,205.058l-5.527-20.513l-5.603,20.513c-0.437,1.551-0.777,2.669-1.037,3.346
			c-0.257,0.675-0.704,1.292-1.341,1.822c-0.642,0.533-1.488,0.808-2.54,0.808c-0.865,0-1.569-0.156-2.123-0.48
			c-0.551-0.32-0.991-0.774-1.338-1.355c-0.343-0.58-0.616-1.274-0.833-2.081c-0.225-0.791-0.415-1.542-0.591-2.217l-5.692-23.037
			c-0.348-1.341-0.514-2.362-0.514-3.063c0-0.881,0.313-1.632,0.935-2.239c0.62-0.604,1.395-0.907,2.309-0.907
			c1.261,0,2.109,0.411,2.549,1.211c0.428,0.815,0.815,1.982,1.142,3.531l4.481,19.968l5.019-18.688
			c0.37-1.435,0.704-2.521,0.994-3.263c0.304-0.751,0.784-1.397,1.451-1.938c0.674-0.551,1.576-0.821,2.733-0.821
			c1.165,0,2.069,0.29,2.713,0.857c0.651,0.562,1.098,1.182,1.344,1.855c0.254,0.668,0.584,1.763,1.012,3.31l5.051,18.688
			l4.489-19.968c0.212-1.042,0.423-1.862,0.621-2.452c0.196-0.592,0.522-1.126,0.997-1.586c0.481-0.47,1.165-0.704,2.069-0.704
			c0.902,0,1.668,0.304,2.292,0.897c0.634,0.602,0.952,1.349,0.952,2.249c0,0.647-0.164,1.655-0.508,3.063l-5.699,23.037
			c-0.383,1.553-0.715,2.69-0.972,3.417c-0.257,0.722-0.69,1.352-1.304,1.896c-0.613,0.547-1.481,0.821-2.609,0.821
			c-1.047,0-1.901-0.268-2.539-0.801c-0.634-0.524-1.082-1.118-1.33-1.775C136.439,207.79,136.089,206.659,135.633,205.058
			L135.633,205.058z M178.635,181.583h-15.609v8.402H177.4c1.061,0,1.851,0.24,2.369,0.711c0.52,0.478,0.777,1.098,0.777,1.879
			c0,0.78-0.25,1.411-0.761,1.908c-0.517,0.48-1.317,0.728-2.385,0.728h-14.375v9.733h16.147c1.09,0,1.912,0.257,2.465,0.758
			c0.554,0.514,0.82,1.174,0.82,2.015c0,0.811-0.266,1.469-0.82,1.979c-0.554,0.497-1.375,0.751-2.465,0.751h-18.831
			c-1.51,0-2.602-0.334-3.26-0.998c-0.659-0.671-0.991-1.756-0.991-3.244v-25.723c0-0.995,0.153-1.806,0.447-2.437
			c0.297-0.627,0.76-1.091,1.389-1.378c0.63-0.287,1.435-0.43,2.415-0.43h18.293c1.111,0,1.928,0.243,2.465,0.733
			c0.538,0.494,0.808,1.131,0.808,1.926c0,0.813-0.271,1.458-0.808,1.951C180.563,181.335,179.746,181.583,178.635,181.583
			L178.635,181.583z M197.134,195.815h-2.43v10.994c0,1.441-0.319,2.509-0.954,3.197c-0.642,0.68-1.472,1.027-2.505,1.027
			c-1.095,0-1.957-0.36-2.564-1.074c-0.6-0.722-0.907-1.766-0.907-3.15v-26.327c0-1.492,0.337-2.576,1.001-3.243
			c0.671-0.668,1.758-1.001,3.247-1.001h11.27c1.55,0,2.886,0.065,3.994,0.199c1.104,0.123,2.102,0.394,2.983,0.802
			c1.075,0.453,2.032,1.101,2.856,1.935c0.821,0.848,1.448,1.818,1.869,2.931c0.428,1.113,0.645,2.288,0.645,3.543
			c0,2.546-0.714,4.585-2.152,6.109c-1.448,1.528-3.627,2.606-6.547,3.24c1.225,0.654,2.403,1.625,3.523,2.899
			c1.116,1.271,2.123,2.626,2.995,4.067c0.88,1.445,1.564,2.744,2.059,3.901c0.487,1.158,0.733,1.959,0.733,2.386
			c0,0.453-0.147,0.901-0.434,1.352c-0.287,0.438-0.677,0.788-1.175,1.048c-0.503,0.253-1.077,0.384-1.729,0.384
			c-0.774,0-1.43-0.188-1.962-0.551c-0.526-0.37-0.98-0.831-1.361-1.392c-0.38-0.554-0.901-1.385-1.555-2.476l-2.779-4.618
			c-0.998-1.695-1.886-2.989-2.67-3.874c-0.788-0.878-1.585-1.488-2.399-1.813C199.383,195.985,198.361,195.815,197.134,195.815
			L197.134,195.815z M201.102,181.436h-6.397v9.409h6.207c1.662,0,3.063-0.14,4.201-0.427s2.005-0.784,2.599-1.481
			c0.597-0.688,0.908-1.635,0.908-2.856c0-0.944-0.244-1.781-0.726-2.51c-0.481-0.727-1.151-1.261-2.016-1.621
			C205.076,181.606,203.481,181.436,201.102,181.436z"/>
	</g>
	<path fill-rule="evenodd" clip-rule="evenodd" fill="#FFFFFF" d="M360.892,0.187h6.047v63.408h16.898V15.511
		c0-1.669,1.352-3.025,3.02-3.025c1.671,0,3.03,1.355,3.03,3.025v48.084h16.881V49.511c-2.059-1.088-3.457-3.25-3.457-5.741
		c0-3.586,2.902-6.492,6.493-6.492c3.584,0,6.487,2.906,6.487,6.492c0,2.491-1.405,4.653-3.458,5.741v14.084h2.457
		c4.037,0,7.71,1.657,10.37,4.318l0.011,0.012c2.669,2.66,4.321,6.335,4.321,10.375v2.507h63.406v6.053h-63.406v16.891h63.406v6.05
		h-63.406v16.891h14.809c0.834,0,1.592,0.336,2.136,0.888l0.053,0.048l21.319,21.951h25.09v6.054h-24.902
		c-0.925,0-2.924-0.226-4.115-1.424l-20.836-21.466h-13.553v16.89h14.809l0,0c0.778,0,1.544,0.298,2.136,0.888l29.48,30.118
		l0.05,0.05c0.547,0.551,0.889,1.302,0.889,2.136v28.577c2.062,1.088,3.47,3.25,3.47,5.743c0,3.583-2.907,6.489-6.491,6.489
		c-3.582,0-6.489-2.906-6.489-6.489c0-2.493,1.405-4.655,3.461-5.743v-27.319l-27.761-28.398h-13.553v1.782
		c0,4.036-1.652,8.344-4.321,11.006l-0.011,0.017c-2.66,2.656-6.333,4.312-10.37,4.312h-2.47v29.814
		c0,1.621-1.348,2.933-3.017,2.933c-1.675,0-3.029-1.312-3.029-2.933V172.8h-16.888v63.406h-6.05V172.8h-16.898v48.381
		c0,1.658-1.347,2.996-3.022,2.996c-1.668,0-3.024-1.338-3.024-2.996V172.8h-16.907v14.075c2.069,1.087,3.48,3.256,3.48,5.752
		c0,3.584-2.905,6.493-6.486,6.493c-3.59,0-6.494-2.909-6.494-6.493c0-2.496,1.412-4.665,3.48-5.752V172.8h-2.479
		c-4.037,0-7.707-1.655-10.373-4.312l-0.011-0.017c-2.663-2.662-4.314-6.34-4.314-10.371v-2.468H257.38v-6.048h63.407v-16.877
		H257.38v-6.078h63.407v-16.877c-21.137,0-42.268,0-63.407,0v-6.048c21.14,0,42.271,0,63.407,0V86.813c-21.137,0-42.268,0-63.407,0
		V80.76c13.772,0,27.533,0,41.298,0l-24.323-24.317l-0.049-0.052c-0.544-0.55-0.886-1.302-0.886-2.139V24.995
		c-2.064-1.085-3.47-3.251-3.47-5.742c0-3.582,2.91-6.492,6.497-6.492c3.584,0,6.486,2.91,6.486,6.492
		c0,2.491-1.4,4.656-3.459,5.742v28.001l27.759,27.764h13.554v-2.461c0-4.04,1.654-7.715,4.314-10.375l0.011-0.012
		c2.666-2.661,6.336-4.318,10.373-4.318h2.466V34.304c0-1.669,1.356-3.022,3.027-3.022c1.668,0,3.02,1.353,3.02,3.022v29.291h16.894
		V0.187L360.892,0.187z M305.438,176.217c-7.538,0-13.654,6.112-13.654,13.653c0,7.538,6.116,13.655,13.654,13.655
		c7.541,0,13.654-6.117,13.654-13.655C319.092,182.33,312.979,176.217,305.438,176.217L305.438,176.217z M442.198,181.129
		c-2.517-2.517-6.634-2.517-9.149,0l0,0c-2.514,2.519-2.514,6.633,0,9.156l12.201,12.192c2.514,2.516,6.631,2.516,9.144,0l0,0
		c2.52-2.513,2.52-6.634,0-9.146L442.198,181.129L442.198,181.129z M471.785,48.464c-3.132,0-5.969,1.274-8.027,3.332l-0.008,0.012
		c-2.059,2.052-3.33,4.895-3.33,8.021c0,3.132,1.266,5.968,3.33,8.025l0.008,0.012c2.059,2.052,4.896,3.327,8.027,3.327
		c3.127,0,5.964-1.275,8.025-3.327l0.006-0.012c2.063-2.057,3.332-4.894,3.332-8.025c0-3.126-1.269-5.969-3.332-8.021l-0.006-0.012
		C477.749,49.739,474.912,48.464,471.785,48.464L471.785,48.464z M276.447,210.653c-3.587,0-6.497,2.907-6.497,6.491
		c0,3.583,2.91,6.489,6.497,6.489c3.584,0,6.486-2.906,6.486-6.489C282.934,213.56,280.031,210.653,276.447,210.653L276.447,210.653
		z M474.334,12.762c-3.582,0-6.489,2.91-6.489,6.492c0,3.585,2.907,6.491,6.489,6.491c3.584,0,6.491-2.905,6.491-6.491
		C480.825,15.671,477.918,12.762,474.334,12.762L474.334,12.762z M415.29,69.646h-79.805c-2.375,0-4.545,0.973-6.109,2.538
		c-1.565,1.567-2.539,3.734-2.539,6.115v79.802c0,2.377,0.974,4.542,2.539,6.11c1.564,1.567,3.734,2.535,6.109,2.535h79.805
		c2.383,0,4.545-0.968,6.112-2.535c1.565-1.568,2.534-3.732,2.534-6.11V78.299c0-2.381-0.969-4.548-2.534-6.115
		C419.835,70.62,417.673,69.646,415.29,69.646z"/>
</g>
</svg>
