<?xml version="1.0" encoding="UTF-8"?>
<svg id="Layer_2" data-name="Layer 2" xmlns="http://www.w3.org/2000/svg" viewBox="0 0 1037.86 774.94">
  <defs>
    <style>
      .cls-1 {
        fill: #fff;
      }

      .cls-2 {
        opacity: .5;
      }

      .cls-3 {
        opacity: .35;
      }

      .cls-4 {
        fill: #969696;
      }

      .cls-5 {
        fill: #ffc107;
      }

      .cls-6 {
        fill: #3f51b5;
      }
    </style>
  </defs>
  <g id="Layer_1-2" data-name="Layer 1">
    <g>
      <g>
        <g>
          <path class="cls-6" d="m23.93,576.06c15.96-16.02,35.26-24.03,57.92-24.03s42,8.01,58.03,24.03c16.02,16.02,24.03,35.37,24.03,58.03s-8.01,41.97-24.03,57.92c-16.02,15.96-35.37,23.93-58.03,23.93s-41.97-7.98-57.92-23.93c-15.96-15.96-23.93-35.26-23.93-57.92s7.98-42,23.93-58.03Zm95.74,20.21c-10.46-10.46-23.06-15.69-37.81-15.69s-27.35,5.23-37.81,15.69c-10.46,10.46-15.69,23.06-15.69,37.81s5.23,27.32,15.69,37.71c10.46,10.39,23.06,15.59,37.81,15.59s27.35-5.19,37.81-15.59c10.46-10.39,15.69-22.96,15.69-37.71s-5.23-27.35-15.69-37.81Z"/>
          <path class="cls-6" d="m292.64,644.54v71.4h-28.56v-71.4c0-7.91-2.78-14.65-8.35-20.21-5.57-5.56-12.3-8.35-20.21-8.35s-14.45,2.78-20.01,8.35c-5.57,5.57-8.35,12.3-8.35,20.21v71.4h-28.56v-71.4c0-15.69,5.56-29.09,16.69-40.23,11.13-11.13,24.54-16.69,40.23-16.69s29.3,5.57,40.43,16.69c11.13,11.13,16.69,24.54,16.69,40.23Z"/>
          <path class="cls-6" d="m324.72,606.43c12.54-12.54,27.65-18.81,45.35-18.81s32.82,6.27,45.35,18.81c12.54,12.54,18.81,27.65,18.81,45.35,0,2.95-.2,5.83-.6,8.65h-98.15c1.88,7.78,6.03,14.21,12.47,19.31,6.44,5.1,13.81,7.64,22.12,7.64s16.22-2.82,22.93-8.45h35c-5.23,11.13-13.04,20.08-23.43,26.85-10.39,6.77-21.89,10.16-34.49,10.16-17.7,0-32.82-6.27-45.35-18.81-12.54-12.54-18.81-27.65-18.81-45.35s6.27-32.82,18.81-45.35Zm11.97,32.68h66.57c-2.55-6.84-6.84-12.4-12.87-16.69-6.03-4.29-12.81-6.44-20.31-6.44s-14.31,2.15-20.41,6.44c-6.1,4.29-10.43,9.86-12.97,16.69Z"/>
          <path class="cls-6" d="m582.06,715.94c-17.7,0-32.82-6.27-45.35-18.81-12.54-12.54-18.81-27.65-18.81-45.35s6.27-32.82,18.81-45.35c12.54-12.54,27.66-18.81,45.35-18.81,12.74,0,24.37,3.45,34.9,10.36,10.52,6.91,18.33,15.99,23.43,27.25h-34.59c-6.84-6.17-14.75-9.25-23.73-9.25-9.79,0-18.17,3.49-25.14,10.46-6.97,6.97-10.46,15.42-10.46,25.34s3.48,18.17,10.46,25.14c6.97,6.97,15.35,10.46,25.14,10.46,10.73,0,19.71-4.09,26.95-12.27h32.78c-4.83,12.2-12.64,22.06-23.43,29.57-10.79,7.51-22.9,11.26-36.3,11.26Z"/>
          <path class="cls-6" d="m653.46,651.79v-99.76h28.36v99.76c0,9.79,3.49,18.17,10.46,25.14,6.97,6.97,15.35,10.46,25.14,10.46v28.56c-17.7,0-32.78-6.27-45.25-18.81-12.47-12.54-18.7-27.65-18.7-45.35Z"/>
          <path class="cls-6" d="m736.12,556.25c2.82-2.82,6.17-4.22,10.06-4.22s7.24,1.41,10.06,4.22c2.82,2.82,4.22,6.17,4.22,10.06s-1.41,7.24-4.22,10.06-6.17,4.22-10.06,4.22-7.24-1.41-10.06-4.22c-2.82-2.82-4.22-6.17-4.22-10.06s1.41-7.24,4.22-10.06Zm24.34,31.38v128.32h-28.56v-128.32h28.56Z"/>
          <path class="cls-6" d="m839.3,715.94c-17.7,0-32.82-6.27-45.35-18.81-12.54-12.54-18.81-27.65-18.81-45.35s6.27-32.82,18.81-45.35c12.54-12.54,27.66-18.81,45.35-18.81,12.74,0,24.37,3.45,34.9,10.36,10.52,6.91,18.33,15.99,23.43,27.25h-34.59c-6.84-6.17-14.75-9.25-23.73-9.25-9.79,0-18.17,3.49-25.14,10.46-6.97,6.97-10.46,15.42-10.46,25.34s3.48,18.17,10.46,25.14c6.97,6.97,15.35,10.46,25.14,10.46,10.73,0,19.71-4.09,26.95-12.27h32.78c-4.83,12.2-12.64,22.06-23.43,29.57-10.79,7.51-22.9,11.26-36.3,11.26Z"/>
          <path class="cls-6" d="m1018.31,587.62h-35.2l-29.09,39.81,21.36,19.07,42.94-58.88Zm-105.8-35.6l.13,38.49,28.43,25.37v-63.86h-28.56Z"/>
        </g>
        <polygon class="cls-5" points="912.64 607.11 912.51 774.94 959.02 714.27 1037.86 718.86 912.64 607.11"/>
      </g>
    </g>
  </g>
</svg>
