<svg width="6537" height="6335" viewBox="0 0 6537 6335" fill="none" xmlns="http://www.w3.org/2000/svg">
<path d="M4.9738 3.79093C2181.21 6.929 4357.45 0.947063 6533.68 3.79093C6531.46 2112.18 6535.81 4220.57 6533.68 6328.95C4357.45 6333.01 2181.21 6333.01 4.9738 6328.95C2.34207 4220.57 2.34207 2112.18 4.9738 3.79093Z" stroke="#4A3AFF" stroke-opacity="0.5" stroke-width="5" stroke-miterlimit="10"/>
<path d="M4.97656 6027.9C614.93 6031.53 1239.86 5891.89 1846.17 6000.05C2352.28 6090.37 2795.42 6140.88 3308.91 6064.48C3545.56 6029.28 3768.55 6021.24 4007.33 6017.51C4251.27 6013.69 4483.67 5957 4723.36 5920.62C5343.74 5826.48 5919.08 6036.04 6533.79 6028.49" stroke="#4A3AFF" stroke-opacity="0.5" stroke-width="5" stroke-miterlimit="10"/>
<path d="M4.97656 5726.54C657.139 5698.69 1416.49 5351.05 2034.44 5658.68C2275.75 5778.71 2513.42 5963.66 2791.07 5997.19C3017.39 6024.65 3201.31 5942.08 3395.15 5843.82C3604.78 5737.62 3765.01 5716.34 3997 5680.84C4232.85 5644.85 4404.42 5504.32 4611.11 5401.35C5250.21 5082.55 5896.61 5666.13 6533.69 5726.54" stroke="#4A3AFF" stroke-opacity="0.5" stroke-width="5" stroke-miterlimit="10"/>
<path d="M4.97656 5425.19C448.929 5385.97 872.738 5251.33 1306.26 5158.26C1693.33 5075.2 1925.43 5060.79 2230.91 5316.24C2451.17 5500.41 2678.71 5812.45 2978.32 5884.33C3211.13 5940.03 3352.84 5780.38 3485.13 5626.72C3537.06 5566.51 3584.94 5499.23 3650.02 5450.2C3761.36 5367.63 3861.17 5381.56 3985.57 5342.33C4226.57 5264.76 4328.7 5040.78 4493.9 4873.48C4746.14 4618.52 4994.73 4688.63 5302.54 4841.61C5709.86 5044.21 6077.29 5334.58 6533.28 5425.19" stroke="#4A3AFF" stroke-opacity="0.5" stroke-width="5" stroke-miterlimit="10"/>
<path d="M4.97656 5124.04C483.749 5078.53 935.191 4907.31 1398.78 4791.79C1814.9 4688.24 2044.36 4669.41 2341.95 4984.59C2546.72 5201.51 2765.56 5608.08 3083.59 5694.58C3337.76 5763.22 3444.14 5553.85 3535.84 5372.73C3573.2 5298.98 3603.46 5212.98 3661.86 5150.91C3765.11 5041.07 3854.18 5073.24 3982.02 5024.5C4232.95 4928.59 4294.09 4640.09 4424.86 4438.57C4637.43 4111.13 4923.78 4220.76 5227.44 4397.67C5654.29 4646.36 6036.7 5017.93 6533.18 5123.94" stroke="#4A3AFF" stroke-opacity="0.5" stroke-width="5" stroke-miterlimit="10"/>
<path d="M4.97656 4823C484.255 4780.54 934.584 4602.95 1397.57 4485.56C1576.32 4440.26 1816.72 4358.08 2002.76 4416.92C2137.79 4459.87 2246.6 4581.67 2334.97 4681.2C2533.56 4904.79 2739.85 5327.55 3061.63 5414.63C3345.04 5491.31 3426.02 5245.56 3500.72 5042.96C3532.3 4957.35 3553.86 4852.91 3612.97 4778.88C3709.24 4658.55 3793.55 4687.09 3927.77 4642.27C4165.03 4562.94 4310.58 4347.1 4491.47 4192.94C4567.08 4128.51 4657.37 4051.24 4756.16 4021.52C4949.59 3963.27 5150.21 4084.58 5312.87 4175.09C5716.64 4400.15 6069.79 4721.21 6533.48 4822.32" stroke="#4A3AFF" stroke-opacity="0.5" stroke-width="5" stroke-miterlimit="10"/>
<path d="M4.97656 4521.75C479.497 4478.7 923.652 4298.85 1381.57 4179.8C1556.28 4134.3 1798.6 4048.69 1980.39 4111.65C2113.5 4157.84 2216.44 4286.99 2298.53 4389.66C2479.21 4615.21 2671.32 5070.62 2987.74 5159.37C3304.15 5248.12 3349.5 4851.45 3387.66 4649.43C3440.19 4371.13 3464.99 4157.54 3787.68 4121.85C4080.61 4089.39 4375.97 4067.81 4669.51 4039.08C4983.3 4008.38 5258.72 3975.24 5555.9 4109.2C5884.97 4257.86 6165.35 4470.66 6533.69 4521.65" stroke="#4A3AFF" stroke-opacity="0.5" stroke-width="5" stroke-miterlimit="10"/>
<path d="M4.97656 4220.59C473.93 4176.46 911.101 3994.26 1362.24 3873.34C1532.09 3827.84 1776.53 3738.11 1953.06 3805.97C2083.84 3856.28 2179.8 3994.06 2254.8 4100.17C2401.27 4306.79 2601.99 4847.61 2901.5 4910.96C3248.38 4984.41 3237.45 4445.45 3255.77 4241.57C3277.53 3998.86 3261.94 3520.51 3627.45 3570.52C4050.35 3628.47 4462.42 3789.69 4870.64 3903.94C5041.7 3951.89 5218.53 4003.57 5394.65 4031.42C5541.83 4054.76 5687.08 4044.95 5833.24 4077.12C6075.06 4130.37 6280.23 4220.1 6533.99 4220.78" stroke="#4A3AFF" stroke-opacity="0.5" stroke-width="5" stroke-miterlimit="10"/>
<path d="M4.97656 3919.31C470.59 3874.98 902.295 3690.72 1349.08 3568.53C1516.09 3522.83 1762.16 3431.24 1936.16 3500.87C2066.02 3553.33 2157.02 3697 2226.96 3805.36C2360.37 4011.29 2547.12 4582.42 2843.4 4645.48C3209.51 4723.93 3160.11 4063.27 3167.81 3868.22C3176.82 3637.47 3124.59 3017.51 3514.08 3093.51C4036.78 3195.49 4534.99 3513.42 5014.67 3723.77C5352.24 3871.85 5652.36 3997.76 6026.88 3963.44C6196.02 3947.94 6364.34 3930.19 6534.09 3919.6" stroke="#4A3AFF" stroke-opacity="0.5" stroke-width="5" stroke-miterlimit="10"/>
<path d="M4.97656 3618.15C472.513 3574.51 906.546 3387.21 1355.15 3263.75C1524.8 3217.07 1769.35 3125.48 1945.27 3198.24C2072.5 3250.9 2160.46 3387.02 2228.69 3494.4C2357.74 3697.29 2526.58 4241.45 2817.28 4304.51C3172.16 4381.49 3148.68 3746.91 3164.37 3549.41C3182.89 3316.6 3154.24 2729 3532.3 2788.04C4046.6 2868.55 4538.13 3247.96 4989.87 3473.31C5303.66 3629.43 5633.64 3793.69 5995.4 3716.9C6182.86 3677.09 6336.21 3618.84 6533.59 3617.86" stroke="#4A3AFF" stroke-opacity="0.5" stroke-width="5" stroke-miterlimit="10"/>
<path d="M4.97656 3317C483.445 3270.72 928.207 3077.63 1387.34 2950.05C1749.61 2849.43 2020.07 2784.12 2234.86 3124.9C2355.31 3315.93 2471.01 3742.7 2737.93 3806.05C3059.91 3882.84 3139.47 3403.99 3195.85 3200.8C3258.7 2974.37 3331.58 2527.19 3668.65 2593.39C4096.1 2677.33 4471.93 3077.53 4816.69 3308.08C5120.96 3511.56 5389.19 3639.73 5760.16 3532.06C6026.27 3454.79 6249.87 3331.81 6533.89 3316.91" stroke="#4A3AFF" stroke-opacity="0.5" stroke-width="5" stroke-miterlimit="10"/>
<path d="M4.97656 3015.78C497.413 2965.47 955.536 2765.81 1428.03 2633.32C1735.54 2546.93 2040.62 2437.78 2240.33 2731.39C2358.05 2904.47 2396.31 3188.66 2636.2 3251.13C2919.62 3324.97 3107.08 3023.13 3236.44 2837.69C3368.02 2648.72 3554.06 2347.86 3839.2 2431.02C4167.56 2526.63 4387.51 2952.82 4599.06 3182.58C4686.31 3277.22 4807.58 3410.78 4937.54 3454.81C5104.35 3511.2 5305.28 3434.32 5460.65 3378.42C5820.39 3249.07 6146.82 3061.38 6533.59 3015.58" stroke="#4A3AFF" stroke-opacity="0.5" stroke-width="5" stroke-miterlimit="10"/>
<path d="M4.97656 2714.49C508.446 2661.63 977.198 2456.28 1460.22 2319.39C1707 2249.47 2072.4 2104.23 2246.4 2361.95C2350.15 2515.61 2344.99 2700.07 2556.74 2752.73C2814.04 2816.67 3076.3 2621.62 3267.81 2489.04C3443.94 2367.04 3739.8 2136.89 3975.44 2236.23C4244.79 2349.79 4313.72 2791.08 4425.37 3017.31C4472.64 3112.92 4542.48 3250.51 4649.07 3300.42C4813.14 3377.31 5076.01 3250.8 5225.01 3193.53C5659.75 3026.82 6065.14 2783.52 6533.18 2714.78" stroke="#4A3AFF" stroke-opacity="0.5" stroke-width="5" stroke-miterlimit="10"/>
<path d="M4.97656 2413.46C507.738 2365.02 970.821 2149.86 1450.71 2009.34C1704.47 1935 2042.24 1807.23 2237.49 2045.13C2348.83 2181.05 2375.25 2349.82 2570.91 2396.89C2813.84 2455.73 3097.26 2275.58 3294.03 2166.04C3473.29 2066.41 3802.76 1849.49 4020.99 1939.32C4289.03 2049.74 4311.9 2512.6 4398.65 2737.27C4437.52 2837.98 4492.88 2970.56 4600.28 3023.03C4763.14 3102.76 5043.01 2970.86 5189.08 2913.59C5634.45 2738.64 6048.74 2472.3 6533.08 2413.46" stroke="#4A3AFF" stroke-opacity="0.5" stroke-width="5" stroke-miterlimit="10"/>
<path d="M4.97656 2112.21C475.246 2060.53 887.921 1822.13 1326.71 1666.31C1649.81 1551.48 1894.66 1514.31 2193.76 1680.92C2394.59 1792.81 2579.21 1971.39 2818.19 2004.53C3078.63 2041.01 3280.16 1890.29 3478.86 1752.7C3638.18 1642.28 3916.33 1416.83 4132.74 1500.87C4408.06 1608.16 4465.86 2117.11 4564.55 2343.54C4608.07 2443.57 4669.82 2587.13 4779.13 2640.29C4931.88 2714.42 5198.39 2606.55 5337.16 2551.34C5739.71 2391.5 6086.7 2139.47 6532.78 2111.82" stroke="#4A3AFF" stroke-opacity="0.5" stroke-width="5" stroke-miterlimit="10"/>
<path d="M4.97656 1810.95C429.596 1747.41 769.595 1482.04 1148.77 1304.94C1504.05 1139.11 1778.56 1175.49 2142.95 1284.35C2479.1 1384.86 2821.13 1538.73 3175.4 1569.52C3442.01 1592.66 3581.6 1459 3753.67 1285.13C3882.42 1155.29 4088.81 924.94 4307.35 1002.61C4417.47 1041.83 4495.21 1188.93 4543.9 1278.66C4658.78 1489.5 4735 1716.42 4843.31 1929.22C4896.25 2033.46 4974.89 2198.5 5093.32 2254.79C5233.92 2321.67 5457.71 2248.91 5586.06 2191.15C5916.24 2042.78 6149.05 1812.52 6532.88 1810.27" stroke="#4A3AFF" stroke-opacity="0.5" stroke-width="5" stroke-miterlimit="10"/>
<path d="M4.97656 1509.7C395.586 1437.72 665.945 1147.74 993.494 951.223C1351.61 736.461 1703.45 825.896 2095.38 901.21C2553.3 989.468 3019.62 1125.39 3488.07 1152.06C3761.36 1167.65 3857.02 1047.03 3992.15 840.508C4090.94 689.587 4236.8 454.526 4466.46 537.096C4591.88 582.108 4697.85 760.095 4760 858.65C4911.13 1097.24 5025.5 1356.23 5170.55 1598.15C5333.82 1870.09 5557.32 2138.29 5896.61 1911.08C6140.45 1747.8 6196.12 1517.84 6533.28 1509.01" stroke="#4A3AFF" stroke-opacity="0.5" stroke-width="5" stroke-miterlimit="10"/>
<path d="M4.97656 1208.44C388.602 1136.46 625.761 840.603 936.204 636.335C1288.05 405.099 1673.39 515.715 2066.63 579.163C2570 660.361 3080.25 782.059 3591.01 813.537C3862.69 830.208 3948.01 709.883 4064.22 496.593C4157.03 326.255 4283.66 98.549 4528.21 203.086C4679.13 267.612 4818.81 473.548 4906.27 594.167C5103.75 866.296 5266.21 1160.49 5458.12 1436.05C5598.11 1637.18 5967.06 2174.67 6199.05 1774.18C6303.31 1594.13 6235.19 1226.68 6533.99 1208.54" stroke="#4A3AFF" stroke-opacity="0.5" stroke-width="5" stroke-miterlimit="10"/>
<path d="M4.97656 907.176C365.321 844.316 622.42 612.492 934.584 447.743C1284.1 263.382 1636.04 345.168 2012.48 398.711C2467.26 464.022 2926.09 560.322 3386.04 586.211C3637.47 600.332 3755.59 502.169 3913.09 330.556C4050.04 181.302 4212.1 5.66855 4439.44 108.048C4593.6 177.478 4737.84 345.462 4844.32 465.885C5048.48 697.514 5224.4 951.011 5424.21 1186.07C5600.54 1393.67 5959.36 1852.91 6187.72 1471.93C6299.06 1286.2 6273.75 977.194 6535 907.96" stroke="#4A3AFF" stroke-opacity="0.5" stroke-width="5" stroke-miterlimit="10"/>
<path d="M4.97656 606.231C339.004 580.146 619.485 433.343 931.952 334.592C1252.82 233.096 1573.18 273.89 1902.25 308.703C2487.3 370.778 3096.65 534.252 3644.35 270.458C3835.86 178.376 4042.05 77.9574 4261.8 138.463C4624.77 238.195 4903.53 586.52 5184.83 807.754C5427.75 998.979 5689.61 1176.67 5982.14 973.09C6180.02 835.8 6283.07 669.09 6533.89 606.819" stroke="#4A3AFF" stroke-opacity="0.5" stroke-width="5" stroke-miterlimit="10"/>
<path d="M4.97656 305.264C318.76 308.402 619.688 248.387 929.422 214.162C1216.18 182.487 1509.62 195.53 1797.39 209.749C2331.63 235.932 2855.44 275.354 3386.54 199.943C3618.85 166.895 3852.16 137.868 4087.6 150.911C4377.9 166.993 4641.27 298.007 4912.95 385.285C5472.7 565.037 5973.53 326.446 6533.38 305.068" stroke="#4A3AFF" stroke-opacity="0.5" stroke-width="5" stroke-miterlimit="10"/>
<path d="M6222.51 3.61328C6227.67 351.938 6329.91 685.358 6356.22 1030.45C6375.46 1283.85 6271.6 1506.26 6217.55 1749.65C6109.04 2237.52 6100.54 2735.1 6222.82 3219.74C6280.61 3448.91 6316.95 3661.81 6307.94 3899.13C6299.54 4119.68 6233.95 4313.74 6186.48 4527.92C6057.62 5112.77 6226.97 5738.43 6222.72 6329.27" stroke="#4A3AFF" stroke-opacity="0.5" stroke-width="5" stroke-miterlimit="10"/>
<path d="M5911.84 3.80469C5960.83 436.073 6177.34 821.467 6264.59 1244.62C6304.27 1437.12 6288.89 1495.76 6170.05 1633.64C6089.08 1727.39 6014.38 1805.25 5948.38 1911.45C5794.73 2158.67 5673.26 2455.03 5653.83 2746.18C5636.82 2998.99 5755.05 3152.85 5911.84 3336.53C6055.07 3504.22 6212.16 3682.3 6167.52 3919.03C6128.35 4126.44 5954.96 4187.63 5818.01 4326.59C5612.94 4535.17 5689.86 4829.85 5729.95 5089.53C5793.82 5502.58 5891.29 5910.72 5912.14 6328.97" stroke="#4A3AFF" stroke-opacity="0.5" stroke-width="5" stroke-miterlimit="10"/>
<path d="M5601.3 4.10938C5704.74 522.969 6025.1 963.18 6180.07 1465.27C6246.07 1679.25 6257.51 1755.25 6049.2 1834.19C5911.94 1886.16 5786.02 1982.66 5683.18 2082.19C5452.8 2304.02 5213.62 2637.34 5165.95 2959.19C5124.75 3236.71 5384.08 3351.44 5601.19 3458.33C5758.09 3535.61 6135.13 3699.38 6034.11 3938.85C5948.38 4142.43 5617.09 4075.16 5447.84 4116.94C5080.92 4207.55 5233.36 4572.54 5293.38 4850.26C5400.07 5342.55 5551.9 5827.08 5600.89 6328.59" stroke="#4A3AFF" stroke-opacity="0.5" stroke-width="5" stroke-miterlimit="10"/>
<path d="M5290.33 3.99219C5420.3 583.357 5815.56 1063.78 6022.35 1616.96C6119.02 1875.26 6081.87 1898.5 5840.16 1937.73C5673.35 1964.4 5509.77 2056.58 5378.8 2156.31C5104.39 2366.27 4797.89 2726.56 4747.79 3078.12C4703.45 3388.79 5048.92 3457.63 5290.13 3526.76C5430.42 3566.97 5971.04 3692.69 5828.62 3955.89C5717.99 4160.26 5262.8 3996.4 5095.78 3991.98C4648.69 3980.41 4837.17 4421.51 4907.21 4707.85C5038.8 5246.13 5232.23 5776.76 5290.03 6328.57" stroke="#4A3AFF" stroke-opacity="0.5" stroke-width="5" stroke-miterlimit="10"/>
<path d="M4979.33 4.49219C5087.33 538.257 5473.49 948.167 5673.3 1446.53C5762.47 1668.45 5754.88 1726.8 5533.72 1787.8C5376.83 1831.04 5230.06 1934.89 5110.41 2038.55C4852 2263.21 4542.06 2628.5 4489.73 2978C4447.62 3258.86 4732.66 3350.65 4954.03 3429.1C5106.87 3483.92 5523.09 3616.8 5411.95 3859.31C5322.17 4054.95 4959.8 3992.78 4794.5 4030.43C4405.62 4118.69 4563.32 4475.06 4631.74 4771.51C4751.18 5289.29 4922.04 5799.22 4978.62 6328.38" stroke="#4A3AFF" stroke-opacity="0.5" stroke-width="5" stroke-miterlimit="10"/>
<path d="M4668.35 3.99219C4749.32 409.195 5076.17 654.454 5274.86 1001.11C5372.84 1171.94 5339.34 1198.81 5204.82 1305.9C5082.46 1401.62 4971.63 1510.41 4874.43 1630.2C4648.51 1909.88 4394.85 2280.66 4345.05 2643.69C4315.19 2860.91 4412.16 2986.04 4566.12 3121.46C4959.05 3467.24 4708.43 3763.49 4488.88 4125.25C4322.88 4398.66 4374 4661.66 4429.67 4965.86C4512.57 5419.8 4634.95 5868.05 4668.25 6328.96" stroke="#4A3AFF" stroke-opacity="0.5" stroke-width="5" stroke-miterlimit="10"/>
<path d="M4357.43 3.30859C4419.58 306.328 4680.32 307.309 4870.21 498.436C5034.19 663.969 4731.14 980.325 4641.96 1150.96C4464.72 1490.26 4263.4 1869.77 4224.73 2255.16C4207.63 2426.19 4193.45 2594.86 4165.82 2765.1C4086.26 3253.26 4148.41 3738.78 4179.69 4230.38C4199.93 4549.19 4208.74 4870.94 4242.85 5188.37C4283.34 5568.86 4351.56 5946.21 4357.53 6329.55" stroke="#4A3AFF" stroke-opacity="0.5" stroke-width="5" stroke-miterlimit="10"/>
<path d="M4046.54 3.30859C4018.3 281.714 4354.96 91.5666 4480.27 133.832C4701.24 208.852 4454.36 693.487 4400.81 842.545C4267 1214.7 4082.68 1600.09 4045.53 1997.25C4023.46 2233.3 3957.87 2356.96 3794.91 2525.33C3638.83 2685.86 3529.81 2824.92 3558.76 3059.29C3611.19 3482.34 3768.59 3899.61 3878.42 4310.11C4053.02 4963.12 4053.12 5656.14 4046.75 6329.16" stroke="#4A3AFF" stroke-opacity="0.5" stroke-width="5" stroke-miterlimit="10"/>
<path d="M3735.59 3.5C3689.43 286.22 4058.28 74.6948 4176.2 104.212C4435.22 168.935 4195.64 700.15 4138.65 855.485C4001.49 1229.5 3805.13 1600.77 3749.25 1997.74C3715.35 2238.1 3653.4 2368.52 3500.45 2557.49C3358.04 2733.52 3238.7 2886.69 3262.89 3122.93C3306.52 3547.55 3490.53 3966.88 3610.48 4373.65C3802.8 5026.66 3720 5659.67 3735.49 6328.76" stroke="#4A3AFF" stroke-opacity="0.5" stroke-width="5" stroke-miterlimit="10"/>
<path d="M3424.65 3.61328C3403.6 299.67 3820.93 171.206 3985.21 241.224C4287.76 370.375 4032.48 816.47 3936.22 1015.93C3764.85 1371.71 3505.83 1730.92 3438.42 2125.04C3396.61 2368.83 3368.27 2597.32 3299.85 2837.19C3234.36 3066.95 3150.65 3309.37 3174.13 3551C3209.86 3917.76 3369.39 4276.19 3474.15 4626.77C3566.66 4936.16 3621.02 5221.63 3560.69 5542.4C3510.89 5807.86 3431.33 6055.67 3424.65 6328.58" stroke="#4A3AFF" stroke-opacity="0.5" stroke-width="5" stroke-miterlimit="10"/>
<path d="M3114.07 3.92188C3207.09 338.91 3561.87 277.326 3826.76 415.204C4182.65 600.546 3914.42 986.332 3763.6 1224.33C3554.88 1553.54 3213.26 1902.25 3129.96 2291.87C3070.24 2571.05 3128.85 2915.56 3132.49 3201.12C3136.24 3499.33 3122.37 3807.26 3151.11 4104.49C3179.56 4399.57 3305.27 4679.54 3391.61 4960.99C3468.95 5213.21 3535.25 5477.29 3405.08 5724.61C3292.42 5938.49 3145.24 6076.67 3114.07 6329.18" stroke="#4A3AFF" stroke-opacity="0.5" stroke-width="5" stroke-miterlimit="10"/>
<path d="M2803.19 3.99219C2916.45 365.752 3340.36 379.187 3635.83 552.271C4023.7 779.388 3761.85 1123.3 3561.13 1385.03C3323.36 1695.41 2918.88 2029.51 2818.88 2419.42C2740.13 2727.15 2883.76 3171.97 2931.64 3481.07C2985.99 3832.14 3021.22 4181.05 3062.11 4532.81C3089.95 4772.18 3185.19 4985.08 3255.04 5214.36C3319.41 5425.29 3393.61 5688.99 3215.96 5867.86C3046.02 6038.98 2853.8 6062.03 2802.88 6328.76" stroke="#4A3AFF" stroke-opacity="0.5" stroke-width="5" stroke-miterlimit="10"/>
<path d="M2492.46 3.92188C2611.8 362.25 3032.47 395.69 3326.72 577.501C3709.43 813.739 3456.99 1141.96 3253.33 1411.05C3017.79 1722.21 2637.41 2047.49 2528.29 2432.1C2439.62 2744.63 2599.15 3205.92 2655.22 3518.06C2720.21 3878.94 2763.43 4233.44 2805.03 4596.09C2830.84 4820.46 2916.37 5020.02 2980.44 5235.17C3041.78 5441.11 3118.1 5708.63 2936.41 5877.01C2754.72 6045.38 2538.92 6050.29 2492.16 6329.38" stroke="#4A3AFF" stroke-opacity="0.5" stroke-width="5" stroke-miterlimit="10"/>
<path d="M2181.2 3.92188C2269.77 327.535 2573.13 337.341 2816.36 515.426C3109.9 731.168 2926.18 1059.68 2804.31 1322.79C2655.82 1643.07 2439.92 1966.78 2370.28 2316.09C2308.33 2626.66 2409.86 3010.68 2448.73 3321.84C2490.33 3655.26 2514.42 3986.81 2545.19 4320.53C2566.34 4550.49 2637.81 4764.95 2690.24 4989.03C2747.33 5232.53 2794.39 5473.18 2632.74 5689.41C2464.11 5914.96 2228.47 6031.16 2180.9 6329.28" stroke="#4A3AFF" stroke-opacity="0.5" stroke-width="5" stroke-miterlimit="10"/>
<path d="M1870.19 3.69141C1898.54 272.977 2062.51 256.011 2219.91 426.546C2384.39 604.827 2309.89 966.783 2302.61 1189.98C2282.36 1804.74 2276.8 2414.71 2294.21 3029.67C2309.59 3571.38 2328.82 4085.33 2412.53 4620.86C2456.87 4904.47 2477.21 5156.88 2332.97 5420.29C2165.05 5726.74 1921.11 5972.88 1870.4 6328.85" stroke="#4A3AFF" stroke-opacity="0.5" stroke-width="5" stroke-miterlimit="10"/>
<path d="M1558.98 3.61328C1539.24 176.697 1606.75 213.471 1659.08 348.898C1698.76 451.376 1670.42 570.426 1692.99 677.513C1721.23 812.351 1773.36 947.288 1822.55 1075.85C1937.44 1376.03 2098.88 1678.26 2156.58 1996.09C2201.72 2243.7 2141.09 2527.89 2117.81 2777.37C2069.02 3298.88 2078.34 3783.02 2129.25 4303.45C2159.62 4617.25 2161.44 4887.81 2031.27 5185.05C1864.26 5566.52 1614.75 5909.75 1559.28 6328.58" stroke="#4A3AFF" stroke-opacity="0.5" stroke-width="5" stroke-miterlimit="10"/>
<path d="M1248.53 3.69141C1247.82 372.806 1255.52 710.54 1443.48 1044.74C1604.52 1330.99 1853.22 1619.99 1913.04 1949.49C1956.47 2188.18 1885.92 2461.78 1847.15 2698.5C1763.34 3210.21 1785.3 3689.84 1822.55 4204.48C1845.83 4526.33 1842.8 4794.14 1719.21 5102.16C1555.13 5509.43 1311.9 5890.6 1248.63 6328.85" stroke="#4A3AFF" stroke-opacity="0.5" stroke-width="5" stroke-miterlimit="10"/>
<path d="M937.623 3.5C938.939 407.232 922.946 794.685 1098.16 1170.47C1229.74 1451.91 1423.58 1732.97 1473.89 2043.24C1512.66 2282.52 1453.14 2548.18 1422.57 2786.67C1357.59 3292.88 1372.97 3776.43 1402.33 4284.41C1420.24 4595.27 1418.93 4865.64 1315.98 5166.99C1183.59 5554.15 992.687 5920.32 937.826 6328.37" stroke="#4A3AFF" stroke-opacity="0.5" stroke-width="5" stroke-miterlimit="10"/>
<path d="M626.776 3.80469C626.776 462.551 584.466 948.558 717.368 1392.3C798.344 1663.25 915.659 1930.58 941.369 2214.08C963.131 2454.73 928.311 2705.48 909.181 2945.64C869.806 3442.44 880.333 3931.29 897.743 4428.77C907.865 4716.39 914.444 4993.33 850.271 5276.73C770.813 5628.39 649.753 5967.21 626.776 6328.97" stroke="#4A3AFF" stroke-opacity="0.5" stroke-width="5" stroke-miterlimit="10"/>
<path d="M315.827 4.10938C315.827 532.775 278.882 1078.99 340.019 1604.72C398.374 2100.26 419.889 2599.22 404.395 3097.75C389.516 3588.07 394.982 4076.93 401.156 4566.95C408.747 5158.28 310.058 5741.08 315.625 6329.66" stroke="#4A3AFF" stroke-opacity="0.5" stroke-width="5" stroke-miterlimit="10"/>
</svg>
