<svg xmlns="http://www.w3.org/2000/svg" version="1.1" xmlns:xlink="http://www.w3.org/1999/xlink" xmlns:svgjs="http://svgjs.com/svgjs" width="1920" height="1080" preserveAspectRatio="none" viewBox="0 0 1920 1080">
  <g mask="url(&quot;#SvgjsMask1149&quot;)" fill="none">
    <rect width="1920" height="1080" x="0" y="0" fill="rgba(20, 20, 20, 1)"></rect>
    <use xlink:href="#SvgjsSymbol1156" x="0" y="0"></use>
    <use xlink:href="#SvgjsSymbol1156" x="0" y="720"></use>
    <use xlink:href="#SvgjsSymbol1156" x="720" y="0"></use>
    <use xlink:href="#SvgjsSymbol1156" x="720" y="720"></use>
    <use xlink:href="#SvgjsSymbol1156" x="1440" y="0"></use>
    <use xlink:href="#SvgjsSymbol1156" x="1440" y="720"></use>
  </g>
  <defs>
    <mask id="SvgjsMask1149">
      <rect width="1920" height="1080" fill="#ffffff"></rect>
    </mask>
    <path d="M-1 0 a1 1 0 1 0 2 0 a1 1 0 1 0 -2 0z" id="SvgjsPath1154"></path>
    <path d="M-3 0 a3 3 0 1 0 6 0 a3 3 0 1 0 -6 0z" id="SvgjsPath1155"></path>
    <path d="M-5 0 a5 5 0 1 0 10 0 a5 5 0 1 0 -10 0z" id="SvgjsPath1150"></path>
    <path d="M2 -2 L-2 2z" id="SvgjsPath1152"></path>
    <path d="M6 -6 L-6 6z" id="SvgjsPath1151"></path>
    <path d="M30 -30 L-30 30z" id="SvgjsPath1153"></path>
  </defs>
  <symbol id="SvgjsSymbol1156">
    <use xlink:href="#SvgjsPath1150" x="30" y="30" stroke="rgba(5, 64, 115, 0.5)"></use>
    <use xlink:href="#SvgjsPath1150" x="30" y="90" stroke="rgba(15, 150, 71,0.5)"></use>
    <use xlink:href="#SvgjsPath1151" x="30" y="150" stroke="rgba(5, 64, 115, 0.5)"></use>
    <use xlink:href="#SvgjsPath1152" x="30" y="210" stroke="rgba(15, 150, 71,0.5)"></use>
    <use xlink:href="#SvgjsPath1150" x="30" y="270" stroke="rgba(5, 64, 115, 0.5)"></use>
    <use xlink:href="#SvgjsPath1151" x="30" y="330" stroke="rgba(15, 150, 71,0.5)"></use>
    <use xlink:href="#SvgjsPath1151" x="30" y="390" stroke="rgba(5, 64, 115, 0.5)"></use>
    <use xlink:href="#SvgjsPath1150" x="30" y="450" stroke="rgba(15, 150, 71,0.5)"></use>
    <use xlink:href="#SvgjsPath1153" x="30" y="510" stroke="rgba(5, 64, 115, 0.5)" stroke-width="3"></use>
    <use xlink:href="#SvgjsPath1150" x="30" y="570" stroke="rgba(15, 150, 71,0.5)"></use>
    <use xlink:href="#SvgjsPath1151" x="30" y="630" stroke="rgba(5, 64, 115, 0.5)"></use>
    <use xlink:href="#SvgjsPath1150" x="30" y="690" stroke="rgba(15, 150, 71,0.5)"></use>
    <use xlink:href="#SvgjsPath1151" x="90" y="30" stroke="rgba(5, 64, 115, 0.5)"></use>
    <use xlink:href="#SvgjsPath1150" x="90" y="90" stroke="rgba(15, 150, 71,0.5)"></use>
    <use xlink:href="#SvgjsPath1154" x="90" y="150" stroke="rgba(5, 64, 115, 0.5)"></use>
    <use xlink:href="#SvgjsPath1152" x="90" y="210" stroke="rgba(15, 150, 71,0.5)"></use>
    <use xlink:href="#SvgjsPath1151" x="90" y="270" stroke="rgba(5, 64, 115, 0.5)"></use>
    <use xlink:href="#SvgjsPath1151" x="90" y="330" stroke="rgba(15, 150, 71,0.5)"></use>
    <use xlink:href="#SvgjsPath1151" x="90" y="390" stroke="rgba(5, 64, 115, 0.5)"></use>
    <use xlink:href="#SvgjsPath1152" x="90" y="450" stroke="rgba(15, 150, 71,0.5)"></use>
    <use xlink:href="#SvgjsPath1151" x="90" y="510" stroke="rgba(5, 64, 115, 0.5)"></use>
    <use xlink:href="#SvgjsPath1150" x="90" y="570" stroke="rgba(15, 150, 71,0.5)"></use>
    <use xlink:href="#SvgjsPath1150" x="90" y="630" stroke="rgba(5, 64, 115, 0.5)"></use>
    <use xlink:href="#SvgjsPath1150" x="90" y="690" stroke="rgba(15, 150, 71,0.5)"></use>
    <use xlink:href="#SvgjsPath1154" x="150" y="30" stroke="rgba(5, 64, 115, 0.5)"></use>
    <use xlink:href="#SvgjsPath1151" x="150" y="90" stroke="rgba(15, 150, 71,0.5)"></use>
    <use xlink:href="#SvgjsPath1151" x="150" y="150" stroke="rgba(5, 64, 115, 0.5)"></use>
    <use xlink:href="#SvgjsPath1151" x="150" y="210" stroke="rgba(5, 64, 115, 0.5)"></use>
    <use xlink:href="#SvgjsPath1151" x="150" y="270" stroke="rgba(15, 150, 71,0.5)"></use>
    <use xlink:href="#SvgjsPath1150" x="150" y="330" stroke="rgba(5, 64, 115, 0.5)"></use>
    <use xlink:href="#SvgjsPath1150" x="150" y="390" stroke="rgba(15, 150, 71,0.5)"></use>
    <use xlink:href="#SvgjsPath1150" x="150" y="450" stroke="rgba(5, 64, 115, 0.5)"></use>
    <use xlink:href="#SvgjsPath1155" x="150" y="510" stroke="rgba(15, 150, 71,0.5)"></use>
    <use xlink:href="#SvgjsPath1154" x="150" y="570" stroke="rgba(5, 64, 115, 0.5)"></use>
    <use xlink:href="#SvgjsPath1151" x="150" y="630" stroke="rgba(15, 150, 71,0.5)"></use>
    <use xlink:href="#SvgjsPath1154" x="150" y="690" stroke="rgba(5, 64, 115, 0.5)"></use>
    <use xlink:href="#SvgjsPath1151" x="210" y="30" stroke="rgba(15, 150, 71,0.5)"></use>
    <use xlink:href="#SvgjsPath1150" x="210" y="90" stroke="rgba(5, 64, 115, 0.5)"></use>
    <use xlink:href="#SvgjsPath1150" x="210" y="150" stroke="rgba(15, 150, 71,0.5)"></use>
    <use xlink:href="#SvgjsPath1154" x="210" y="210" stroke="rgba(5, 64, 115, 0.5)"></use>
    <use xlink:href="#SvgjsPath1151" x="210" y="270" stroke="rgba(15, 150, 71,0.5)"></use>
    <use xlink:href="#SvgjsPath1152" x="210" y="330" stroke="rgba(5, 64, 115, 0.5)"></use>
    <use xlink:href="#SvgjsPath1150" x="210" y="390" stroke="rgba(15, 150, 71,0.5)"></use>
    <use xlink:href="#SvgjsPath1150" x="210" y="450" stroke="rgba(5, 64, 115, 0.5)"></use>
    <use xlink:href="#SvgjsPath1153" x="210" y="510" stroke="rgba(15, 150, 71,0.5)"></use>
    <use xlink:href="#SvgjsPath1155" x="210" y="570" stroke="rgba(5, 64, 115, 0.5)"></use>
    <use xlink:href="#SvgjsPath1155" x="210" y="630" stroke="rgba(15, 150, 71,0.5)"></use>
    <use xlink:href="#SvgjsPath1155" x="210" y="690" stroke="rgba(5, 64, 115, 0.5)"></use>
    <use xlink:href="#SvgjsPath1150" x="270" y="30" stroke="rgba(15, 150, 71,0.5)"></use>
    <use xlink:href="#SvgjsPath1151" x="270" y="90" stroke="rgba(5, 64, 115, 0.5)"></use>
    <use xlink:href="#SvgjsPath1150" x="270" y="150" stroke="rgba(15, 150, 71,0.5)"></use>
    <use xlink:href="#SvgjsPath1151" x="270" y="210" stroke="rgba(5, 64, 115, 0.5)"></use>
    <use xlink:href="#SvgjsPath1150" x="270" y="270" stroke="rgba(15, 150, 71,0.5)"></use>
    <use xlink:href="#SvgjsPath1152" x="270" y="330" stroke="rgba(5, 64, 115, 0.5)"></use>
    <use xlink:href="#SvgjsPath1151" x="270" y="390" stroke="rgba(15, 150, 71,0.5)"></use>
    <use xlink:href="#SvgjsPath1155" x="270" y="450" stroke="rgba(5, 64, 115, 0.5)"></use>
    <use xlink:href="#SvgjsPath1150" x="270" y="510" stroke="rgba(15, 150, 71,0.5)"></use>
    <use xlink:href="#SvgjsPath1151" x="270" y="570" stroke="rgba(5, 64, 115, 0.5)"></use>
    <use xlink:href="#SvgjsPath1152" x="270" y="630" stroke="rgba(15, 150, 71,0.5)"></use>
    <use xlink:href="#SvgjsPath1150" x="270" y="690" stroke="rgba(5, 64, 115, 0.5)"></use>
    <use xlink:href="#SvgjsPath1152" x="330" y="30" stroke="rgba(15, 150, 71,0.5)"></use>
    <use xlink:href="#SvgjsPath1152" x="330" y="90" stroke="rgba(5, 64, 115, 0.5)"></use>
    <use xlink:href="#SvgjsPath1151" x="330" y="150" stroke="rgba(15, 150, 71,0.5)"></use>
    <use xlink:href="#SvgjsPath1151" x="330" y="210" stroke="rgba(5, 64, 115, 0.5)"></use>
    <use xlink:href="#SvgjsPath1150" x="330" y="270" stroke="rgba(15, 150, 71,0.5)"></use>
    <use xlink:href="#SvgjsPath1150" x="330" y="330" stroke="rgba(5, 64, 115, 0.5)"></use>
    <use xlink:href="#SvgjsPath1153" x="330" y="390" stroke="rgba(15, 150, 71,0.5)" stroke-width="3"></use>
    <use xlink:href="#SvgjsPath1152" x="330" y="450" stroke="rgba(5, 64, 115, 0.5)"></use>
    <use xlink:href="#SvgjsPath1152" x="330" y="510" stroke="rgba(15, 150, 71,0.5)"></use>
    <use xlink:href="#SvgjsPath1151" x="330" y="570" stroke="rgba(5, 64, 115, 0.5)"></use>
    <use xlink:href="#SvgjsPath1152" x="330" y="630" stroke="rgba(15, 150, 71,0.5)"></use>
    <use xlink:href="#SvgjsPath1151" x="330" y="690" stroke="rgba(5, 64, 115, 0.5)"></use>
    <use xlink:href="#SvgjsPath1150" x="390" y="30" stroke="rgba(15, 150, 71,0.5)"></use>
    <use xlink:href="#SvgjsPath1153" x="390" y="90" stroke="rgba(5, 64, 115, 0.5)" stroke-width="3"></use>
    <use xlink:href="#SvgjsPath1150" x="390" y="150" stroke="rgba(15, 150, 71,0.5)"></use>
    <use xlink:href="#SvgjsPath1151" x="390" y="210" stroke="rgba(5, 64, 115, 0.5)"></use>
    <use xlink:href="#SvgjsPath1151" x="390" y="270" stroke="rgba(15, 150, 71,0.5)"></use>
    <use xlink:href="#SvgjsPath1150" x="390" y="330" stroke="rgba(5, 64, 115, 0.5)"></use>
    <use xlink:href="#SvgjsPath1152" x="390" y="390" stroke="rgba(15, 150, 71,0.5)"></use>
    <use xlink:href="#SvgjsPath1151" x="390" y="450" stroke="rgba(5, 64, 115, 0.5)"></use>
    <use xlink:href="#SvgjsPath1154" x="390" y="510" stroke="rgba(15, 150, 71,0.5)"></use>
    <use xlink:href="#SvgjsPath1150" x="390" y="570" stroke="rgba(5, 64, 115, 0.5)"></use>
    <use xlink:href="#SvgjsPath1154" x="390" y="630" stroke="rgba(15, 150, 71,0.5)"></use>
    <use xlink:href="#SvgjsPath1155" x="390" y="690" stroke="rgba(5, 64, 115, 0.5)"></use>
    <use xlink:href="#SvgjsPath1152" x="450" y="30" stroke="rgba(15, 150, 71,0.5)"></use>
    <use xlink:href="#SvgjsPath1150" x="450" y="90" stroke="rgba(5, 64, 115, 0.5)"></use>
    <use xlink:href="#SvgjsPath1152" x="450" y="150" stroke="rgba(15, 150, 71,0.5)"></use>
    <use xlink:href="#SvgjsPath1154" x="450" y="210" stroke="rgba(5, 64, 115, 0.5)"></use>
    <use xlink:href="#SvgjsPath1151" x="450" y="270" stroke="rgba(15, 150, 71,0.5)"></use>
    <use xlink:href="#SvgjsPath1155" x="450" y="330" stroke="rgba(5, 64, 115, 0.5)"></use>
    <use xlink:href="#SvgjsPath1151" x="450" y="390" stroke="rgba(15, 150, 71,0.5)"></use>
    <use xlink:href="#SvgjsPath1151" x="450" y="450" stroke="rgba(5, 64, 115, 0.5)"></use>
    <use xlink:href="#SvgjsPath1150" x="450" y="510" stroke="rgba(15, 150, 71,0.5)"></use>
    <use xlink:href="#SvgjsPath1151" x="450" y="570" stroke="rgba(5, 64, 115, 0.5)"></use>
    <use xlink:href="#SvgjsPath1150" x="450" y="630" stroke="rgba(15, 150, 71,0.5)"></use>
    <use xlink:href="#SvgjsPath1151" x="450" y="690" stroke="rgba(5, 64, 115, 0.5)"></use>
    <use xlink:href="#SvgjsPath1151" x="510" y="30" stroke="rgba(15, 150, 71,0.5)"></use>
    <use xlink:href="#SvgjsPath1151" x="510" y="90" stroke="rgba(5, 64, 115, 0.5)"></use>
    <use xlink:href="#SvgjsPath1151" x="510" y="150" stroke="rgba(15, 150, 71,0.5)"></use>
    <use xlink:href="#SvgjsPath1152" x="510" y="210" stroke="rgba(5, 64, 115, 0.5)"></use>
    <use xlink:href="#SvgjsPath1151" x="510" y="270" stroke="rgba(15, 150, 71,0.5)"></use>
    <use xlink:href="#SvgjsPath1154" x="510" y="330" stroke="rgba(5, 64, 115, 0.5)"></use>
    <use xlink:href="#SvgjsPath1150" x="510" y="390" stroke="rgba(15, 150, 71,0.5)"></use>
    <use xlink:href="#SvgjsPath1151" x="510" y="450" stroke="rgba(5, 64, 115, 0.5)"></use>
    <use xlink:href="#SvgjsPath1150" x="510" y="510" stroke="rgba(15, 150, 71,0.5)"></use>
    <use xlink:href="#SvgjsPath1153" x="510" y="570" stroke="rgba(5, 64, 115, 0.5)" stroke-width="3"></use>
    <use xlink:href="#SvgjsPath1151" x="510" y="630" stroke="rgba(15, 150, 71,0.5)"></use>
    <use xlink:href="#SvgjsPath1151" x="510" y="690" stroke="rgba(5, 64, 115, 0.5)"></use>
    <use xlink:href="#SvgjsPath1155" x="570" y="30" stroke="rgba(15, 150, 71,0.5)"></use>
    <use xlink:href="#SvgjsPath1151" x="570" y="90" stroke="rgba(5, 64, 115, 0.5)"></use>
    <use xlink:href="#SvgjsPath1150" x="570" y="150" stroke="rgba(15, 150, 71,0.5)"></use>
    <use xlink:href="#SvgjsPath1151" x="570" y="210" stroke="rgba(5, 64, 115, 0.5)"></use>
    <use xlink:href="#SvgjsPath1152" x="570" y="270" stroke="rgba(15, 150, 71,0.5)"></use>
    <use xlink:href="#SvgjsPath1150" x="570" y="330" stroke="rgba(5, 64, 115, 0.5)"></use>
    <use xlink:href="#SvgjsPath1150" x="570" y="390" stroke="rgba(15, 150, 71,0.5)"></use>
    <use xlink:href="#SvgjsPath1155" x="570" y="450" stroke="rgba(5, 64, 115, 0.5)"></use>
    <use xlink:href="#SvgjsPath1150" x="570" y="510" stroke="rgba(15, 150, 71,0.5)"></use>
    <use xlink:href="#SvgjsPath1151" x="570" y="570" stroke="rgba(5, 64, 115, 0.5)"></use>
    <use xlink:href="#SvgjsPath1151" x="570" y="630" stroke="rgba(15, 150, 71,0.5)"></use>
    <use xlink:href="#SvgjsPath1151" x="570" y="690" stroke="rgba(5, 64, 115, 0.5)"></use>
    <use xlink:href="#SvgjsPath1152" x="630" y="30" stroke="rgba(15, 150, 71,0.5)"></use>
    <use xlink:href="#SvgjsPath1151" x="630" y="90" stroke="rgba(5, 64, 115, 0.5)"></use>
    <use xlink:href="#SvgjsPath1151" x="630" y="150" stroke="rgba(15, 150, 71,0.5)"></use>
    <use xlink:href="#SvgjsPath1154" x="630" y="210" stroke="rgba(5, 64, 115, 0.5)"></use>
    <use xlink:href="#SvgjsPath1151" x="630" y="270" stroke="rgba(15, 150, 71,0.5)"></use>
    <use xlink:href="#SvgjsPath1152" x="630" y="330" stroke="rgba(5, 64, 115, 0.5)"></use>
    <use xlink:href="#SvgjsPath1152" x="630" y="390" stroke="rgba(15, 150, 71,0.5)"></use>
    <use xlink:href="#SvgjsPath1153" x="630" y="450" stroke="rgba(5, 64, 115, 0.5)" stroke-width="3"></use>
    <use xlink:href="#SvgjsPath1150" x="630" y="510" stroke="rgba(15, 150, 71,0.5)"></use>
    <use xlink:href="#SvgjsPath1150" x="630" y="570" stroke="rgba(5, 64, 115, 0.5)"></use>
    <use xlink:href="#SvgjsPath1152" x="630" y="630" stroke="rgba(15, 150, 71,0.5)"></use>
    <use xlink:href="#SvgjsPath1152" x="630" y="690" stroke="rgba(5, 64, 115, 0.5)"></use>
    <use xlink:href="#SvgjsPath1151" x="690" y="30" stroke="rgba(15, 150, 71,0.5)"></use>
    <use xlink:href="#SvgjsPath1151" x="690" y="90" stroke="rgba(5, 64, 115, 0.5)"></use>
    <use xlink:href="#SvgjsPath1155" x="690" y="150" stroke="rgba(15, 150, 71,0.5)"></use>
    <use xlink:href="#SvgjsPath1153" x="690" y="210" stroke="rgba(5, 64, 115, 0.5)" stroke-width="3"></use>
    <use xlink:href="#SvgjsPath1155" x="690" y="270" stroke="rgba(15, 150, 71,0.5)"></use>
    <use xlink:href="#SvgjsPath1150" x="690" y="330" stroke="rgba(5, 64, 115, 0.5)"></use>
    <use xlink:href="#SvgjsPath1152" x="690" y="390" stroke="rgba(15, 150, 71,0.5)"></use>
    <use xlink:href="#SvgjsPath1151" x="690" y="450" stroke="rgba(5, 64, 115, 0.5)"></use>
    <use xlink:href="#SvgjsPath1152" x="690" y="510" stroke="rgba(15, 150, 71,0.5)"></use>
    <use xlink:href="#SvgjsPath1154" x="690" y="570" stroke="rgba(5, 64, 115, 0.5)"></use>
    <use xlink:href="#SvgjsPath1150" x="690" y="630" stroke="rgba(15, 150, 71,0.5)"></use>
    <use xlink:href="#SvgjsPath1154" x="690" y="690" stroke="rgba(5, 64, 115, 0.5)"></use>
  </symbol>
</svg>