<svg xmlns="http://www.w3.org/2000/svg" version="1.1" xmlns:xlink="http://www.w3.org/1999/xlink" xmlns:svgjs="http://svgjs.com/svgjs" width="1920" height="1080" preserveAspectRatio="none" viewBox="0 0 1920 1080"><g mask="url(&quot;#SvgjsMask4258&quot;)" fill="none"><rect width="1920" height="1080" x="0" y="0" fill="rgba(20, 20, 20, 1)"></rect><g transform="translate(403.2, 0)"><use xlink:href="#SvgjsPath4259" x="571.5" y="540" fill="rgba(168, 168, 168, 0.16)"></use><use xlink:href="#SvgjsPath4260" x="592.5" y="540" fill="rgba(255, 255, 255, 0.22)"></use><use xlink:href="#SvgjsPath4260" x="613.5" y="540" fill="rgba(168, 168, 168, 0.16)"></use><use xlink:href="#SvgjsPath4261" x="634.5" y="540" fill="rgba(255, 255, 255, 0.22)"></use><use xlink:href="#SvgjsPath4262" x="655.5" y="540" fill="rgba(168, 168, 168, 0.16)"></use><use xlink:href="#SvgjsPath4260" x="676.5" y="540" fill="rgba(168, 168, 168, 0.16)"></use><use xlink:href="#SvgjsPath4263" x="697.5" y="540" fill="rgba(168, 168, 168, 0.16)"></use><use xlink:href="#SvgjsPath4261" x="718.5" y="540" fill="rgba(255, 255, 255, 0.22)"></use><use xlink:href="#SvgjsPath4264" x="739.5" y="540" fill="rgba(255, 255, 255, 0.22)"></use><use xlink:href="#SvgjsPath4265" x="760.5" y="540" fill="rgba(168, 168, 168, 0.16)"></use><use xlink:href="#SvgjsPath4262" x="781.5" y="540" fill="rgba(168, 168, 168, 0.16)"></use><use xlink:href="#SvgjsPath4262" x="802.5" y="540" fill="rgba(168, 168, 168, 0.16)"></use><use xlink:href="#SvgjsPath4260" x="823.5" y="540" fill="rgba(168, 168, 168, 0.16)"></use><use xlink:href="#SvgjsPath4266" x="844.5" y="540" fill="rgba(255, 255, 255, 0.22)"></use><use xlink:href="#SvgjsPath4267" x="865.5" y="540" fill="rgba(168, 168, 168, 0.16)"></use><use xlink:href="#SvgjsPath4266" x="886.5" y="540" fill="rgba(255, 255, 255, 0.22)"></use><use xlink:href="#SvgjsPath4262" x="907.5" y="540" fill="rgba(255, 255, 255, 0.22)"></use><use xlink:href="#SvgjsPath4261" x="928.5" y="540" fill="rgba(255, 255, 255, 0.22)"></use><use xlink:href="#SvgjsPath4266" x="949.5" y="540" fill="rgba(168, 168, 168, 0.16)"></use><use xlink:href="#SvgjsPath4268" x="970.5" y="540" fill="rgba(255, 255, 255, 0.22)"></use><use xlink:href="#SvgjsPath4267" x="991.5" y="540" fill="rgba(168, 168, 168, 0.16)"></use><use xlink:href="#SvgjsPath4267" x="1012.5" y="540" fill="rgba(168, 168, 168, 0.16)"></use><use xlink:href="#SvgjsPath4263" x="1033.5" y="540" fill="rgba(255, 255, 255, 0.22)"></use><use xlink:href="#SvgjsPath4263" x="1054.5" y="540" fill="rgba(168, 168, 168, 0.16)"></use><use xlink:href="#SvgjsPath4265" x="1075.5" y="540" fill="rgba(168, 168, 168, 0.16)"></use><use xlink:href="#SvgjsPath4262" x="1096.5" y="540" fill="rgba(168, 168, 168, 0.16)"></use><use xlink:href="#SvgjsPath4263" x="1117.5" y="540" fill="rgba(168, 168, 168, 0.16)"></use><use xlink:href="#SvgjsPath4261" x="1138.5" y="540" fill="rgba(255, 255, 255, 0.22)"></use><use xlink:href="#SvgjsPath4261" x="1159.5" y="540" fill="rgba(168, 168, 168, 0.16)"></use><use xlink:href="#SvgjsPath4261" x="1180.5" y="540" fill="rgba(168, 168, 168, 0.16)"></use><use xlink:href="#SvgjsPath4267" x="1201.5" y="540" fill="rgba(255, 255, 255, 0.22)"></use><use xlink:href="#SvgjsPath4261" x="1222.5" y="540" fill="rgba(255, 255, 255, 0.22)"></use><use xlink:href="#SvgjsPath4261" x="1243.5" y="540" fill="rgba(168, 168, 168, 0.16)"></use><use xlink:href="#SvgjsPath4260" x="1264.5" y="540" fill="rgba(168, 168, 168, 0.16)"></use><use xlink:href="#SvgjsPath4263" x="1285.5" y="540" fill="rgba(168, 168, 168, 0.16)"></use><use xlink:href="#SvgjsPath4268" x="1306.5" y="540" fill="rgba(255, 255, 255, 0.22)"></use><use xlink:href="#SvgjsPath4262" x="1327.5" y="540" fill="rgba(255, 255, 255, 0.22)"></use><use xlink:href="#SvgjsPath4267" x="1348.5" y="540" fill="rgba(168, 168, 168, 0.16)"></use></g></g><defs><mask id="SvgjsMask4258"><rect width="1920" height="1080" fill="#ffffff"></rect></mask><path d="M-8.4 0 a8.4 8.4 0 1 0 16.8 0 a8.4 8.4 0 1 0 -16.8 0zM-8.4 21 a8.4 8.4 0 1 0 16.8 0 a8.4 8.4 0 1 0 -16.8 0zM-8.4 -21 a8.4 8.4 0 1 0 16.8 0 a8.4 8.4 0 1 0 -16.8 0z" id="SvgjsPath4264"></path><path d="M-8.4 0 a8.4 8.4 0 1 0 16.8 0 a8.4 8.4 0 1 0 -16.8 0zM-8.4 21 a8.4 8.4 0 1 0 16.8 0 a8.4 8.4 0 1 0 -16.8 0zM-8.4 -21 a8.4 8.4 0 1 0 16.8 0 a8.4 8.4 0 1 0 -16.8 0zM-8.4 42 a8.4 8.4 0 1 0 16.8 0 a8.4 8.4 0 1 0 -16.8 0zM-8.4 -42 a8.4 8.4 0 1 0 16.8 0 a8.4 8.4 0 1 0 -16.8 0z" id="SvgjsPath4263"></path><path d="M-8.4 0 a8.4 8.4 0 1 0 16.8 0 a8.4 8.4 0 1 0 -16.8 0zM-8.4 21 a8.4 8.4 0 1 0 16.8 0 a8.4 8.4 0 1 0 -16.8 0zM-8.4 -21 a8.4 8.4 0 1 0 16.8 0 a8.4 8.4 0 1 0 -16.8 0zM-8.4 42 a8.4 8.4 0 1 0 16.8 0 a8.4 8.4 0 1 0 -16.8 0zM-8.4 -42 a8.4 8.4 0 1 0 16.8 0 a8.4 8.4 0 1 0 -16.8 0zM-8.4 63 a8.4 8.4 0 1 0 16.8 0 a8.4 8.4 0 1 0 -16.8 0zM-8.4 -63 a8.4 8.4 0 1 0 16.8 0 a8.4 8.4 0 1 0 -16.8 0z" id="SvgjsPath4268"></path><path d="M-8.4 0 a8.4 8.4 0 1 0 16.8 0 a8.4 8.4 0 1 0 -16.8 0zM-8.4 21 a8.4 8.4 0 1 0 16.8 0 a8.4 8.4 0 1 0 -16.8 0zM-8.4 -21 a8.4 8.4 0 1 0 16.8 0 a8.4 8.4 0 1 0 -16.8 0zM-8.4 42 a8.4 8.4 0 1 0 16.8 0 a8.4 8.4 0 1 0 -16.8 0zM-8.4 -42 a8.4 8.4 0 1 0 16.8 0 a8.4 8.4 0 1 0 -16.8 0zM-8.4 63 a8.4 8.4 0 1 0 16.8 0 a8.4 8.4 0 1 0 -16.8 0zM-8.4 -63 a8.4 8.4 0 1 0 16.8 0 a8.4 8.4 0 1 0 -16.8 0zM-8.4 84 a8.4 8.4 0 1 0 16.8 0 a8.4 8.4 0 1 0 -16.8 0zM-8.4 -84 a8.4 8.4 0 1 0 16.8 0 a8.4 8.4 0 1 0 -16.8 0z" id="SvgjsPath4261"></path><path d="M-8.4 0 a8.4 8.4 0 1 0 16.8 0 a8.4 8.4 0 1 0 -16.8 0zM-8.4 21 a8.4 8.4 0 1 0 16.8 0 a8.4 8.4 0 1 0 -16.8 0zM-8.4 -21 a8.4 8.4 0 1 0 16.8 0 a8.4 8.4 0 1 0 -16.8 0zM-8.4 42 a8.4 8.4 0 1 0 16.8 0 a8.4 8.4 0 1 0 -16.8 0zM-8.4 -42 a8.4 8.4 0 1 0 16.8 0 a8.4 8.4 0 1 0 -16.8 0zM-8.4 63 a8.4 8.4 0 1 0 16.8 0 a8.4 8.4 0 1 0 -16.8 0zM-8.4 -63 a8.4 8.4 0 1 0 16.8 0 a8.4 8.4 0 1 0 -16.8 0zM-8.4 84 a8.4 8.4 0 1 0 16.8 0 a8.4 8.4 0 1 0 -16.8 0zM-8.4 -84 a8.4 8.4 0 1 0 16.8 0 a8.4 8.4 0 1 0 -16.8 0zM-8.4 105 a8.4 8.4 0 1 0 16.8 0 a8.4 8.4 0 1 0 -16.8 0zM-8.4 -105 a8.4 8.4 0 1 0 16.8 0 a8.4 8.4 0 1 0 -16.8 0z" id="SvgjsPath4265"></path><path d="M-8.4 0 a8.4 8.4 0 1 0 16.8 0 a8.4 8.4 0 1 0 -16.8 0zM-8.4 21 a8.4 8.4 0 1 0 16.8 0 a8.4 8.4 0 1 0 -16.8 0zM-8.4 -21 a8.4 8.4 0 1 0 16.8 0 a8.4 8.4 0 1 0 -16.8 0zM-8.4 42 a8.4 8.4 0 1 0 16.8 0 a8.4 8.4 0 1 0 -16.8 0zM-8.4 -42 a8.4 8.4 0 1 0 16.8 0 a8.4 8.4 0 1 0 -16.8 0zM-8.4 63 a8.4 8.4 0 1 0 16.8 0 a8.4 8.4 0 1 0 -16.8 0zM-8.4 -63 a8.4 8.4 0 1 0 16.8 0 a8.4 8.4 0 1 0 -16.8 0zM-8.4 84 a8.4 8.4 0 1 0 16.8 0 a8.4 8.4 0 1 0 -16.8 0zM-8.4 -84 a8.4 8.4 0 1 0 16.8 0 a8.4 8.4 0 1 0 -16.8 0zM-8.4 105 a8.4 8.4 0 1 0 16.8 0 a8.4 8.4 0 1 0 -16.8 0zM-8.4 -105 a8.4 8.4 0 1 0 16.8 0 a8.4 8.4 0 1 0 -16.8 0zM-8.4 126 a8.4 8.4 0 1 0 16.8 0 a8.4 8.4 0 1 0 -16.8 0zM-8.4 -126 a8.4 8.4 0 1 0 16.8 0 a8.4 8.4 0 1 0 -16.8 0z" id="SvgjsPath4267"></path><path d="M-8.4 0 a8.4 8.4 0 1 0 16.8 0 a8.4 8.4 0 1 0 -16.8 0zM-8.4 21 a8.4 8.4 0 1 0 16.8 0 a8.4 8.4 0 1 0 -16.8 0zM-8.4 -21 a8.4 8.4 0 1 0 16.8 0 a8.4 8.4 0 1 0 -16.8 0zM-8.4 42 a8.4 8.4 0 1 0 16.8 0 a8.4 8.4 0 1 0 -16.8 0zM-8.4 -42 a8.4 8.4 0 1 0 16.8 0 a8.4 8.4 0 1 0 -16.8 0zM-8.4 63 a8.4 8.4 0 1 0 16.8 0 a8.4 8.4 0 1 0 -16.8 0zM-8.4 -63 a8.4 8.4 0 1 0 16.8 0 a8.4 8.4 0 1 0 -16.8 0zM-8.4 84 a8.4 8.4 0 1 0 16.8 0 a8.4 8.4 0 1 0 -16.8 0zM-8.4 -84 a8.4 8.4 0 1 0 16.8 0 a8.4 8.4 0 1 0 -16.8 0zM-8.4 105 a8.4 8.4 0 1 0 16.8 0 a8.4 8.4 0 1 0 -16.8 0zM-8.4 -105 a8.4 8.4 0 1 0 16.8 0 a8.4 8.4 0 1 0 -16.8 0zM-8.4 126 a8.4 8.4 0 1 0 16.8 0 a8.4 8.4 0 1 0 -16.8 0zM-8.4 -126 a8.4 8.4 0 1 0 16.8 0 a8.4 8.4 0 1 0 -16.8 0zM-8.4 147 a8.4 8.4 0 1 0 16.8 0 a8.4 8.4 0 1 0 -16.8 0zM-8.4 -147 a8.4 8.4 0 1 0 16.8 0 a8.4 8.4 0 1 0 -16.8 0z" id="SvgjsPath4262"></path><path d="M-8.4 0 a8.4 8.4 0 1 0 16.8 0 a8.4 8.4 0 1 0 -16.8 0zM-8.4 21 a8.4 8.4 0 1 0 16.8 0 a8.4 8.4 0 1 0 -16.8 0zM-8.4 -21 a8.4 8.4 0 1 0 16.8 0 a8.4 8.4 0 1 0 -16.8 0zM-8.4 42 a8.4 8.4 0 1 0 16.8 0 a8.4 8.4 0 1 0 -16.8 0zM-8.4 -42 a8.4 8.4 0 1 0 16.8 0 a8.4 8.4 0 1 0 -16.8 0zM-8.4 63 a8.4 8.4 0 1 0 16.8 0 a8.4 8.4 0 1 0 -16.8 0zM-8.4 -63 a8.4 8.4 0 1 0 16.8 0 a8.4 8.4 0 1 0 -16.8 0zM-8.4 84 a8.4 8.4 0 1 0 16.8 0 a8.4 8.4 0 1 0 -16.8 0zM-8.4 -84 a8.4 8.4 0 1 0 16.8 0 a8.4 8.4 0 1 0 -16.8 0zM-8.4 105 a8.4 8.4 0 1 0 16.8 0 a8.4 8.4 0 1 0 -16.8 0zM-8.4 -105 a8.4 8.4 0 1 0 16.8 0 a8.4 8.4 0 1 0 -16.8 0zM-8.4 126 a8.4 8.4 0 1 0 16.8 0 a8.4 8.4 0 1 0 -16.8 0zM-8.4 -126 a8.4 8.4 0 1 0 16.8 0 a8.4 8.4 0 1 0 -16.8 0zM-8.4 147 a8.4 8.4 0 1 0 16.8 0 a8.4 8.4 0 1 0 -16.8 0zM-8.4 -147 a8.4 8.4 0 1 0 16.8 0 a8.4 8.4 0 1 0 -16.8 0zM-8.4 168 a8.4 8.4 0 1 0 16.8 0 a8.4 8.4 0 1 0 -16.8 0zM-8.4 -168 a8.4 8.4 0 1 0 16.8 0 a8.4 8.4 0 1 0 -16.8 0z" id="SvgjsPath4260"></path><path d="M-8.4 0 a8.4 8.4 0 1 0 16.8 0 a8.4 8.4 0 1 0 -16.8 0zM-8.4 21 a8.4 8.4 0 1 0 16.8 0 a8.4 8.4 0 1 0 -16.8 0zM-8.4 -21 a8.4 8.4 0 1 0 16.8 0 a8.4 8.4 0 1 0 -16.8 0zM-8.4 42 a8.4 8.4 0 1 0 16.8 0 a8.4 8.4 0 1 0 -16.8 0zM-8.4 -42 a8.4 8.4 0 1 0 16.8 0 a8.4 8.4 0 1 0 -16.8 0zM-8.4 63 a8.4 8.4 0 1 0 16.8 0 a8.4 8.4 0 1 0 -16.8 0zM-8.4 -63 a8.4 8.4 0 1 0 16.8 0 a8.4 8.4 0 1 0 -16.8 0zM-8.4 84 a8.4 8.4 0 1 0 16.8 0 a8.4 8.4 0 1 0 -16.8 0zM-8.4 -84 a8.4 8.4 0 1 0 16.8 0 a8.4 8.4 0 1 0 -16.8 0zM-8.4 105 a8.4 8.4 0 1 0 16.8 0 a8.4 8.4 0 1 0 -16.8 0zM-8.4 -105 a8.4 8.4 0 1 0 16.8 0 a8.4 8.4 0 1 0 -16.8 0zM-8.4 126 a8.4 8.4 0 1 0 16.8 0 a8.4 8.4 0 1 0 -16.8 0zM-8.4 -126 a8.4 8.4 0 1 0 16.8 0 a8.4 8.4 0 1 0 -16.8 0zM-8.4 147 a8.4 8.4 0 1 0 16.8 0 a8.4 8.4 0 1 0 -16.8 0zM-8.4 -147 a8.4 8.4 0 1 0 16.8 0 a8.4 8.4 0 1 0 -16.8 0zM-8.4 168 a8.4 8.4 0 1 0 16.8 0 a8.4 8.4 0 1 0 -16.8 0zM-8.4 -168 a8.4 8.4 0 1 0 16.8 0 a8.4 8.4 0 1 0 -16.8 0zM-8.4 189 a8.4 8.4 0 1 0 16.8 0 a8.4 8.4 0 1 0 -16.8 0zM-8.4 -189 a8.4 8.4 0 1 0 16.8 0 a8.4 8.4 0 1 0 -16.8 0z" id="SvgjsPath4266"></path><path d="M-8.4 0 a8.4 8.4 0 1 0 16.8 0 a8.4 8.4 0 1 0 -16.8 0zM-8.4 21 a8.4 8.4 0 1 0 16.8 0 a8.4 8.4 0 1 0 -16.8 0zM-8.4 -21 a8.4 8.4 0 1 0 16.8 0 a8.4 8.4 0 1 0 -16.8 0zM-8.4 42 a8.4 8.4 0 1 0 16.8 0 a8.4 8.4 0 1 0 -16.8 0zM-8.4 -42 a8.4 8.4 0 1 0 16.8 0 a8.4 8.4 0 1 0 -16.8 0zM-8.4 63 a8.4 8.4 0 1 0 16.8 0 a8.4 8.4 0 1 0 -16.8 0zM-8.4 -63 a8.4 8.4 0 1 0 16.8 0 a8.4 8.4 0 1 0 -16.8 0zM-8.4 84 a8.4 8.4 0 1 0 16.8 0 a8.4 8.4 0 1 0 -16.8 0zM-8.4 -84 a8.4 8.4 0 1 0 16.8 0 a8.4 8.4 0 1 0 -16.8 0zM-8.4 105 a8.4 8.4 0 1 0 16.8 0 a8.4 8.4 0 1 0 -16.8 0zM-8.4 -105 a8.4 8.4 0 1 0 16.8 0 a8.4 8.4 0 1 0 -16.8 0zM-8.4 126 a8.4 8.4 0 1 0 16.8 0 a8.4 8.4 0 1 0 -16.8 0zM-8.4 -126 a8.4 8.4 0 1 0 16.8 0 a8.4 8.4 0 1 0 -16.8 0zM-8.4 147 a8.4 8.4 0 1 0 16.8 0 a8.4 8.4 0 1 0 -16.8 0zM-8.4 -147 a8.4 8.4 0 1 0 16.8 0 a8.4 8.4 0 1 0 -16.8 0zM-8.4 168 a8.4 8.4 0 1 0 16.8 0 a8.4 8.4 0 1 0 -16.8 0zM-8.4 -168 a8.4 8.4 0 1 0 16.8 0 a8.4 8.4 0 1 0 -16.8 0zM-8.4 189 a8.4 8.4 0 1 0 16.8 0 a8.4 8.4 0 1 0 -16.8 0zM-8.4 -189 a8.4 8.4 0 1 0 16.8 0 a8.4 8.4 0 1 0 -16.8 0zM-8.4 210 a8.4 8.4 0 1 0 16.8 0 a8.4 8.4 0 1 0 -16.8 0zM-8.4 -210 a8.4 8.4 0 1 0 16.8 0 a8.4 8.4 0 1 0 -16.8 0z" id="SvgjsPath4259"></path></defs></svg>