<?xml version="1.0" encoding="UTF-8"?>
<svg id="Layer_2" data-name="Layer 2" xmlns="http://www.w3.org/2000/svg" viewBox="0 0 1037.86 774.94">
  <defs>
    <style>
      .cls-1 {
        fill: #fff;
      }

      .cls-2 {
        opacity: .5;
      }

      .cls-3 {
        opacity: .35;
      }

      .cls-4 {
        fill: #969696;
      }

      .cls-5 {
        fill: #ffc107;
      }

      .cls-6 {
        fill: #3f51b5;
      }
    </style>
  </defs>
  <g id="Layer_1-2" data-name="Layer 1">
    <g>
      <g>
        <g>
          <g>
            <path class="cls-1" d="m398.18,345.43s-28.05,52.53-69.98,70.76c-22.89,9.95-47.99-8.71-45.52-33.54,3.16-31.82,27.13-76.7,92.8-135.08l22.71,97.87Z"/>
            <g class="cls-3">
              <path class="cls-4" d="m375.47,247.57c-3.79,3.37-7.43,6.69-10.94,9.97l6.04,26.01c10.38,44.74-8.77,91.65-48.32,115.01-3.29,1.95-6.69,3.7-10.19,5.22-8.08,3.51-16.43,3.45-23.75.82,8.4,12.14,24.63,18.22,39.88,11.59,41.93-18.23,69.98-70.76,69.98-70.76l-22.71-97.87Z"/>
            </g>
            <path class="cls-6" d="m315.23,423.88c-7.77,0-15.45-2.46-22.05-7.27-11.02-8.03-16.79-20.91-15.45-34.45,3.76-37.85,34.63-83.06,94.37-138.24,1.3-1.2,3.14-1.62,4.83-1.1,1.69.52,2.98,1.9,3.38,3.62l22.71,97.87c.27,1.17.11,2.4-.46,3.46-1.18,2.21-29.36,54.27-72.39,72.97-4.83,2.1-9.9,3.14-14.94,3.14Zm57.34-166.82c-53.77,50.76-81.58,92.06-84.96,126.08-.99,10,3.28,19.51,11.42,25.45,8,5.83,18.16,6.97,27.18,3.05,35.88-15.6,61.67-58.18,66.69-66.95l-20.33-87.63Z"/>
          </g>
          <g>
            <path class="cls-1" d="m639.68,345.43s28.05,52.53,69.98,70.76c22.89,9.95,47.99-8.71,45.52-33.54-3.16-31.82-27.13-76.7-92.8-135.08l-22.71,97.87Z"/>
            <g class="cls-3">
              <path class="cls-4" d="m662.39,247.57c3.79,3.37,7.43,6.69,10.94,9.97l-6.04,26.01c-10.38,44.74,8.77,91.65,48.32,115.01,3.29,1.95,6.69,3.7,10.19,5.22,8.08,3.51,16.43,3.45,23.75.82-8.4,12.14-24.63,18.22-39.88,11.59-41.93-18.23-69.98-70.76-69.98-70.76l22.71-97.87Z"/>
            </g>
            <path class="cls-6" d="m707.68,420.74c-43.03-18.7-71.21-70.76-72.39-72.97-.57-1.06-.73-2.29-.46-3.46l22.71-97.87c.4-1.72,1.69-3.1,3.38-3.62,1.68-.52,3.53-.1,4.83,1.1,59.74,55.17,90.61,100.39,94.37,138.24,1.34,13.54-4.43,26.42-15.45,34.45-6.6,4.81-14.28,7.27-22.05,7.27-5.04,0-10.11-1.03-14.94-3.14Zm-62.74-76.06c5.02,8.77,30.82,51.35,66.69,66.95,9.02,3.92,19.18,2.78,27.18-3.05,8.14-5.93,12.41-15.45,11.42-25.45-3.38-34.02-31.19-75.31-84.96-126.08l-20.33,87.63Z"/>
          </g>
        </g>
        <g>
          <path class="cls-1" d="m610.66,496.22h-183.46c-17.36,0-32.64-14.33-33.98-32.18l-15.56-206.77c-1.74-23.07,13.45-42.38,33.79-42.38h214.97c20.34,0,35.53,19.3,33.79,42.38l-15.56,206.77c-1.34,17.85-16.62,32.18-33.98,32.18Z"/>
          <g class="cls-3">
            <path class="cls-4" d="m661.48,269.49c-29.64,21.05-74.56,36.7-142.6,36.7s-112.87-15.73-142.51-36.87c2.97-6.1-5.04-16.81-.91-21.76,40.9-49.01,143.42-39.6,143.42-39.6,0,0,99.76-14.03,140.36,35.76,3.92,4.8-.59,19.9,2.24,25.77Z"/>
            <path class="cls-4" d="m395.4,433.08s-5.24,45.84,123.53,45.84,123.2-41.37,123.2-41.37l2.82,29.34-14.35,24.83-120.44,6.72-96.37-5.17-20.87-23.72,2.49-36.47Z"/>
          </g>
          <path class="cls-6" d="m610.66,500.72h-183.46c-19.71,0-36.96-16.3-38.47-36.34l-15.56-206.77c-1.01-13.42,3.22-26.3,11.61-35.34,7.1-7.66,16.57-11.87,26.67-11.87h214.97c10.1,0,19.57,4.22,26.67,11.87,8.39,9.04,12.62,21.93,11.61,35.34l-15.56,206.77c-1.51,20.04-18.77,36.34-38.47,36.34Zm-199.22-281.33c-7.56,0-14.69,3.19-20.07,8.99-6.69,7.21-10.06,17.62-9.24,28.55l15.56,206.77c1.16,15.45,14.39,28.02,29.5,28.02h183.46c15.1,0,28.33-12.57,29.5-28.02l15.56-206.77c.82-10.93-2.54-21.33-9.24-28.55-5.38-5.8-12.51-8.99-20.07-8.99h-214.97Z"/>
        </g>
        <g>
          <g>
            <path class="cls-1" d="m360.64,224.52c-5.84.89-11.6,1.22-16.97,1.21-17.41-.04-31.76-13.6-33.17-30.95-1.98-24.36-1.26-45.02,0-59.81,1.34-15.7,13.44-28.35,29.07-30.4,4.55-.6,8.75-.98,12.27-1.22,5.78-.4,10.79,3.95,11.21,9.73l7.26,99.31c.43,5.95-3.78,11.23-9.67,12.13Z"/>
            <g class="cls-3">
              <path class="cls-4" d="m370.31,212.39l-2.15-29.36c-.1,5.5-4.16,10.23-9.7,11.07-5.84.89-11.6,1.22-16.97,1.21-15.41-.03-28.42-10.66-32.18-25.14.12,7.67.47,15.89,1.18,24.61,1.41,17.36,15.75,30.92,33.17,30.95,5.37.01,11.13-.32,16.97-1.21,5.89-.9,10.11-6.18,9.67-12.13Z"/>
            </g>
            <path class="cls-6" d="m343.93,230.07h-.27c-19.43-.04-35.9-15.39-37.49-34.95-1.67-20.55-1.67-40.92,0-60.53,1.5-17.6,15.31-32.04,32.83-34.33,4.08-.53,8.29-.95,12.53-1.25,8.15-.55,15.25,5.6,15.85,13.75l7.26,99.31c.6,8.16-5.27,15.51-13.35,16.74-5.48.83-11.32,1.26-17.36,1.26Zm8.64-122.41c-.14,0-.29,0-.43.01-4.06.28-8.1.69-12,1.2-13.51,1.77-24.15,12.89-25.3,26.46-1.63,19.14-1.63,39.02,0,59.09,1.23,15.09,13.9,26.93,28.85,26.96.08,0,.17,0,.25,0,5.61,0,11.01-.39,16.06-1.16h0c3.63-.55,6.26-3.85,5.99-7.52l-7.26-99.31c-.24-3.24-2.95-5.73-6.15-5.73Z"/>
          </g>
          <g>
            <path class="cls-1" d="m671.7,224.52c5.84.89,11.6,1.22,16.97,1.21,17.41-.04,31.76-13.6,33.17-30.95,1.98-24.36,1.26-45.02,0-59.81-1.34-15.7-13.44-28.35-29.07-30.4-4.55-.6-8.75-.98-12.27-1.22-5.78-.4-10.79,3.95-11.21,9.73l-7.26,99.31c-.43,5.95,3.78,11.23,9.67,12.13Z"/>
            <g class="cls-3">
              <path class="cls-4" d="m662.03,212.39l2.15-29.36c.1,5.5,4.16,10.23,9.7,11.07,5.84.89,11.6,1.22,16.97,1.21,15.41-.03,28.42-10.66,32.18-25.14-.12,7.67-.47,15.89-1.18,24.61-1.41,17.36-15.75,30.92-33.17,30.95-5.37.01-11.13-.32-16.97-1.21-5.89-.9-10.11-6.18-9.67-12.13Z"/>
            </g>
            <path class="cls-6" d="m688.41,230.07c-6.04,0-11.88-.42-17.36-1.26-8.08-1.23-13.95-8.58-13.35-16.74l7.26-99.31c.6-8.15,7.68-14.32,15.85-13.75,4.24.3,8.45.72,12.53,1.25,17.53,2.29,31.33,16.73,32.83,34.33,1.67,19.61,1.67,39.97,0,60.53-1.59,19.56-18.06,34.91-37.49,34.95h-.27Zm-8.64-122.41c-3.2,0-5.91,2.49-6.15,5.73l-7.26,99.31c-.27,3.66,2.36,6.97,5.99,7.52h0c5.05.77,10.45,1.16,16.06,1.16.08,0,.17,0,.25,0,14.95-.03,27.62-11.87,28.85-26.96,1.63-20.08,1.63-39.96,0-59.09-1.15-13.56-11.8-24.69-25.3-26.46-3.9-.51-7.94-.91-12-1.2-.14,0-.29-.01-.43-.01Z"/>
          </g>
          <g>
            <path class="cls-1" d="m516.17,290.75c181.87,0,174.97-127.79,174.97-127.79C691.14-4.64,516.17,4.44,516.17,4.44c0,0-174.97-9.08-174.97,158.52,0,0-6.28,127.79,174.97,127.79Z"/>
            <g class="cls-3">
              <path class="cls-4" d="m690.69,148.68c-3.07,30.74-25.01,117.09-174.52,117.09s-171.41-86.92-174.5-117.39c-.3,4.71-.47,9.56-.47,14.58,0,0-6.28,127.79,174.97,127.79s174.97-127.79,174.97-127.79c0-4.91-.16-9.67-.45-14.28Z"/>
            </g>
            <path class="cls-6" d="m516.17,295.09c-65.7,0-114.72-16.5-145.7-49.04-34.9-36.66-33.75-80.09-33.61-83.19.02-49.34,14.97-88.55,44.45-116.53,27.52-26.13,62.79-37.31,87.53-42.08C494.36-.68,513.76-.02,516.17.09c2.41-.11,21.82-.77,47.33,4.16,24.74,4.77,60.01,15.95,87.53,42.08,29.47,27.98,44.43,67.19,44.45,116.52.15,3.18,1.47,46.45-33.21,83.06-30.92,32.64-80.08,49.19-146.1,49.19Zm-4.22-286.38c-16.61,0-81.38,2.78-124.71,43.96-27.67,26.3-41.7,63.4-41.7,110.29v.21c-.02.42-1.58,42.54,31.33,77.01,29.28,30.67,76.15,46.22,139.29,46.22s110.58-15.64,139.8-46.48c32.71-34.53,30.85-76.32,30.83-76.74v-.23c0-46.89-14.04-83.99-41.7-110.29-49.8-47.33-127.92-43.93-128.7-43.89h-.22s-.23,0-.23,0c-.1,0-1.51-.07-3.99-.07Z"/>
          </g>
        </g>
        <g>
          <path class="cls-5" d="m493.11,337.2l-.09,116.89c0,3.78,4.8,5.41,7.1,2.41l29.69-38.73c.8-1.04,2.06-1.62,3.37-1.54l51.11,2.98c3.74.22,5.66-4.41,2.87-6.9l-87.45-78.05c-2.55-2.28-6.59-.47-6.59,2.95Z"/>
          <path class="cls-6" d="m497.03,462.57c-.92,0-1.86-.15-2.78-.46-3.49-1.18-5.74-4.33-5.74-8.01l.09-116.89c0-3.38,1.92-6.33,5-7.71,3.08-1.38,6.57-.84,9.09,1.41l87.45,78.05c2.72,2.43,3.58,6.18,2.18,9.55-1.4,3.37-4.64,5.42-8.3,5.2l-50.82-2.96-29.52,38.5c-1.65,2.15-4.09,3.33-6.65,3.33Zm.58-124.15l-.09,114.08,28.72-37.46c1.71-2.23,4.4-3.46,7.21-3.3l49.55,2.89-85.38-76.21Zm0-1.21h0s0,0,0,0Z"/>
        </g>
        <g>
          <path class="cls-6" d="m494.32,220.25c14.62-2.88,29.67-2.88,44.29,0,110.82,21.82,108.87-51.81,108.87-51.81,0-101.91-131.02-95.92-131.02-95.92,0,0-131.02-5.99-131.02,95.92,0,0-1.95,73.63,108.87,51.81Z"/>
          <path class="cls-6" d="m646.72,155.48c-3.25,18.42-20.19,61.17-108.11,43.87-14.62-2.88-29.67-2.88-44.29,0-87.92,17.31-104.86-25.45-108.11-43.87-.5,4.12-.77,8.43-.77,12.96,0,0-1.95,73.63,108.87,51.81,14.62-2.88,29.67-2.88,44.29,0,110.82,21.82,108.87-51.81,108.87-51.81,0-4.53-.27-8.84-.77-12.96Z"/>
          <g class="cls-2">
            <path class="cls-1" d="m388.88,175.95c0-99.24,127.59-93.4,127.59-93.4,0,0,127.59-5.84,127.59,93.4,0,0,.21,8.28-3.73,18.37,7.49-13.25,7.16-25.89,7.16-25.89,0-101.91-131.02-95.92-131.02-95.92,0,0-131.02-5.99-131.02,95.92,0,0-.33,12.63,7.16,25.89-3.94-10.09-3.73-18.37-3.73-18.37Z"/>
          </g>
          <path class="cls-6" d="m456.69,228.11c-23.29,0-41.63-5.56-54.77-16.66-20.42-17.25-20.31-41.38-20.28-43.05,0-26.79,8.83-48.8,26.21-65.4,38.17-36.46,103.91-34.47,108.61-34.28,4.7-.19,70.44-2.19,108.61,34.28,17.38,16.6,26.2,38.61,26.21,65.4.03,1.67.14,25.81-20.28,43.05-19.66,16.61-51,20.83-93.13,12.53-14.21-2.8-28.62-2.8-42.82,0h0c-13.99,2.75-26.79,4.13-38.36,4.13Zm59.77-13.83c7.64,0,15.29.75,22.88,2.24,39.68,7.81,68.84,4.18,86.66-10.8,17.94-15.08,17.68-36.97,17.68-37.19,0-.03,0-.06,0-.09,0-24.64-8.02-44.81-23.84-59.93-36.38-34.78-102.54-32.22-103.21-32.19-.12,0-.23,0-.35,0-.66-.03-66.83-2.59-103.21,32.19-15.82,15.12-23.84,35.28-23.84,59.93,0,.03,0,.07,0,.1,0,.21-.26,22.1,17.68,37.18,17.82,14.98,46.98,18.61,86.66,10.8h0c7.59-1.49,15.24-2.24,22.88-2.24Z"/>
        </g>
      </g>
    </g>
  </g>
</svg>
