<svg width="209" height="208" viewBox="0 0 209 208" fill="none" xmlns="http://www.w3.org/2000/svg">
<g filter="url(#filter0_d_8_3238)">
<rect width="200.716" height="200" transform="translate(4.00024)" fill="white"/>
<path d="M125.26 165.032C125.18 164.016 125.619 163.015 126.743 162.916C127.986 162.806 128.515 163.965 128.488 165.032C128.47 165.726 129.546 165.726 129.564 165.032C129.603 163.368 128.64 161.888 126.871 161.837C125.114 161.787 124.059 163.427 124.184 165.032C124.238 165.72 125.314 165.726 125.26 165.032Z" fill="#C04365"/>
<path d="M183.283 186.551C184.254 187.522 185.228 188.497 186.2 189.468C186.69 189.958 187.452 189.199 186.962 188.706C185.99 187.734 185.016 186.76 184.045 185.789C183.555 185.299 182.793 186.058 183.283 186.551Z" fill="#C04365"/>
<path d="M186.2 185.789C185.228 186.76 184.254 187.734 183.283 188.706C182.793 189.196 183.552 189.958 184.045 189.468C185.016 188.497 185.99 187.522 186.962 186.551C187.452 186.061 186.693 185.299 186.2 185.789Z" fill="#C04365"/>
<path d="M145.625 159.294C146.597 160.265 147.571 161.24 148.542 162.211C149.032 162.701 149.794 161.942 149.304 161.449C148.333 160.478 147.359 159.503 146.387 158.532C145.897 158.042 145.135 158.801 145.625 159.294Z" fill="#C04365"/>
<path d="M148.542 158.532C147.571 159.503 146.597 160.478 145.625 161.449C145.135 161.939 145.894 162.701 146.387 162.211C147.359 161.24 148.333 160.265 149.304 159.294C149.794 158.804 149.035 158.042 148.542 158.532Z" fill="#C04365"/>
<path d="M109.1 178.033C109.193 179.584 110.475 180.813 112.05 180.813C113.625 180.813 114.907 179.584 115 178.033H109.1Z" fill="#C04365"/>
<path d="M121.542 178.033C121.45 176.482 120.168 175.254 118.593 175.254C117.018 175.254 115.735 176.482 115.643 178.033H121.542Z" fill="#FE926B"/>
<path d="M122.101 178.033C122.194 179.584 123.476 180.813 125.051 180.813C126.626 180.813 127.908 179.584 128.001 178.033H122.101Z" fill="#EEE3D1"/>
<path d="M134.543 178.033C134.451 176.482 133.168 175.254 131.593 175.254C130.018 175.254 128.736 176.482 128.643 178.033H134.543Z" fill="#C04365"/>
<path d="M144.23 152.026C144.092 152.026 143.955 151.972 143.85 151.867C143.641 151.658 143.641 151.317 143.85 151.105L146.74 148.215L149.585 151.06C149.794 151.269 149.794 151.61 149.585 151.822C149.376 152.032 149.035 152.032 148.823 151.822L146.737 149.736L144.606 151.867C144.501 151.972 144.364 152.026 144.227 152.026H144.23Z" fill="#C04365"/>
<path d="M149.34 152.026C149.203 152.026 149.065 151.972 148.961 151.867C148.751 151.658 148.751 151.317 148.961 151.105L151.851 148.215L154.696 151.06C154.905 151.269 154.905 151.61 154.696 151.822C154.487 152.032 154.146 152.032 153.934 151.822L151.848 149.736L149.717 151.867C149.612 151.972 149.475 152.026 149.337 152.026H149.34Z" fill="#C04365"/>
<path d="M185.473 180.015C185.336 180.015 185.198 179.961 185.094 179.856C184.885 179.647 184.885 179.306 185.094 179.094L187.984 176.204L190.829 179.049C191.038 179.259 191.038 179.599 190.829 179.811C190.62 180.021 190.279 180.021 190.067 179.811L187.981 177.725L185.85 179.856C185.745 179.961 185.608 180.015 185.47 180.015H185.473Z" fill="#C04365"/>
<path d="M190.584 180.015C190.447 180.015 190.309 179.961 190.205 179.856C189.995 179.647 189.995 179.306 190.205 179.094L193.095 176.204L195.94 179.049C196.149 179.259 196.149 179.599 195.94 179.811C195.731 180.021 195.39 180.021 195.178 179.811L193.092 177.725L190.961 179.856C190.856 179.961 190.719 180.015 190.581 180.015H190.584Z" fill="#C04365"/>
<path d="M151.172 168.439H146.689V172.922H151.172V168.439Z" fill="#C04365"/>
<path d="M184.837 166.826C185.808 167.797 186.782 168.771 187.754 169.743C188.244 170.233 189.006 169.474 188.516 168.98L185.599 166.063C185.109 165.573 184.347 166.332 184.837 166.826Z" fill="#EEE3D1"/>
<path d="M187.754 166.063C186.782 167.035 185.808 168.009 184.837 168.98C184.347 169.471 185.106 170.233 185.599 169.743C186.57 168.771 187.545 167.797 188.516 166.826C189.006 166.335 188.247 165.573 187.754 166.063Z" fill="#EEE3D1"/>
<path d="M160.168 157.949V162.074C160.168 162.767 161.244 162.767 161.244 162.074V157.949C161.244 157.256 160.168 157.256 160.168 157.949Z" fill="#EEE3D1"/>
<path d="M162.499 157.949V162.074C162.499 162.767 163.575 162.767 163.575 162.074V157.949C163.575 157.256 162.499 157.256 162.499 157.949Z" fill="#EEE3D1"/>
<path d="M132.852 200C131.172 200 129.803 198.634 129.803 196.952C129.803 195.269 131.172 193.903 132.852 193.903C134.531 193.903 135.9 195.272 135.9 196.952C135.9 198.631 134.531 200 132.852 200ZM132.852 194.979C131.764 194.979 130.879 195.864 130.879 196.952C130.879 198.039 131.764 198.924 132.852 198.924C133.939 198.924 134.824 198.039 134.824 196.952C134.824 195.864 133.939 194.979 132.852 194.979Z" fill="#EEE3D1"/>
<path d="M177.123 151.616C177.216 153.167 178.498 154.396 180.073 154.396C181.648 154.396 182.93 153.167 183.023 151.616H177.123Z" fill="#EEE3D1"/>
<path d="M189.565 151.616C189.472 150.065 188.19 148.837 186.615 148.837C185.04 148.837 183.758 150.065 183.665 151.616H189.565Z" fill="#C04365"/>
<path d="M190.124 151.616C190.216 153.167 191.499 154.396 193.074 154.396C194.649 154.396 195.931 153.167 196.023 151.616H190.124Z" fill="#FE926B"/>
<path d="M202.566 151.616C202.473 150.065 201.191 148.837 199.616 148.837C198.041 148.837 196.759 150.065 196.666 151.616H202.566Z" fill="#EEE3D1"/>
<path d="M145.903 191.252C145.766 191.252 145.628 191.198 145.524 191.094C145.314 190.885 145.314 190.544 145.524 190.332L148.414 187.442L151.259 190.287C151.468 190.496 151.468 190.837 151.259 191.049C151.05 191.261 150.709 191.258 150.497 191.049L148.411 188.963L146.28 191.094C146.175 191.198 146.038 191.252 145.9 191.252H145.903Z" fill="#EEE3D1"/>
<path d="M151.014 191.252C150.876 191.252 150.739 191.198 150.634 191.094C150.425 190.885 150.425 190.544 150.634 190.332L153.524 187.442L156.37 190.287C156.579 190.496 156.579 190.837 156.37 191.049C156.16 191.261 155.82 191.258 155.607 191.049L153.521 188.963L151.39 191.094C151.286 191.198 151.148 191.252 151.011 191.252H151.014Z" fill="#EEE3D1"/>
<path d="M130.64 151.494V155.618C130.64 156.311 131.716 156.311 131.716 155.618V151.494C131.716 150.8 130.64 150.8 130.64 151.494Z" fill="#FE926B"/>
<path d="M132.971 151.494V155.618C132.971 156.311 134.047 156.311 134.047 155.618V151.494C134.047 150.8 132.971 150.8 132.971 151.494Z" fill="#FE926B"/>
<path d="M116.743 150.507H110.377C110.081 150.507 109.839 150.265 109.839 149.969C109.839 149.673 110.081 149.431 110.377 149.431H116.743C117.038 149.431 117.28 149.673 117.28 149.969C117.28 150.265 117.038 150.507 116.743 150.507Z" fill="#EEE3D1"/>
<path d="M116.743 153.592H110.377C110.081 153.592 109.839 153.35 109.839 153.054C109.839 152.758 110.081 152.516 110.377 152.516H116.743C117.038 152.516 117.28 152.758 117.28 153.054C117.28 153.35 117.038 153.592 116.743 153.592Z" fill="#FE926B"/>
<path d="M116.743 156.676H110.377C110.081 156.676 109.839 156.434 109.839 156.138C109.839 155.842 110.081 155.6 110.377 155.6H116.743C117.038 155.6 117.28 155.842 117.28 156.138C117.28 156.434 117.038 156.676 116.743 156.676Z" fill="#C04365"/>
<path d="M116.743 159.76H110.377C110.081 159.76 109.839 159.518 109.839 159.222C109.839 158.926 110.081 158.684 110.377 158.684H116.743C117.038 158.684 117.28 158.926 117.28 159.222C117.28 159.518 117.038 159.76 116.743 159.76Z" fill="#2CA28C"/>
<path d="M123.736 196.414H117.37C117.074 196.414 116.832 196.171 116.832 195.876C116.832 195.58 117.074 195.338 117.37 195.338H123.736C124.032 195.338 124.274 195.58 124.274 195.876C124.274 196.171 124.032 196.414 123.736 196.414Z" fill="#EEE3D1"/>
<path d="M202.099 158.935H195.734C195.438 158.935 195.196 158.693 195.196 158.397C195.196 158.102 195.438 157.86 195.734 157.86H202.099C202.395 157.86 202.637 158.102 202.637 158.397C202.637 158.693 202.395 158.935 202.099 158.935Z" fill="#EEE3D1"/>
<path d="M202.099 162.02H195.734C195.438 162.02 195.196 161.778 195.196 161.482C195.196 161.186 195.438 160.944 195.734 160.944H202.099C202.395 160.944 202.637 161.186 202.637 161.482C202.637 161.778 202.395 162.02 202.099 162.02Z" fill="#FE926B"/>
<path d="M202.099 165.104H195.734C195.438 165.104 195.196 164.862 195.196 164.566C195.196 164.27 195.438 164.028 195.734 164.028H202.099C202.395 164.028 202.637 164.27 202.637 164.566C202.637 164.862 202.395 165.104 202.099 165.104Z" fill="#C04365"/>
<path d="M202.099 168.188H195.734C195.438 168.188 195.196 167.946 195.196 167.65C195.196 167.355 195.438 167.112 195.734 167.112H202.099C202.395 167.112 202.637 167.355 202.637 167.65C202.637 167.946 202.395 168.188 202.099 168.188Z" fill="#2CA28C"/>
<path d="M173.587 173.819H167.221C166.926 173.819 166.684 173.577 166.684 173.281C166.684 172.985 166.926 172.743 167.221 172.743H173.587C173.883 172.743 174.125 172.985 174.125 173.281C174.125 173.577 173.883 173.819 173.587 173.819Z" fill="#EEE3D1"/>
<path d="M173.587 176.903H167.221C166.926 176.903 166.684 176.661 166.684 176.365C166.684 176.07 166.926 175.828 167.221 175.828H173.587C173.883 175.828 174.125 176.07 174.125 176.365C174.125 176.661 173.883 176.903 173.587 176.903Z" fill="#FE926B"/>
<path d="M173.587 179.988H167.221C166.926 179.988 166.684 179.746 166.684 179.45C166.684 179.154 166.926 178.912 167.221 178.912H173.587C173.883 178.912 174.125 179.154 174.125 179.45C174.125 179.746 173.883 179.988 173.587 179.988Z" fill="#C04365"/>
<path d="M173.587 183.072H167.221C166.926 183.072 166.684 182.83 166.684 182.534C166.684 182.238 166.926 181.996 167.221 181.996H173.587C173.883 181.996 174.125 182.238 174.125 182.534C174.125 182.83 173.883 183.072 173.587 183.072Z" fill="#2CA28C"/>
<path d="M125.78 183.682L128.697 186.599C129.187 187.089 129.95 186.33 129.459 185.837L126.542 182.92C126.052 182.43 125.29 183.189 125.78 183.682Z" fill="#2CA28C"/>
<path d="M128.697 182.92L125.78 185.837C125.29 186.327 126.049 187.089 126.542 186.599L129.459 183.682C129.95 183.192 129.19 182.43 128.697 182.92Z" fill="#2CA28C"/>
<path d="M164.917 189.569H160.434V194.053H164.917V189.569Z" fill="#2CA28C"/>
<path d="M198.304 186.192H195.913V188.583H198.304V186.192Z" fill="#EEE3D1"/>
<path d="M176.068 163.481H173.677V165.872H176.068V163.481Z" fill="#C04365"/>
<path d="M125.38 147.223H122.989V149.614H125.38V147.223Z" fill="#C04365"/>
<path d="M145.225 178.544H142.834V180.935H145.225V178.544Z" fill="#2CA28C"/>
<path d="M109.121 188.825H106.73V191.216H109.121V188.825Z" fill="#2CA28C"/>
<path d="M161.125 174.001H158.734V176.392H161.125V174.001Z" fill="#2CA28C"/>
<path d="M110.675 168.263H108.285V170.654H110.675V168.263Z" fill="#2CA28C"/>
<path d="M136.02 166.111H133.629V168.502H136.02V166.111Z" fill="#EEE3D1"/>
<path d="M167.7 147.94H165.309V150.331H167.7V147.94Z" fill="#EEE3D1"/>
<path d="M28.8781 165.032C28.7974 164.016 29.2367 163.015 30.3605 162.916C31.6038 162.806 32.1328 163.965 32.1059 165.032C32.088 165.726 33.1639 165.726 33.1818 165.032C33.2207 163.368 32.2583 161.888 30.489 161.837C28.7317 161.787 27.6766 163.427 27.8022 165.032C27.856 165.72 28.9319 165.726 28.8781 165.032Z" fill="#C04365"/>
<path d="M86.9035 186.551C87.8748 187.522 88.8491 188.497 89.8204 189.468C90.3106 189.958 91.0727 189.199 90.5826 188.706C89.6112 187.734 88.6369 186.76 87.6656 185.789C87.1754 185.299 86.4133 186.058 86.9035 186.551Z" fill="#C04365"/>
<path d="M89.8204 185.789C88.8491 186.76 87.8748 187.734 86.9035 188.706C86.4133 189.196 87.1724 189.958 87.6656 189.468C88.6369 188.497 89.6112 187.522 90.5825 186.551C91.0727 186.061 90.3136 185.299 89.8204 185.789Z" fill="#C04365"/>
<path d="M49.246 159.294C50.2173 160.265 51.1916 161.24 52.1629 162.211C52.6531 162.701 53.4152 161.942 52.9251 161.449C51.9537 160.478 50.9794 159.503 50.0081 158.532C49.518 158.042 48.7558 158.801 49.246 159.294Z" fill="#C04365"/>
<path d="M52.1629 158.532C51.1916 159.503 50.2173 160.478 49.246 161.449C48.7558 161.939 49.515 162.701 50.0081 162.211C50.9794 161.24 51.9537 160.265 52.9251 159.294C53.4152 158.804 52.6561 158.042 52.1629 158.532Z" fill="#C04365"/>
<path d="M12.7183 178.033C12.8109 179.584 14.0931 180.813 15.6681 180.813C17.2431 180.813 18.5253 179.584 18.6179 178.033H12.7183Z" fill="#C04365"/>
<path d="M25.1631 178.033C25.0705 176.482 23.7883 175.254 22.2133 175.254C20.6383 175.254 19.3561 176.482 19.2635 178.033H25.1631Z" fill="#FE926B"/>
<path d="M25.719 178.033C25.8117 179.584 27.0938 180.813 28.6689 180.813C30.2439 180.813 31.5261 179.584 31.6187 178.033H25.719Z" fill="#EEE3D1"/>
<path d="M38.1639 178.033C38.0713 176.482 36.7891 175.254 35.2141 175.254C33.6391 175.254 32.3569 176.482 32.2643 178.033H38.1639Z" fill="#C04365"/>
<path d="M47.8473 152.026C47.7098 152.026 47.5723 151.972 47.4677 151.867C47.2585 151.658 47.2585 151.317 47.4677 151.105L50.3578 148.215L53.203 151.06C53.4122 151.269 53.4122 151.61 53.203 151.822C52.9938 152.032 52.6531 152.032 52.4409 151.822L50.3548 149.736L48.2239 151.867C48.1193 151.972 47.9818 152.026 47.8443 152.026H47.8473Z" fill="#C04365"/>
<path d="M52.958 152.026C52.8205 152.026 52.683 151.972 52.5784 151.867C52.3692 151.658 52.3692 151.317 52.5784 151.105L55.4685 148.215L58.3137 151.06C58.5229 151.269 58.5229 151.61 58.3137 151.822C58.1045 152.032 57.7638 152.032 57.5516 151.822L55.4655 149.736L53.3345 151.867C53.2299 151.972 53.0925 152.026 52.955 152.026H52.958Z" fill="#C04365"/>
<path d="M89.0912 180.015C88.9537 180.015 88.8162 179.961 88.7116 179.856C88.5024 179.647 88.5024 179.306 88.7116 179.094L91.6017 176.204L94.4469 179.049C94.6561 179.259 94.6561 179.599 94.4469 179.811C94.2377 180.021 93.897 180.021 93.6848 179.811L91.5987 177.725L89.4678 179.856C89.3632 179.961 89.2257 180.015 89.0882 180.015H89.0912Z" fill="#C04365"/>
<path d="M94.2018 180.015C94.0644 180.015 93.9269 179.961 93.8223 179.856C93.6131 179.647 93.6131 179.306 93.8223 179.094L96.7123 176.204L99.5576 179.049C99.7668 179.259 99.7668 179.599 99.5576 179.811C99.3483 180.021 99.0076 180.021 98.7954 179.811L96.7093 177.725L94.5784 179.856C94.4738 179.961 94.3363 180.015 94.1988 180.015H94.2018Z" fill="#C04365"/>
<path d="M54.79 168.439H50.307V172.922H54.79V168.439Z" fill="#C04365"/>
<path d="M88.4576 166.826C89.4289 167.797 90.4032 168.771 91.3745 169.743C91.8647 170.233 92.6268 169.474 92.1366 168.98C91.1653 168.009 90.191 167.035 89.2197 166.063C88.7295 165.573 87.9674 166.332 88.4576 166.826Z" fill="#EEE3D1"/>
<path d="M91.3745 166.063C90.4032 167.035 89.4289 168.009 88.4576 168.98C87.9675 169.471 88.7266 170.233 89.2197 169.743C90.191 168.771 91.1653 167.797 92.1367 166.826C92.6268 166.335 91.8677 165.573 91.3745 166.063Z" fill="#EEE3D1"/>
<path d="M63.786 157.949V162.074C63.786 162.767 64.8619 162.767 64.8619 162.074V157.949C64.8619 157.256 63.786 157.256 63.786 157.949Z" fill="#EEE3D1"/>
<path d="M66.1172 157.949V162.074C66.1172 162.767 67.1931 162.767 67.1931 162.074V157.949C67.1931 157.256 66.1172 157.256 66.1172 157.949Z" fill="#EEE3D1"/>
<path d="M36.4694 200C34.7897 200 33.4209 198.634 33.4209 196.952C33.4209 195.269 34.7897 193.903 36.4694 193.903C38.149 193.903 39.5178 195.272 39.5178 196.952C39.5178 198.631 38.149 200 36.4694 200ZM36.4694 194.979C35.3815 194.979 34.4968 195.864 34.4968 196.952C34.4968 198.039 35.3815 198.924 36.4694 198.924C37.5573 198.924 38.4419 198.039 38.4419 196.952C38.4419 195.864 37.5573 194.979 36.4694 194.979Z" fill="#EEE3D1"/>
<path d="M80.7408 151.616C80.8334 153.167 82.1156 154.396 83.6906 154.396C85.2657 154.396 86.5478 153.167 86.6405 151.616H80.7408Z" fill="#EEE3D1"/>
<path d="M93.1857 151.616C93.093 150.065 91.8109 148.837 90.2359 148.837C88.6608 148.837 87.3787 150.065 87.286 151.616H93.1857Z" fill="#C04365"/>
<path d="M93.7416 151.616C93.8343 153.167 95.1164 154.396 96.6914 154.396C98.2665 154.396 99.5486 153.167 99.6413 151.616H93.7416Z" fill="#FE926B"/>
<path d="M106.187 151.616C106.094 150.065 104.812 148.837 103.237 148.837C101.662 148.837 100.379 150.065 100.287 151.616H106.187Z" fill="#EEE3D1"/>
<path d="M49.5209 191.252C49.3835 191.252 49.246 191.198 49.1414 191.094C48.9322 190.885 48.9322 190.544 49.1414 190.332L52.0314 187.442L54.8767 190.287C55.0859 190.496 55.0859 190.837 54.8767 191.049C54.6675 191.261 54.3268 191.258 54.1146 191.049L52.0285 188.963L49.8975 191.094C49.7929 191.198 49.6554 191.252 49.518 191.252H49.5209Z" fill="#EEE3D1"/>
<path d="M54.6316 191.252C54.4941 191.252 54.3567 191.198 54.2521 191.094C54.0429 190.885 54.0429 190.544 54.2521 190.332L57.1421 187.442L59.9874 190.287C60.1966 190.496 60.1966 190.837 59.9874 191.049C59.7781 191.261 59.4374 191.258 59.2252 191.049L57.1391 188.963L55.0082 191.094C54.9036 191.198 54.7661 191.252 54.6286 191.252H54.6316Z" fill="#EEE3D1"/>
<path d="M34.2577 151.494V155.618C34.2577 156.311 35.3337 156.311 35.3337 155.618V151.494C35.3337 150.8 34.2577 150.8 34.2577 151.494Z" fill="#FE926B"/>
<path d="M36.5889 151.494V155.618C36.5889 156.311 37.6648 156.311 37.6648 155.618V151.494C37.6648 150.8 36.5889 150.8 36.5889 151.494Z" fill="#FE926B"/>
<path d="M20.3603 150.507H13.9944C13.6985 150.507 13.4565 150.265 13.4565 149.969C13.4565 149.673 13.6985 149.431 13.9944 149.431H20.3603C20.6562 149.431 20.8983 149.673 20.8983 149.969C20.8983 150.265 20.6562 150.507 20.3603 150.507Z" fill="#EEE3D1"/>
<path d="M20.3603 153.592H13.9944C13.6985 153.592 13.4565 153.35 13.4565 153.054C13.4565 152.758 13.6985 152.516 13.9944 152.516H20.3603C20.6562 152.516 20.8983 152.758 20.8983 153.054C20.8983 153.35 20.6562 153.592 20.3603 153.592Z" fill="#FE926B"/>
<path d="M20.3603 156.676H13.9944C13.6985 156.676 13.4565 156.434 13.4565 156.138C13.4565 155.842 13.6985 155.6 13.9944 155.6H20.3603C20.6562 155.6 20.8983 155.842 20.8983 156.138C20.8983 156.434 20.6562 156.676 20.3603 156.676Z" fill="#C04365"/>
<path d="M20.3603 159.76H13.9944C13.6985 159.76 13.4565 159.518 13.4565 159.222C13.4565 158.926 13.6985 158.684 13.9944 158.684H20.3603C20.6562 158.684 20.8983 158.926 20.8983 159.222C20.8983 159.518 20.6562 159.76 20.3603 159.76Z" fill="#2CA28C"/>
<path d="M27.3538 196.414H20.9879C20.6921 196.414 20.45 196.171 20.45 195.876C20.45 195.58 20.6921 195.338 20.9879 195.338H27.3538C27.6497 195.338 27.8918 195.58 27.8918 195.876C27.8918 196.171 27.6497 196.414 27.3538 196.414Z" fill="#EEE3D1"/>
<path d="M105.717 158.935H99.3513C99.0555 158.935 98.8134 158.693 98.8134 158.397C98.8134 158.102 99.0555 157.86 99.3513 157.86H105.717C106.013 157.86 106.255 158.102 106.255 158.397C106.255 158.693 106.013 158.935 105.717 158.935Z" fill="#EEE3D1"/>
<path d="M105.717 162.02H99.3513C99.0555 162.02 98.8134 161.778 98.8134 161.482C98.8134 161.186 99.0555 160.944 99.3513 160.944H105.717C106.013 160.944 106.255 161.186 106.255 161.482C106.255 161.778 106.013 162.02 105.717 162.02Z" fill="#FE926B"/>
<path d="M105.717 165.104H99.3513C99.0555 165.104 98.8134 164.862 98.8134 164.566C98.8134 164.27 99.0555 164.028 99.3513 164.028H105.717C106.013 164.028 106.255 164.27 106.255 164.566C106.255 164.862 106.013 165.104 105.717 165.104Z" fill="#C04365"/>
<path d="M105.717 168.188H99.3513C99.0555 168.188 98.8134 167.946 98.8134 167.65C98.8134 167.355 99.0555 167.112 99.3513 167.112H105.717C106.013 167.112 106.255 167.355 106.255 167.65C106.255 167.946 106.013 168.188 105.717 168.188Z" fill="#2CA28C"/>
<path d="M77.2052 173.819H70.8393C70.5434 173.819 70.3013 173.577 70.3013 173.281C70.3013 172.985 70.5434 172.743 70.8393 172.743H77.2052C77.5011 172.743 77.7431 172.985 77.7431 173.281C77.7431 173.577 77.5011 173.819 77.2052 173.819Z" fill="#EEE3D1"/>
<path d="M77.2052 176.903H70.8393C70.5434 176.903 70.3013 176.661 70.3013 176.365C70.3013 176.07 70.5434 175.828 70.8393 175.828H77.2052C77.5011 175.828 77.7431 176.07 77.7431 176.365C77.7431 176.661 77.5011 176.903 77.2052 176.903Z" fill="#FE926B"/>
<path d="M77.2052 179.988H70.8393C70.5434 179.988 70.3013 179.746 70.3013 179.45C70.3013 179.154 70.5434 178.912 70.8393 178.912H77.2052C77.5011 178.912 77.7431 179.154 77.7431 179.45C77.7431 179.746 77.5011 179.988 77.2052 179.988Z" fill="#C04365"/>
<path d="M77.2052 183.072H70.8393C70.5434 183.072 70.3013 182.83 70.3013 182.534C70.3013 182.238 70.5434 181.996 70.8393 181.996H77.2052C77.5011 181.996 77.7431 182.238 77.7431 182.534C77.7431 182.83 77.5011 183.072 77.2052 183.072Z" fill="#2CA28C"/>
<path d="M29.4011 183.682C30.3724 184.653 31.3467 185.627 32.3181 186.599C32.8082 187.089 33.5703 186.33 33.0802 185.837C32.1089 184.865 31.1345 183.891 30.1632 182.92C29.6731 182.43 28.911 183.189 29.4011 183.682Z" fill="#2CA28C"/>
<path d="M32.3181 182.92C31.3468 183.891 30.3725 184.865 29.4011 185.837C28.911 186.327 29.6701 187.089 30.1633 186.599C31.1346 185.627 32.1089 184.653 33.0802 183.682C33.5704 183.192 32.8112 182.43 32.3181 182.92Z" fill="#2CA28C"/>
<path d="M68.538 189.569H64.0549V194.053H68.538V189.569Z" fill="#2CA28C"/>
<path d="M101.922 186.192H99.5307V188.583H101.922V186.192Z" fill="#EEE3D1"/>
<path d="M79.6858 163.481H77.2948V165.872H79.6858V163.481Z" fill="#C04365"/>
<path d="M28.9976 147.223H26.6067V149.614H28.9976V147.223Z" fill="#C04365"/>
<path d="M48.8425 178.544H46.4516V180.935H48.8425V178.544Z" fill="#2CA28C"/>
<path d="M12.7392 188.825H10.3482V191.216H12.7392V188.825Z" fill="#2CA28C"/>
<path d="M64.7423 174.001H62.3514V176.392H64.7423V174.001Z" fill="#2CA28C"/>
<path d="M14.2933 168.263H11.9024V170.654H14.2933V168.263Z" fill="#2CA28C"/>
<path d="M39.6374 166.111H37.2464V168.502H39.6374V166.111Z" fill="#EEE3D1"/>
<path d="M71.3174 147.94H68.9265V150.331H71.3174V147.94Z" fill="#EEE3D1"/>
<path d="M173.45 68.0823C173.369 67.0662 173.809 66.065 174.932 65.9663C176.176 65.8557 176.705 67.0154 176.678 68.0823C176.66 68.7757 177.736 68.7757 177.754 68.0823C177.792 66.4176 176.83 64.9382 175.061 64.8874C173.303 64.8366 172.248 66.4774 172.374 68.0823C172.428 68.7697 173.504 68.7757 173.45 68.0823Z" fill="#C04365"/>
<path d="M193.815 62.3411C194.786 63.3124 195.76 64.2867 196.732 65.258C197.222 65.7482 197.984 64.989 197.494 64.4959C196.523 63.5246 195.548 62.5503 194.577 61.5789C194.087 61.0888 193.325 61.8479 193.815 62.3411Z" fill="#C04365"/>
<path d="M196.732 61.5789C195.76 62.5502 194.786 63.5246 193.815 64.4959C193.325 64.986 194.084 65.7481 194.577 65.258C195.548 64.2867 196.523 63.3124 197.494 62.341C197.984 61.8509 197.225 61.0888 196.732 61.5789Z" fill="#C04365"/>
<path d="M154.603 120.202C155.575 121.173 156.549 122.148 157.52 123.119C158.01 123.609 158.772 122.85 158.282 122.357C157.311 121.386 156.337 120.411 155.365 119.44C154.875 118.95 154.113 119.709 154.603 120.202Z" fill="#FE926B"/>
<path d="M157.52 119.44C156.549 120.411 155.575 121.386 154.603 122.357C154.113 122.847 154.872 123.609 155.365 123.119C156.337 122.148 157.311 121.173 158.282 120.202C158.772 119.712 158.013 118.95 157.52 119.44Z" fill="#FE926B"/>
<path d="M188.154 126.302C186.475 126.302 185.106 124.933 185.106 123.254C185.106 121.574 186.475 120.205 188.154 120.205C189.834 120.205 191.203 121.574 191.203 123.254C191.203 124.933 189.834 126.302 188.154 126.302ZM188.154 121.281C187.066 121.281 186.182 122.166 186.182 123.254C186.182 124.341 187.066 125.226 188.154 125.226C189.242 125.226 190.127 124.341 190.127 123.254C190.127 122.166 189.242 121.281 188.154 121.281Z" fill="#C04365"/>
<path d="M157.29 81.0831C157.383 82.6342 158.665 83.8626 160.24 83.8626C161.815 83.8626 163.097 82.6342 163.19 81.0831H157.29Z" fill="#C04365"/>
<path d="M169.735 81.0831C169.642 79.532 168.36 78.3036 166.785 78.3036C165.21 78.3036 163.928 79.532 163.835 81.0831H169.735Z" fill="#FE926B"/>
<path d="M170.291 81.0831C170.384 82.6342 171.666 83.8626 173.241 83.8626C174.816 83.8626 176.098 82.6342 176.191 81.0831H170.291Z" fill="#EEE3D1"/>
<path d="M182.736 81.0831C182.643 79.532 181.361 78.3036 179.786 78.3036C178.211 78.3036 176.929 79.532 176.836 81.0831H182.736Z" fill="#C04365"/>
<path d="M192.419 55.0726C192.282 55.0726 192.144 55.0188 192.04 54.9142C191.83 54.705 191.83 54.3642 192.04 54.152L194.93 51.262L197.775 54.1072C197.984 54.3164 197.984 54.6571 197.775 54.8693C197.566 55.0815 197.225 55.0785 197.013 54.8693L194.927 52.7832L192.796 54.9142C192.691 55.0188 192.554 55.0726 192.416 55.0726H192.419Z" fill="#C04365"/>
<path d="M197.53 55.0726C197.392 55.0726 197.255 55.0188 197.15 54.9142C196.941 54.705 196.941 54.3642 197.15 54.152L200.04 51.262L202.885 54.1072C203.095 54.3164 203.095 54.6571 202.885 54.8693C202.676 55.0815 202.336 55.0785 202.123 54.8693L200.037 52.7832L197.906 54.9142C197.802 55.0188 197.664 55.0726 197.527 55.0726H197.53Z" fill="#C04365"/>
<path d="M199.362 71.4894H194.879V75.9725H199.362V71.4894Z" fill="#C04365"/>
<path d="M155.996 103.11C155.915 102.094 156.355 101.092 157.478 100.994C158.722 100.883 159.251 102.046 159.224 103.11C159.206 103.803 160.282 103.803 160.3 103.11C160.339 101.445 159.376 99.9657 157.607 99.9148C155.85 99.864 154.795 101.505 154.92 103.11C154.974 103.797 156.05 103.803 155.996 103.11Z" fill="#EEE3D1"/>
<path d="M181.041 103.05C179.362 103.05 177.993 101.684 177.993 100.002C177.993 98.3189 179.362 96.9531 181.041 96.9531C182.721 96.9531 184.09 98.3219 184.09 100.002C184.09 101.681 182.721 103.05 181.041 103.05ZM181.041 98.029C179.953 98.029 179.069 98.9136 179.069 100.002C179.069 101.089 179.953 101.974 181.041 101.974C182.129 101.974 183.014 101.089 183.014 100.002C183.014 98.9136 182.129 98.029 181.041 98.029Z" fill="#EEE3D1"/>
<path d="M194.093 94.2991C193.955 94.2991 193.818 94.2453 193.713 94.1407C193.504 93.9315 193.504 93.5908 193.713 93.3786L196.603 90.4885L199.448 93.3337C199.658 93.543 199.658 93.8837 199.448 94.0959C199.239 94.3051 198.899 94.3051 198.686 94.0959L196.6 92.0098L194.469 94.1407C194.365 94.2453 194.227 94.2991 194.09 94.2991H194.093Z" fill="#EEE3D1"/>
<path d="M199.203 94.2991C199.066 94.2991 198.928 94.2453 198.824 94.1407C198.615 93.9315 198.615 93.5908 198.824 93.3786L201.714 90.4885L204.559 93.3337C204.768 93.543 204.768 93.8837 204.559 94.0959C204.35 94.3051 204.009 94.3051 203.797 94.0959L201.711 92.0098L199.58 94.1407C199.475 94.2453 199.338 94.2991 199.2 94.2991H199.203Z" fill="#EEE3D1"/>
<path d="M199.362 103.289H194.879V107.772H199.362V103.289Z" fill="#EEE3D1"/>
<path d="M185.327 143.275C186.298 144.246 187.273 145.22 188.244 146.192C188.734 146.682 189.496 145.923 189.006 145.43C188.035 144.458 187.06 143.484 186.089 142.513C185.599 142.022 184.837 142.782 185.327 143.275Z" fill="#FE926B"/>
<path d="M188.244 142.513C187.273 143.484 186.298 144.458 185.327 145.43C184.837 145.92 185.596 146.682 186.089 146.192C187.06 145.22 188.035 144.246 189.006 143.275C189.496 142.785 188.737 142.022 188.244 142.513Z" fill="#FE926B"/>
<path d="M178.83 54.5436V58.668C178.83 59.3613 179.905 59.3613 179.905 58.668V54.5436C179.905 53.8502 178.83 53.8502 178.83 54.5436Z" fill="#FE926B"/>
<path d="M181.161 54.5436V58.668C181.161 59.3613 182.237 59.3613 182.237 58.668V54.5436C182.237 53.8502 181.161 53.8502 181.161 54.5436Z" fill="#FE926B"/>
<path d="M160.599 134.132C158.919 134.132 157.55 132.766 157.55 131.084C157.55 129.401 158.919 128.035 160.599 128.035C162.278 128.035 163.647 129.404 163.647 131.084C163.647 132.764 162.278 134.132 160.599 134.132ZM160.599 129.111C159.511 129.111 158.626 129.996 158.626 131.084C158.626 132.172 159.511 133.056 160.599 133.056C161.686 133.056 162.571 132.172 162.571 131.084C162.571 129.996 161.686 129.111 160.599 129.111Z" fill="#FE926B"/>
<path d="M155.856 144.443C155.948 145.994 157.23 147.223 158.805 147.223C160.38 147.223 161.663 145.994 161.755 144.443H155.856Z" fill="#FE926B"/>
<path d="M168.3 144.443C168.208 142.892 166.926 141.664 165.351 141.664C163.775 141.664 162.493 142.892 162.401 144.443H168.3Z" fill="#C04365"/>
<path d="M168.856 144.443C168.949 145.994 170.231 147.223 171.806 147.223C173.381 147.223 174.663 145.994 174.756 144.443H168.856Z" fill="#EEE3D1"/>
<path d="M181.301 144.443C181.209 142.892 179.926 141.664 178.351 141.664C176.776 141.664 175.494 142.892 175.402 144.443H181.301Z" fill="#FE926B"/>
<path d="M163.1 119.568C162.963 119.568 162.825 119.515 162.721 119.41C162.511 119.201 162.511 118.86 162.721 118.648L165.611 115.758L168.456 118.603C168.665 118.812 168.665 119.153 168.456 119.365C168.247 119.574 167.906 119.574 167.694 119.365L165.608 117.279L163.477 119.41C163.372 119.515 163.235 119.568 163.097 119.568H163.1Z" fill="#FE926B"/>
<path d="M168.211 119.568C168.073 119.568 167.936 119.515 167.831 119.41C167.622 119.201 167.622 118.86 167.831 118.648L170.721 115.758L173.566 118.603C173.776 118.812 173.776 119.153 173.566 119.365C173.357 119.574 173.017 119.574 172.804 119.365L170.718 117.279L168.587 119.41C168.483 119.515 168.345 119.568 168.208 119.568H168.211Z" fill="#FE926B"/>
<path d="M199.362 131.741H194.879V136.224H199.362V131.741Z" fill="#FE926B"/>
<path d="M164.932 53.5573H158.566C158.27 53.5573 158.028 53.3152 158.028 53.0193C158.028 52.7235 158.27 52.4814 158.566 52.4814H164.932C165.228 52.4814 165.47 52.7235 165.47 53.0193C165.47 53.3152 165.228 53.5573 164.932 53.5573Z" fill="#EEE3D1"/>
<path d="M164.932 56.6386H158.566C158.27 56.6386 158.028 56.3966 158.028 56.1007C158.028 55.8048 158.27 55.5627 158.566 55.5627H164.932C165.228 55.5627 165.47 55.8048 165.47 56.1007C165.47 56.3966 165.228 56.6386 164.932 56.6386Z" fill="#FE926B"/>
<path d="M164.932 59.723H158.566C158.27 59.723 158.028 59.4809 158.028 59.185C158.028 58.8891 158.27 58.647 158.566 58.647H164.932C165.228 58.647 165.47 58.8891 165.47 59.185C165.47 59.4809 165.228 59.723 164.932 59.723Z" fill="#C04365"/>
<path d="M164.932 62.8073H158.566C158.27 62.8073 158.028 62.5652 158.028 62.2693C158.028 61.9734 158.27 61.7314 158.566 61.7314H164.932C165.228 61.7314 165.47 61.9734 165.47 62.2693C165.47 62.5652 165.228 62.8073 164.932 62.8073Z" fill="#2CA28C"/>
<path d="M171.926 99.4635H165.56C165.264 99.4635 165.022 99.2215 165.022 98.9256C165.022 98.6297 165.264 98.3876 165.56 98.3876H171.926C172.222 98.3876 172.464 98.6297 172.464 98.9256C172.464 99.2215 172.222 99.4635 171.926 99.4635Z" fill="#EEE3D1"/>
<path d="M171.926 102.548H165.56C165.264 102.548 165.022 102.306 165.022 102.01C165.022 101.714 165.264 101.472 165.56 101.472H171.926C172.222 101.472 172.464 101.714 172.464 102.01C172.464 102.306 172.222 102.548 171.926 102.548Z" fill="#FE926B"/>
<path d="M171.926 105.629H165.56C165.264 105.629 165.022 105.387 165.022 105.091C165.022 104.795 165.264 104.553 165.56 104.553H171.926C172.222 104.553 172.464 104.795 172.464 105.091C172.464 105.387 172.222 105.629 171.926 105.629Z" fill="#C04365"/>
<path d="M171.926 108.714H165.56C165.264 108.714 165.022 108.471 165.022 108.176C165.022 107.88 165.264 107.638 165.56 107.638H171.926C172.222 107.638 172.464 107.88 172.464 108.176C172.464 108.471 172.222 108.714 171.926 108.714Z" fill="#2CA28C"/>
<path d="M203.666 115.423H197.3C197.004 115.423 196.762 115.181 196.762 114.885C196.762 114.589 197.004 114.347 197.3 114.347H203.666C203.961 114.347 204.204 114.589 204.204 114.885C204.204 115.181 203.961 115.423 203.666 115.423Z" fill="#EEE3D1"/>
<path d="M203.666 118.507H197.3C197.004 118.507 196.762 118.265 196.762 117.97C196.762 117.674 197.004 117.432 197.3 117.432H203.666C203.961 117.432 204.204 117.674 204.204 117.97C204.204 118.265 203.961 118.507 203.666 118.507Z" fill="#FE926B"/>
<path d="M203.666 121.589H197.3C197.004 121.589 196.762 121.347 196.762 121.051C196.762 120.755 197.004 120.513 197.3 120.513H203.666C203.961 120.513 204.204 120.755 204.204 121.051C204.204 121.347 203.961 121.589 203.666 121.589Z" fill="#C04365"/>
<path d="M203.666 124.673H197.3C197.004 124.673 196.762 124.431 196.762 124.135C196.762 123.839 197.004 123.597 197.3 123.597H203.666C203.961 123.597 204.204 123.839 204.204 124.135C204.204 124.431 203.961 124.673 203.666 124.673Z" fill="#2CA28C"/>
<path d="M173.97 86.7287C174.941 87.7001 175.916 88.6744 176.887 89.6457C177.377 90.1358 178.139 89.3767 177.649 88.8836C176.678 87.9123 175.703 86.938 174.732 85.9666C174.242 85.4765 173.48 86.2356 173.97 86.7287Z" fill="#2CA28C"/>
<path d="M176.887 85.9666C175.916 86.9379 174.941 87.9123 173.97 88.8836C173.48 89.3737 174.239 90.1358 174.732 89.6457C175.703 88.6744 176.678 87.7001 177.649 86.7287C178.139 86.2386 177.38 85.4765 176.887 85.9666Z" fill="#2CA28C"/>
<path d="M165.679 138.376C165.542 138.376 165.404 138.322 165.3 138.218C165.091 138.009 165.091 137.668 165.3 137.456L168.19 134.566L171.035 137.411C171.244 137.62 171.244 137.961 171.035 138.173C170.826 138.382 170.485 138.382 170.273 138.173L168.187 136.087L166.056 138.218C165.951 138.322 165.814 138.376 165.676 138.376H165.679Z" fill="#2CA28C"/>
<path d="M170.79 138.376C170.652 138.376 170.515 138.322 170.41 138.218C170.201 138.009 170.201 137.668 170.41 137.456L173.3 134.566L176.146 137.411C176.355 137.62 176.355 137.961 176.146 138.173C175.936 138.382 175.596 138.382 175.384 138.173L173.297 136.087L171.167 138.218C171.062 138.322 170.924 138.376 170.787 138.376H170.79Z" fill="#2CA28C"/>
<path d="M179.786 129.171H177.395V131.562H179.786V129.171Z" fill="#EEE3D1"/>
<path d="M184.807 108.728H182.416V111.119H184.807V108.728Z" fill="#C04365"/>
<path d="M173.569 50.2697H171.179V52.6607H173.569V50.2697Z" fill="#C04365"/>
<path d="M193.414 81.5912H191.023V83.9821H193.414V81.5912Z" fill="#2CA28C"/>
<path d="M157.311 91.8723H154.92V94.2632H157.311V91.8723Z" fill="#2CA28C"/>
<path d="M158.865 71.3101H156.474V73.701H158.865V71.3101Z" fill="#2CA28C"/>
<path d="M201.424 142.56H199.033V144.951H201.424V142.56Z" fill="#EEE3D1"/>
<path d="M184.209 69.1582H181.818V71.5492H184.209V69.1582Z" fill="#EEE3D1"/>
<path d="M77.0677 68.0823C76.987 67.0662 77.4263 66.065 78.5501 65.9663C79.7934 65.8557 80.3224 67.0154 80.2955 68.0823C80.2775 68.7757 81.3535 68.7757 81.3714 68.0823C81.4102 66.4176 80.4479 64.9382 78.6786 64.8874C76.9212 64.8366 75.8662 66.4774 75.9918 68.0823C76.0456 68.7697 77.1215 68.7757 77.0677 68.0823Z" fill="#C04365"/>
<path d="M149.155 101.884V106.009C149.155 106.702 150.231 106.702 150.231 106.009V101.884C150.231 101.191 149.155 101.191 149.155 101.884Z" fill="#C04365"/>
<path d="M106.88 103.107C107.851 104.078 108.825 105.052 109.797 106.024C110.287 106.514 111.049 105.755 110.559 105.262C109.588 104.29 108.613 103.316 107.642 102.345C107.152 101.854 106.39 102.614 106.88 103.107Z" fill="#C04365"/>
<path d="M109.797 102.345C108.826 103.316 107.851 104.29 106.88 105.262C106.39 105.752 107.149 106.514 107.642 106.024C108.613 105.052 109.588 104.078 110.559 103.107C111.049 102.617 110.29 101.854 109.797 102.345Z" fill="#C04365"/>
<path d="M135.093 89.5979C136.064 90.5692 137.039 91.5435 138.01 92.5149C138.5 93.005 139.262 92.2459 138.772 91.7527C137.801 90.7814 136.826 89.8071 135.855 88.8358C135.365 88.3456 134.603 89.1048 135.093 89.5979Z" fill="#C04365"/>
<path d="M138.01 88.8358C137.039 89.8071 136.064 90.7814 135.093 91.7527C134.603 92.2429 135.362 93.005 135.855 92.5148C136.827 91.5435 137.801 90.5692 138.772 89.5979C139.262 89.1077 138.503 88.3456 138.01 88.8358Z" fill="#C04365"/>
<path d="M97.4356 62.3411C98.4069 63.3124 99.3812 64.2867 100.353 65.258C100.843 65.7482 101.605 64.989 101.115 64.4959C100.143 63.5246 99.169 62.5503 98.1977 61.5789C97.7075 61.0888 96.9454 61.8479 97.4356 62.3411Z" fill="#C04365"/>
<path d="M100.353 61.5789L97.4356 64.4959C96.9455 64.986 97.7046 65.7481 98.1977 65.258L101.115 62.341C101.605 61.8509 100.846 61.0888 100.353 61.5789Z" fill="#C04365"/>
<path d="M58.224 120.202C59.1953 121.173 60.1696 122.148 61.141 123.119C61.6311 123.609 62.3932 122.85 61.9031 122.357C60.9318 121.386 59.9574 120.411 58.9861 119.44C58.496 118.95 57.7339 119.709 58.224 120.202Z" fill="#FE926B"/>
<path d="M61.141 119.44C60.1697 120.411 59.1954 121.386 58.224 122.357C57.7339 122.847 58.493 123.609 58.9862 123.119C59.9575 122.148 60.9318 121.173 61.9031 120.202C62.3933 119.712 61.6341 118.95 61.141 119.44Z" fill="#FE926B"/>
<path d="M151.486 101.884V106.009C151.486 106.702 152.562 106.702 152.562 106.009V101.884C152.562 101.191 151.486 101.191 151.486 101.884Z" fill="#C04365"/>
<path d="M91.7721 126.302C90.0924 126.302 88.7236 124.933 88.7236 123.254C88.7236 121.574 90.0924 120.205 91.7721 120.205C93.4517 120.205 94.8205 121.574 94.8205 123.254C94.8205 124.933 93.4517 126.302 91.7721 126.302ZM91.7721 121.281C90.6842 121.281 89.7995 122.166 89.7995 123.254C89.7995 124.341 90.6842 125.226 91.7721 125.226C92.8599 125.226 93.7446 124.341 93.7446 123.254C93.7446 122.166 92.8599 121.281 91.7721 121.281Z" fill="#C04365"/>
<path d="M60.9079 81.0831C61.0005 82.6342 62.2827 83.8626 63.8577 83.8626C65.4327 83.8626 66.7149 82.6342 66.8075 81.0831H60.9079Z" fill="#C04365"/>
<path d="M73.3528 81.0831C73.2601 79.532 71.978 78.3036 70.4029 78.3036C68.8279 78.3036 67.5457 79.532 67.4531 81.0831H73.3528Z" fill="#FE926B"/>
<path d="M73.9087 81.0831C74.0013 82.6342 75.2835 83.8626 76.8585 83.8626C78.4335 83.8626 79.7157 82.6342 79.8083 81.0831H73.9087Z" fill="#EEE3D1"/>
<path d="M86.3536 81.0831C86.2609 79.532 84.9788 78.3036 83.4037 78.3036C81.8287 78.3036 80.5465 79.532 80.4539 81.0831H86.3536Z" fill="#C04365"/>
<path d="M96.0399 55.0726C95.9024 55.0726 95.7649 55.0188 95.6603 54.9142C95.4511 54.705 95.4511 54.3642 95.6603 54.152L98.5504 51.262L101.396 54.1072C101.605 54.3164 101.605 54.6571 101.396 54.8693C101.186 55.0785 100.846 55.0785 100.634 54.8693L98.5474 52.7832L96.4165 54.9142C96.3119 55.0188 96.1744 55.0726 96.0369 55.0726H96.0399Z" fill="#C04365"/>
<path d="M101.151 55.0726C101.013 55.0726 100.876 55.0188 100.771 54.9142C100.562 54.705 100.562 54.3642 100.771 54.152L103.661 51.262L106.506 54.1072C106.715 54.3164 106.715 54.6571 106.506 54.8693C106.297 55.0785 105.956 55.0785 105.744 54.8693L103.658 52.7832L101.527 54.9142C101.423 55.0188 101.285 55.0726 101.148 55.0726H101.151Z" fill="#C04365"/>
<path d="M137.284 83.0616C137.146 83.0616 137.009 83.0078 136.904 82.9032C136.695 82.694 136.695 82.3533 136.904 82.1411L139.794 79.2511L142.64 82.0963C142.849 82.3055 142.849 82.6462 142.64 82.8584C142.43 83.0676 142.09 83.0676 141.877 82.8584L139.791 80.7723L137.66 82.9032C137.556 83.0078 137.418 83.0616 137.281 83.0616H137.284Z" fill="#C04365"/>
<path d="M142.394 83.0616C142.257 83.0616 142.12 83.0078 142.015 82.9032C141.806 82.694 141.806 82.3533 142.015 82.1411L144.905 79.2511L147.75 82.0963C147.959 82.3055 147.959 82.6462 147.75 82.8584C147.541 83.0676 147.2 83.0676 146.988 82.8584L144.902 80.7723L142.771 82.9032C142.666 83.0078 142.529 83.0616 142.391 83.0616H142.394Z" fill="#C04365"/>
<path d="M102.98 71.4894H98.4966V75.9725H102.98V71.4894Z" fill="#C04365"/>
<path d="M59.6138 103.11C59.5331 102.094 59.9724 101.092 61.0961 100.994C62.3394 100.883 62.8684 102.046 62.8415 103.11C62.8236 103.803 63.8995 103.803 63.9175 103.11C63.9563 101.445 62.994 99.9657 61.2247 99.9148C59.4673 99.864 58.4123 101.505 58.5378 103.11C58.5916 103.797 59.6676 103.803 59.6138 103.11Z" fill="#EEE3D1"/>
<path d="M136.647 69.8725L139.564 72.7895C140.054 73.2796 140.816 72.5205 140.326 72.0274C139.355 71.0561 138.381 70.0818 137.409 69.1104C136.919 68.6203 136.157 69.3794 136.647 69.8725Z" fill="#EEE3D1"/>
<path d="M139.564 69.1104L136.647 72.0274C136.157 72.5175 136.916 73.2796 137.409 72.7895C138.381 71.8182 139.355 70.8439 140.326 69.8725C140.816 69.3824 140.057 68.6203 139.564 69.1104Z" fill="#EEE3D1"/>
<path d="M111.976 60.9991V65.1235C111.976 65.8169 113.051 65.8169 113.051 65.1235V60.9991C113.051 60.3058 111.976 60.3058 111.976 60.9991Z" fill="#EEE3D1"/>
<path d="M114.307 60.9991V65.1235C114.307 65.8169 115.383 65.8169 115.383 65.1235V60.9991C115.383 60.3058 114.307 60.3058 114.307 60.9991Z" fill="#EEE3D1"/>
<path d="M84.659 103.05C82.9793 103.05 81.6105 101.684 81.6105 100.002C81.6105 98.3189 82.9793 96.9531 84.659 96.9531C86.3386 96.9531 87.7074 98.3219 87.7074 100.002C87.7074 101.681 86.3386 103.05 84.659 103.05ZM84.659 98.029C83.5711 98.029 82.6864 98.9136 82.6864 100.002C82.6864 101.089 83.5711 101.974 84.659 101.974C85.7468 101.974 86.6315 101.089 86.6315 100.002C86.6315 98.9136 85.7468 98.029 84.659 98.029Z" fill="#EEE3D1"/>
<path d="M128.93 54.6631C129.023 56.2142 130.305 57.4426 131.88 57.4426C133.455 57.4426 134.737 56.2142 134.83 54.6631H128.93Z" fill="#EEE3D1"/>
<path d="M141.375 54.6631C141.283 53.112 140 51.8836 138.425 51.8836C136.85 51.8836 135.568 53.112 135.476 54.6631H141.375Z" fill="#C04365"/>
<path d="M141.931 54.6631C142.024 56.2142 143.306 57.4426 144.881 57.4426C146.456 57.4426 147.738 56.2142 147.831 54.6631H141.931Z" fill="#FE926B"/>
<path d="M154.376 54.6631C154.283 53.112 153.001 51.8836 151.426 51.8836C149.851 51.8836 148.569 53.112 148.476 54.6631H154.376Z" fill="#EEE3D1"/>
<path d="M134.265 111.798C134.128 111.798 133.99 111.744 133.886 111.639C133.676 111.43 133.676 111.09 133.886 110.877L136.776 107.987L139.621 110.833C139.83 111.042 139.83 111.382 139.621 111.595C139.412 111.804 139.071 111.804 138.859 111.595L136.773 109.509L134.642 111.639C134.537 111.744 134.4 111.798 134.262 111.798H134.265Z" fill="#EEE3D1"/>
<path d="M139.376 111.798C139.238 111.798 139.101 111.744 138.996 111.639C138.787 111.43 138.787 111.09 138.996 110.877L141.886 107.987L144.732 110.833C144.941 111.042 144.941 111.382 144.732 111.595C144.522 111.804 144.182 111.804 143.969 111.595L141.883 109.509L139.752 111.639C139.648 111.744 139.51 111.798 139.373 111.798H139.376Z" fill="#EEE3D1"/>
<path d="M97.7135 94.2991C97.5761 94.2991 97.4386 94.2453 97.334 94.1407C97.1248 93.9315 97.1248 93.5908 97.334 93.3786L100.224 90.4885L103.069 93.3337C103.278 93.543 103.278 93.8837 103.069 94.0959C102.86 94.3051 102.519 94.3051 102.307 94.0959L100.221 92.0098L98.0901 94.1407C97.9855 94.2453 97.848 94.2991 97.7106 94.2991H97.7135Z" fill="#EEE3D1"/>
<path d="M102.824 94.2991C102.687 94.2991 102.549 94.2453 102.445 94.1407C102.235 93.9315 102.235 93.5908 102.445 93.3786L105.335 90.4885L108.18 93.3337C108.389 93.543 108.389 93.8837 108.18 94.0959C107.971 94.3051 107.63 94.3051 107.418 94.0959L105.332 92.0098L103.201 94.1407C103.096 94.2453 102.959 94.2991 102.821 94.2991H102.824Z" fill="#EEE3D1"/>
<path d="M102.98 103.289H98.4966V107.772H102.98V103.289Z" fill="#EEE3D1"/>
<path d="M123.691 128.215C123.611 127.199 124.05 126.197 125.174 126.099C126.417 125.988 126.946 127.148 126.919 128.215C126.901 128.908 127.977 128.908 127.995 128.215C128.034 126.55 127.071 125.071 125.302 125.02C123.545 124.969 122.49 126.61 122.615 128.215C122.669 128.902 123.745 128.908 123.691 128.215Z" fill="#FE926B"/>
<path d="M121.181 106.215C121.1 105.199 121.539 104.198 122.663 104.099C123.906 103.988 124.435 105.148 124.409 106.215C124.391 106.908 125.467 106.908 125.484 106.215C125.523 104.55 124.561 103.071 122.792 103.02C121.034 102.969 119.979 104.61 120.105 106.215C120.159 106.902 121.235 106.908 121.181 106.215Z" fill="#EEE3D1"/>
<path d="M88.9477 143.275C89.919 144.246 90.8933 145.22 91.8647 146.192C92.3548 146.682 93.1169 145.923 92.6268 145.43C91.6555 144.458 90.6812 143.484 89.7098 142.513C89.2197 142.022 88.4576 142.782 88.9477 143.275Z" fill="#FE926B"/>
<path d="M91.8647 142.513C90.8934 143.484 89.9191 144.458 88.9477 145.43C88.4576 145.92 89.2167 146.682 89.7099 146.192C90.6812 145.22 91.6555 144.246 92.6268 143.275C93.117 142.785 92.3578 142.022 91.8647 142.513Z" fill="#FE926B"/>
<path d="M82.4473 54.5436V58.668C82.4473 59.3613 83.5233 59.3613 83.5233 58.668V54.5436C83.5233 53.8502 82.4473 53.8502 82.4473 54.5436Z" fill="#FE926B"/>
<path d="M84.7785 54.5436V58.668C84.7785 59.3613 85.8544 59.3613 85.8544 58.668V54.5436C85.8544 53.8502 84.7785 53.8502 84.7785 54.5436Z" fill="#FE926B"/>
<path d="M64.2163 134.132C62.5367 134.132 61.1679 132.766 61.1679 131.084C61.1679 129.401 62.5367 128.035 64.2163 128.035C65.896 128.035 67.2648 129.404 67.2648 131.084C67.2648 132.764 65.896 134.132 64.2163 134.132ZM64.2163 129.111C63.1285 129.111 62.2438 129.996 62.2438 131.084C62.2438 132.172 63.1285 133.056 64.2163 133.056C65.3042 133.056 66.1889 132.172 66.1889 131.084C66.1889 129.996 65.3042 129.111 64.2163 129.111Z" fill="#FE926B"/>
<path d="M59.4733 144.443C59.5659 145.994 60.8481 147.223 62.4231 147.223C63.9982 147.223 65.2803 145.994 65.373 144.443H59.4733Z" fill="#FE926B"/>
<path d="M71.9182 144.443C71.8255 142.892 70.5434 141.664 68.9684 141.664C67.3933 141.664 66.1112 142.892 66.0185 144.443H71.9182Z" fill="#C04365"/>
<path d="M72.4741 144.443C72.5668 145.994 73.8489 147.223 75.4239 147.223C76.999 147.223 78.2811 145.994 78.3738 144.443H72.4741Z" fill="#EEE3D1"/>
<path d="M84.919 144.443C84.8263 142.892 83.5442 141.664 81.9691 141.664C80.3941 141.664 79.1119 142.892 79.0193 144.443H84.919Z" fill="#FE926B"/>
<path d="M66.7209 119.568C66.5834 119.568 66.4459 119.515 66.3413 119.41C66.1321 119.201 66.1321 118.86 66.3413 118.648L69.2314 115.758L72.0766 118.603C72.2858 118.812 72.2858 119.153 72.0766 119.365C71.8674 119.574 71.5267 119.574 71.3145 119.365L69.2284 117.279L67.0974 119.41C66.9928 119.515 66.8553 119.568 66.7179 119.568H66.7209Z" fill="#FE926B"/>
<path d="M71.8315 119.568C71.6941 119.568 71.5566 119.515 71.452 119.41C71.2428 119.201 71.2428 118.86 71.452 118.648L74.342 115.758L77.1873 118.603C77.3965 118.812 77.3965 119.153 77.1873 119.365C76.9781 119.574 76.6374 119.574 76.4252 119.365L74.3391 117.279L72.2081 119.41C72.1035 119.515 71.966 119.568 71.8286 119.568H71.8315Z" fill="#FE926B"/>
<path d="M114.606 118.546C114.468 118.546 114.331 118.493 114.226 118.388C114.017 118.179 114.017 117.838 114.226 117.626L117.116 114.736L119.961 117.581C120.171 117.79 120.171 118.131 119.961 118.343C119.752 118.552 119.411 118.552 119.199 118.343L117.113 116.257L114.982 118.388C114.878 118.493 114.74 118.546 114.603 118.546H114.606Z" fill="#FE926B"/>
<path d="M119.716 118.546C119.579 118.546 119.441 118.493 119.337 118.388C119.127 118.179 119.127 117.838 119.337 117.626L122.227 114.736L125.072 117.581C125.281 117.79 125.281 118.131 125.072 118.343C124.863 118.552 124.522 118.552 124.31 118.343L122.224 116.257L120.093 118.388C119.988 118.493 119.851 118.546 119.713 118.546H119.716Z" fill="#FE926B"/>
<path d="M102.98 131.741H98.4966V136.224H102.98V131.741Z" fill="#FE926B"/>
<path d="M68.55 53.5573H62.1841C61.8882 53.5573 61.6461 53.3152 61.6461 53.0193C61.6461 52.7235 61.8882 52.4814 62.1841 52.4814H68.55C68.8458 52.4814 69.0879 52.7235 69.0879 53.0193C69.0879 53.3152 68.8458 53.5573 68.55 53.5573Z" fill="#EEE3D1"/>
<path d="M68.55 56.6386H62.1841C61.8882 56.6386 61.6461 56.3966 61.6461 56.1007C61.6461 55.8048 61.8882 55.5627 62.1841 55.5627H68.55C68.8458 55.5627 69.0879 55.8048 69.0879 56.1007C69.0879 56.3966 68.8458 56.6386 68.55 56.6386Z" fill="#FE926B"/>
<path d="M68.55 59.723H62.1841C61.8882 59.723 61.6461 59.4809 61.6461 59.185C61.6461 58.8891 61.8882 58.647 62.1841 58.647H68.55C68.8458 58.647 69.0879 58.8891 69.0879 59.185C69.0879 59.4809 68.8458 59.723 68.55 59.723Z" fill="#C04365"/>
<path d="M68.55 62.8073H62.1841C61.8882 62.8073 61.6461 62.5652 61.6461 62.2693C61.6461 61.9734 61.8882 61.7314 62.1841 61.7314H68.55C68.8458 61.7314 69.0879 61.9734 69.0879 62.2693C69.0879 62.5652 68.8458 62.8073 68.55 62.8073Z" fill="#2CA28C"/>
<path d="M75.5435 99.4635H69.1776C68.8817 99.4635 68.6396 99.2215 68.6396 98.9256C68.6396 98.6297 68.8817 98.3876 69.1776 98.3876H75.5435C75.8393 98.3876 76.0814 98.6297 76.0814 98.9256C76.0814 99.2215 75.8393 99.4635 75.5435 99.4635Z" fill="#EEE3D1"/>
<path d="M75.5435 102.548H69.1776C68.8817 102.548 68.6396 102.306 68.6396 102.01C68.6396 101.714 68.8817 101.472 69.1776 101.472H75.5435C75.8393 101.472 76.0814 101.714 76.0814 102.01C76.0814 102.306 75.8393 102.548 75.5435 102.548Z" fill="#FE926B"/>
<path d="M75.5435 105.629H69.1776C68.8817 105.629 68.6396 105.387 68.6396 105.091C68.6396 104.795 68.8817 104.553 69.1776 104.553H75.5435C75.8393 104.553 76.0814 104.795 76.0814 105.091C76.0814 105.387 75.8393 105.629 75.5435 105.629Z" fill="#C04365"/>
<path d="M75.5435 108.714H69.1776C68.8817 108.714 68.6396 108.471 68.6396 108.176C68.6396 107.88 68.8817 107.638 69.1776 107.638H75.5435C75.8393 107.638 76.0814 107.88 76.0814 108.176C76.0814 108.471 75.8393 108.714 75.5435 108.714Z" fill="#2CA28C"/>
<path d="M107.283 115.423H100.917C100.622 115.423 100.379 115.181 100.379 114.885C100.379 114.589 100.622 114.347 100.917 114.347H107.283C107.579 114.347 107.821 114.589 107.821 114.885C107.821 115.181 107.579 115.423 107.283 115.423Z" fill="#EEE3D1"/>
<path d="M107.283 118.507H100.917C100.622 118.507 100.379 118.265 100.379 117.97C100.379 117.674 100.622 117.432 100.917 117.432H107.283C107.579 117.432 107.821 117.674 107.821 117.97C107.821 118.265 107.579 118.507 107.283 118.507Z" fill="#FE926B"/>
<path d="M107.283 121.589H100.917C100.622 121.589 100.379 121.347 100.379 121.051C100.379 120.755 100.622 120.513 100.917 120.513H107.283C107.579 120.513 107.821 120.755 107.821 121.051C107.821 121.347 107.579 121.589 107.283 121.589Z" fill="#C04365"/>
<path d="M107.283 124.673H100.917C100.622 124.673 100.379 124.431 100.379 124.135C100.379 123.839 100.622 123.597 100.917 123.597H107.283C107.579 123.597 107.821 123.839 107.821 124.135C107.821 124.431 107.579 124.673 107.283 124.673Z" fill="#2CA28C"/>
<path d="M153.907 61.9854H147.541C147.245 61.9854 147.003 61.7433 147.003 61.4474C147.003 61.1516 147.245 60.9095 147.541 60.9095H153.907C154.203 60.9095 154.445 61.1516 154.445 61.4474C154.445 61.7433 154.203 61.9854 153.907 61.9854Z" fill="#EEE3D1"/>
<path d="M153.907 65.0667H147.541C147.245 65.0667 147.003 64.8246 147.003 64.5288C147.003 64.2329 147.245 63.9908 147.541 63.9908H153.907C154.203 63.9908 154.445 64.2329 154.445 64.5288C154.445 64.8246 154.203 65.0667 153.907 65.0667Z" fill="#FE926B"/>
<path d="M153.907 68.1511H147.541C147.245 68.1511 147.003 67.909 147.003 67.6131C147.003 67.3172 147.245 67.0751 147.541 67.0751H153.907C154.203 67.0751 154.445 67.3172 154.445 67.6131C154.445 67.909 154.203 68.1511 153.907 68.1511Z" fill="#C04365"/>
<path d="M153.907 71.2354H147.541C147.245 71.2354 147.003 70.9933 147.003 70.6974C147.003 70.4016 147.245 70.1595 147.541 70.1595H153.907C154.203 70.1595 154.445 70.4016 154.445 70.6974C154.445 70.9933 154.203 71.2354 153.907 71.2354Z" fill="#2CA28C"/>
<path d="M125.395 76.8691H119.029C118.733 76.8691 118.491 76.627 118.491 76.3311C118.491 76.0352 118.733 75.7931 119.029 75.7931H125.395C125.691 75.7931 125.933 76.0352 125.933 76.3311C125.933 76.627 125.691 76.8691 125.395 76.8691Z" fill="#EEE3D1"/>
<path d="M125.395 79.9534H119.029C118.733 79.9534 118.491 79.7113 118.491 79.4154C118.491 79.1195 118.733 78.8775 119.029 78.8775H125.395C125.691 78.8775 125.933 79.1195 125.933 79.4154C125.933 79.7113 125.691 79.9534 125.395 79.9534Z" fill="#FE926B"/>
<path d="M125.395 83.0347H119.029C118.733 83.0347 118.491 82.7926 118.491 82.4968C118.491 82.2009 118.733 81.9588 119.029 81.9588H125.395C125.691 81.9588 125.933 82.2009 125.933 82.4968C125.933 82.7926 125.691 83.0347 125.395 83.0347Z" fill="#C04365"/>
<path d="M125.395 86.1191H119.029C118.733 86.1191 118.491 85.877 118.491 85.5811C118.491 85.2852 118.733 85.0431 119.029 85.0431H125.395C125.691 85.0431 125.933 85.2852 125.933 85.5811C125.933 85.877 125.691 86.1191 125.395 86.1191Z" fill="#2CA28C"/>
<path d="M134.211 103.704C134.131 102.688 134.57 101.687 135.694 101.588C136.937 101.478 137.466 102.641 137.439 103.704C137.421 104.398 138.497 104.398 138.515 103.704C138.554 102.04 137.592 100.56 135.822 100.51C134.065 100.459 133.01 102.1 133.135 103.704C133.189 104.392 134.265 104.398 134.211 103.704Z" fill="#2CA28C"/>
<path d="M135.885 118.023V122.148C135.885 122.841 136.961 122.841 136.961 122.148V118.023C136.961 117.33 135.885 117.33 135.885 118.023Z" fill="#2CA28C"/>
<path d="M77.5907 86.7287C78.562 87.7001 79.5363 88.6744 80.5076 89.6457C80.9978 90.1358 81.7599 89.3767 81.2698 88.8836C80.2984 87.9123 79.3241 86.938 78.3528 85.9666C77.8627 85.4765 77.1005 86.2356 77.5907 86.7287Z" fill="#2CA28C"/>
<path d="M80.5077 85.9666C79.5364 86.9379 78.562 87.9123 77.5907 88.8836C77.1006 89.3737 77.8597 90.1358 78.3528 89.6457C79.3242 88.6744 80.2985 87.7001 81.2698 86.7287C81.7599 86.2386 81.0008 85.4765 80.5077 85.9666Z" fill="#2CA28C"/>
<path d="M138.216 118.023V122.148C138.216 122.841 139.292 122.841 139.292 122.148V118.023C139.292 117.33 138.216 117.33 138.216 118.023Z" fill="#2CA28C"/>
<path d="M136.692 133.266C135.012 133.266 133.644 131.897 133.644 130.217C133.644 128.538 135.012 127.169 136.692 127.169C138.372 127.169 139.74 128.538 139.74 130.217C139.74 131.897 138.372 133.266 136.692 133.266ZM136.692 128.245C135.604 128.245 134.719 129.129 134.719 130.217C134.719 131.305 135.604 132.19 136.692 132.19C137.78 132.19 138.665 131.305 138.665 130.217C138.665 129.129 137.78 128.245 136.692 128.245Z" fill="#2CA28C"/>
<path d="M108.368 137.031C108.461 138.582 109.743 139.811 111.318 139.811C112.893 139.811 114.175 138.582 114.268 137.031H108.368Z" fill="#2CA28C"/>
<path d="M120.813 137.031C120.72 135.48 119.438 134.252 117.863 134.252C116.288 134.252 115.006 135.48 114.913 137.031H120.813Z" fill="#EEE3D1"/>
<path d="M121.369 137.031C121.462 138.582 122.744 139.811 124.319 139.811C125.894 139.811 127.176 138.582 127.269 137.031H121.369Z" fill="#FE926B"/>
<path d="M133.814 137.031C133.721 135.48 132.439 134.252 130.864 134.252C129.289 134.252 128.007 135.48 127.914 137.031H133.814Z" fill="#2CA28C"/>
<path d="M69.2971 138.376C69.1596 138.376 69.0221 138.322 68.9175 138.218C68.7083 138.009 68.7083 137.668 68.9175 137.456L71.8076 134.566L74.6528 137.411C74.862 137.62 74.862 137.961 74.6528 138.173C74.4436 138.382 74.1029 138.382 73.8907 138.173L71.8046 136.087L69.6737 138.218C69.5691 138.322 69.4316 138.376 69.2941 138.376H69.2971Z" fill="#2CA28C"/>
<path d="M74.4078 138.376C74.2703 138.376 74.1328 138.322 74.0282 138.218C73.819 138.009 73.819 137.668 74.0282 137.456L76.9183 134.566L79.7635 137.411C79.9727 137.62 79.9727 137.961 79.7635 138.173C79.5543 138.382 79.2136 138.382 79.0014 138.173L76.9153 136.087L74.7844 138.218C74.6798 138.322 74.5423 138.376 74.4048 138.376H74.4078Z" fill="#2CA28C"/>
<path d="M143.297 146.162C143.16 146.162 143.022 146.108 142.917 146.003C142.708 145.794 142.708 145.453 142.917 145.241L145.808 142.351L148.653 145.196C148.862 145.406 148.862 145.746 148.653 145.959C148.444 146.168 148.103 146.168 147.891 145.959L145.805 143.872L143.674 146.003C143.569 146.108 143.432 146.162 143.294 146.162H143.297Z" fill="#2CA28C"/>
<path d="M148.408 146.162C148.27 146.162 148.133 146.108 148.028 146.003C147.819 145.794 147.819 145.453 148.028 145.241L150.918 142.351L153.763 145.196C153.973 145.406 153.973 145.746 153.763 145.959C153.554 146.168 153.213 146.168 153.001 145.959L150.915 143.872L148.784 146.003C148.68 146.108 148.542 146.162 148.405 146.162H148.408Z" fill="#2CA28C"/>
<path d="M116.728 92.6195H112.245V97.1025H116.728V92.6195Z" fill="#2CA28C"/>
<path d="M150.111 89.2422H147.72V91.6332H150.111V89.2422Z" fill="#EEE3D1"/>
<path d="M83.4037 129.171H81.0128V131.562H83.4037V129.171Z" fill="#EEE3D1"/>
<path d="M88.4247 108.728H86.0337V111.119H88.4247V108.728Z" fill="#C04365"/>
<path d="M127.875 66.5282H125.484V68.9192H127.875V66.5282Z" fill="#C04365"/>
<path d="M77.1872 50.2697H74.7963V52.6607H77.1872V50.2697Z" fill="#C04365"/>
<path d="M97.0321 81.5912H94.6412V83.9821H97.0321V81.5912Z" fill="#2CA28C"/>
<path d="M60.9288 91.8723H58.5378V94.2632H60.9288V91.8723Z" fill="#2CA28C"/>
<path d="M134.57 143.158H132.179V145.549H134.57V143.158Z" fill="#2CA28C"/>
<path d="M112.932 77.0484H110.541V79.4393H112.932V77.0484Z" fill="#2CA28C"/>
<path d="M62.4829 71.3101H60.092V73.701H62.4829V71.3101Z" fill="#2CA28C"/>
<path d="M150.231 115.304H147.84V117.695H150.231V115.304Z" fill="#C04365"/>
<path d="M105.042 142.56H102.651V144.951H105.042V142.56Z" fill="#EEE3D1"/>
<path d="M152.144 129.649H149.753V132.04H152.144V129.649Z" fill="#EEE3D1"/>
<path d="M87.827 69.1582H85.436V71.5492H87.827V69.1582Z" fill="#EEE3D1"/>
<path d="M119.507 50.987H117.116V53.378H119.507V50.987Z" fill="#EEE3D1"/>
<path d="M52.7757 101.884V106.009C52.7757 106.702 53.8516 106.702 53.8516 106.009V101.884C53.8516 101.191 52.7757 101.191 52.7757 101.884Z" fill="#C04365"/>
<path d="M10.5006 103.107C11.4719 104.078 12.4463 105.052 13.4176 106.024C13.9077 106.514 14.6698 105.755 14.1797 105.262C13.2084 104.29 12.2341 103.316 11.2627 102.345C10.7726 101.854 10.0105 102.614 10.5006 103.107Z" fill="#C04365"/>
<path d="M13.4176 102.345C12.4463 103.316 11.472 104.29 10.5007 105.262C10.0105 105.752 10.7696 106.514 11.2628 106.024C12.2341 105.052 13.2084 104.078 14.1797 103.107C14.6699 102.617 13.9108 101.854 13.4176 102.345Z" fill="#C04365"/>
<path d="M38.7138 89.5979C39.6852 90.5692 40.6595 91.5435 41.6308 92.5148C42.1209 93.005 42.8831 92.2459 42.3929 91.7527L39.476 88.8358C38.9858 88.3456 38.2237 89.1048 38.7138 89.5979Z" fill="#C04365"/>
<path d="M41.6308 88.8358C40.6595 89.8071 39.6852 90.7814 38.7139 91.7527C38.2237 92.2429 38.9829 93.005 39.476 92.5148C40.4473 91.5435 41.4216 90.5692 42.393 89.5979C42.8831 89.1077 42.124 88.3456 41.6308 88.8358Z" fill="#C04365"/>
<path d="M55.1068 101.884V106.009C55.1068 106.702 56.1828 106.702 56.1828 106.009V101.884C56.1828 101.191 55.1068 101.191 55.1068 101.884Z" fill="#C04365"/>
<path d="M4.76833 55.0726C4.63085 55.0726 4.49338 55.0188 4.38877 54.9142C4.17956 54.7049 4.17956 54.3642 4.38877 54.152L7.27883 51.262L10.1241 54.1072C10.3333 54.3164 10.3333 54.6571 10.1241 54.8693C9.91485 55.0785 9.57415 55.0785 9.36195 54.8693L7.27584 52.7832L5.14491 54.9142C5.04031 55.0188 4.90282 55.0726 4.76534 55.0726H4.76833Z" fill="#C04365"/>
<path d="M40.9016 83.0616C40.7641 83.0616 40.6266 83.0078 40.522 82.9032C40.3128 82.694 40.3128 82.3533 40.522 82.1411L43.4121 79.251L46.2573 82.0963C46.4665 82.3055 46.4665 82.6462 46.2573 82.8584C46.0481 83.0676 45.7074 83.0676 45.4952 82.8584L43.4091 80.7723L41.2781 82.9032C41.1735 83.0078 41.0361 83.0616 40.8986 83.0616H40.9016Z" fill="#C04365"/>
<path d="M46.0122 83.0616C45.8748 83.0616 45.7373 83.0078 45.6327 82.9032C45.4235 82.694 45.4235 82.3533 45.6327 82.1411L48.5227 79.251L51.368 82.0963C51.5772 82.3055 51.5772 82.6462 51.368 82.8584C51.1588 83.0676 50.8181 83.0676 50.6059 82.8584L48.5197 80.7723L46.3888 82.9032C46.2842 83.0078 46.1467 83.0616 46.0092 83.0616H46.0122Z" fill="#C04365"/>
<path d="M40.268 69.8725C41.2393 70.8439 42.2136 71.8182 43.1849 72.7895C43.6751 73.2796 44.4372 72.5205 43.947 72.0274C42.9757 71.0561 42.0014 70.0817 41.0301 69.1104C40.5399 68.6203 39.7778 69.3794 40.268 69.8725Z" fill="#EEE3D1"/>
<path d="M43.1849 69.1104C42.2136 70.0817 41.2393 71.056 40.268 72.0274C39.7778 72.5175 40.5369 73.2796 41.0301 72.7895C42.0014 71.8182 42.9757 70.8438 43.947 69.8725C44.4372 69.3824 43.6781 68.6203 43.1849 69.1104Z" fill="#EEE3D1"/>
<path d="M15.5964 60.9991V65.1235C15.5964 65.8169 16.6723 65.8169 16.6723 65.1235V60.9991C16.6723 60.3057 15.5964 60.3057 15.5964 60.9991Z" fill="#EEE3D1"/>
<path d="M17.9275 60.9991V65.1235C17.9275 65.8169 19.0035 65.8169 19.0035 65.1235V60.9991C19.0035 60.3057 17.9275 60.3057 17.9275 60.9991Z" fill="#EEE3D1"/>
<path d="M32.5512 54.6631C32.6439 56.2142 33.926 57.4426 35.501 57.4426C37.0761 57.4426 38.3582 56.2142 38.4509 54.6631H32.5512Z" fill="#EEE3D1"/>
<path d="M44.9961 54.6631C44.9035 53.112 43.6213 51.8836 42.0463 51.8836C40.4712 51.8836 39.1891 53.112 39.0964 54.6631H44.9961Z" fill="#C04365"/>
<path d="M45.552 54.6631C45.6446 56.2142 46.9268 57.4426 48.5018 57.4426C50.0768 57.4426 51.359 56.2142 51.4516 54.6631H45.552Z" fill="#FE926B"/>
<path d="M57.9969 54.6631C57.9042 53.112 56.6221 51.8836 55.047 51.8836C53.472 51.8836 52.1899 53.112 52.0972 54.6631H57.9969Z" fill="#EEE3D1"/>
<path d="M37.883 111.798C37.7455 111.798 37.608 111.744 37.5034 111.639C37.2942 111.43 37.2942 111.09 37.5034 110.877L40.3935 107.987L43.2387 110.833C43.4479 111.042 43.4479 111.382 43.2387 111.595C43.0295 111.804 42.6888 111.804 42.4766 111.595L40.3905 109.509L38.2596 111.639C38.155 111.744 38.0175 111.798 37.88 111.798H37.883Z" fill="#EEE3D1"/>
<path d="M42.9937 111.798C42.8562 111.798 42.7187 111.744 42.6141 111.639C42.4049 111.43 42.4049 111.09 42.6141 110.877L45.5042 107.987L48.3494 110.833C48.5586 111.042 48.5586 111.382 48.3494 111.595C48.1402 111.804 47.7995 111.804 47.5873 111.595L45.5012 109.509L43.3703 111.639C43.2657 111.744 43.1282 111.798 42.9907 111.798H42.9937Z" fill="#EEE3D1"/>
<path d="M6.44204 94.2991C6.30456 94.2991 6.16708 94.2453 6.06248 94.1407C5.85327 93.9315 5.85327 93.5908 6.06248 93.3786L8.95254 90.4885L11.7978 93.3337C12.007 93.5429 12.007 93.8837 11.7978 94.0959C11.5886 94.3051 11.2478 94.3051 11.0357 94.0959L8.94955 92.0097L6.81861 94.1407C6.71401 94.2453 6.57653 94.2991 6.43905 94.2991H6.44204Z" fill="#EEE3D1"/>
<path d="M27.312 128.215C27.2313 127.199 27.6707 126.197 28.7944 126.099C30.0377 125.988 30.5667 127.148 30.5398 128.215C30.5219 128.908 31.5978 128.908 31.6157 128.215C31.6546 126.55 30.6922 125.071 28.9229 125.02C27.1656 124.969 26.1106 126.61 26.2361 128.215C26.2899 128.902 27.3658 128.908 27.312 128.215Z" fill="#FE926B"/>
<path d="M24.8015 106.215C24.7208 105.199 25.1602 104.198 26.2839 104.099C27.5272 103.988 28.0562 105.148 28.0293 106.215C28.0114 106.908 29.0873 106.908 29.1052 106.215C29.1441 104.55 28.1817 103.071 26.4124 103.02C24.6551 102.969 23.6001 104.61 23.7256 106.215C23.7794 106.902 24.8553 106.908 24.8015 106.215Z" fill="#EEE3D1"/>
<path d="M18.2264 118.546C18.0889 118.546 17.9515 118.493 17.8469 118.388C17.6376 118.179 17.6376 117.838 17.8469 117.626L20.7369 114.736L23.5821 117.581C23.7914 117.79 23.7914 118.131 23.5821 118.343C23.3729 118.552 23.0322 118.552 22.82 118.343L20.7339 116.257L18.603 118.388C18.4984 118.493 18.3609 118.546 18.2234 118.546H18.2264Z" fill="#FE926B"/>
<path d="M23.337 118.546C23.1996 118.546 23.0621 118.493 22.9575 118.388C22.7483 118.179 22.7483 117.838 22.9575 117.626L25.8475 114.736L28.6928 117.581C28.902 117.79 28.902 118.131 28.6928 118.343C28.4836 118.552 28.1429 118.552 27.9307 118.343L25.8446 116.257L23.7136 118.388C23.609 118.493 23.4715 118.546 23.3341 118.546H23.337Z" fill="#FE926B"/>
<path d="M10.9041 115.423H4.53821C4.24233 115.423 4.00024 115.181 4.00024 114.885C4.00024 114.589 4.24233 114.347 4.53821 114.347H10.9041C11.2 114.347 11.4421 114.589 11.4421 114.885C11.4421 115.181 11.2 115.423 10.9041 115.423Z" fill="#EEE3D1"/>
<path d="M10.9041 118.507H4.53821C4.24233 118.507 4.00024 118.265 4.00024 117.969C4.00024 117.674 4.24233 117.432 4.53821 117.432H10.9041C11.2 117.432 11.4421 117.674 11.4421 117.969C11.4421 118.265 11.2 118.507 10.9041 118.507Z" fill="#FE926B"/>
<path d="M10.9041 121.589H4.53821C4.24233 121.589 4.00024 121.347 4.00024 121.051C4.00024 120.755 4.24233 120.513 4.53821 120.513H10.9041C11.2 120.513 11.4421 120.755 11.4421 121.051C11.4421 121.347 11.2 121.589 10.9041 121.589Z" fill="#C04365"/>
<path d="M10.9041 124.673H4.53821C4.24233 124.673 4.00024 124.431 4.00024 124.135C4.00024 123.839 4.24233 123.597 4.53821 123.597H10.9041C11.2 123.597 11.4421 123.839 11.4421 124.135C11.4421 124.431 11.2 124.673 10.9041 124.673Z" fill="#2CA28C"/>
<path d="M57.5277 61.9854H51.1618C50.8659 61.9854 50.6238 61.7433 50.6238 61.4474C50.6238 61.1515 50.8659 60.9095 51.1618 60.9095H57.5277C57.8235 60.9095 58.0656 61.1515 58.0656 61.4474C58.0656 61.7433 57.8235 61.9854 57.5277 61.9854Z" fill="#EEE3D1"/>
<path d="M57.5277 65.0667H51.1618C50.8659 65.0667 50.6238 64.8246 50.6238 64.5288C50.6238 64.2329 50.8659 63.9908 51.1618 63.9908H57.5277C57.8235 63.9908 58.0656 64.2329 58.0656 64.5288C58.0656 64.8246 57.8235 65.0667 57.5277 65.0667Z" fill="#FE926B"/>
<path d="M57.5277 68.151H51.1618C50.8659 68.151 50.6238 67.909 50.6238 67.6131C50.6238 67.3172 50.8659 67.0751 51.1618 67.0751H57.5277C57.8235 67.0751 58.0656 67.3172 58.0656 67.6131C58.0656 67.909 57.8235 68.151 57.5277 68.151Z" fill="#C04365"/>
<path d="M57.5277 71.2354H51.1618C50.8659 71.2354 50.6238 70.9933 50.6238 70.6974C50.6238 70.4015 50.8659 70.1594 51.1618 70.1594H57.5277C57.8235 70.1594 58.0656 70.4015 58.0656 70.6974C58.0656 70.9933 57.8235 71.2354 57.5277 71.2354Z" fill="#2CA28C"/>
<path d="M29.0156 76.8691H22.6496C22.3538 76.8691 22.1117 76.627 22.1117 76.3311C22.1117 76.0352 22.3538 75.7931 22.6496 75.7931H29.0156C29.3114 75.7931 29.5535 76.0352 29.5535 76.3311C29.5535 76.627 29.3114 76.8691 29.0156 76.8691Z" fill="#EEE3D1"/>
<path d="M29.0156 79.9534H22.6496C22.3538 79.9534 22.1117 79.7113 22.1117 79.4154C22.1117 79.1195 22.3538 78.8775 22.6496 78.8775H29.0156C29.3114 78.8775 29.5535 79.1195 29.5535 79.4154C29.5535 79.7113 29.3114 79.9534 29.0156 79.9534Z" fill="#FE926B"/>
<path d="M29.0156 83.0347H22.6496C22.3538 83.0347 22.1117 82.7926 22.1117 82.4967C22.1117 82.2009 22.3538 81.9588 22.6496 81.9588H29.0156C29.3114 81.9588 29.5535 82.2009 29.5535 82.4967C29.5535 82.7926 29.3114 83.0347 29.0156 83.0347Z" fill="#C04365"/>
<path d="M29.0156 86.119H22.6496C22.3538 86.119 22.1117 85.877 22.1117 85.5811C22.1117 85.2852 22.3538 85.0431 22.6496 85.0431H29.0156C29.3114 85.0431 29.5535 85.2852 29.5535 85.5811C29.5535 85.877 29.3114 86.119 29.0156 86.119Z" fill="#2CA28C"/>
<path d="M37.8322 103.704C37.7515 102.688 38.1909 101.687 39.3146 101.588C40.5579 101.478 41.0869 102.641 41.06 103.704C41.0421 104.398 42.118 104.398 42.1359 103.704C42.1748 102.04 41.2124 100.56 39.4431 100.51C37.6858 100.459 36.6308 102.1 36.7563 103.704C36.8101 104.392 37.886 104.398 37.8322 103.704Z" fill="#2CA28C"/>
<path d="M39.5059 118.023V122.148C39.5059 122.841 40.5818 122.841 40.5818 122.148V118.023C40.5818 117.33 39.5059 117.33 39.5059 118.023Z" fill="#2CA28C"/>
<path d="M41.837 118.023V122.148C41.837 122.841 42.913 122.841 42.913 122.148V118.023C42.913 117.33 41.837 117.33 41.837 118.023Z" fill="#2CA28C"/>
<path d="M40.3128 133.266C38.6332 133.266 37.2644 131.897 37.2644 130.217C37.2644 128.537 38.6332 127.169 40.3128 127.169C41.9925 127.169 43.3613 128.537 43.3613 130.217C43.3613 131.897 41.9925 133.266 40.3128 133.266ZM40.3128 128.245C39.2249 128.245 38.3403 129.129 38.3403 130.217C38.3403 131.305 39.2249 132.19 40.3128 132.19C41.4007 132.19 42.2854 131.305 42.2854 130.217C42.2854 129.129 41.4007 128.245 40.3128 128.245Z" fill="#2CA28C"/>
<path d="M11.989 137.031C12.0817 138.582 13.3638 139.811 14.9389 139.811C16.5139 139.811 17.796 138.582 17.8887 137.031H11.989Z" fill="#2CA28C"/>
<path d="M24.4339 137.031C24.3413 135.48 23.0591 134.252 21.4841 134.252C19.909 134.252 18.6269 135.48 18.5343 137.031H24.4339Z" fill="#EEE3D1"/>
<path d="M24.9898 137.031C25.0825 138.582 26.3646 139.811 27.9397 139.811C29.5147 139.811 30.7969 138.582 30.8895 137.031H24.9898Z" fill="#FE926B"/>
<path d="M37.4347 137.031C37.3421 135.48 36.0599 134.252 34.4849 134.252C32.9099 134.252 31.6277 135.48 31.5351 137.031H37.4347Z" fill="#2CA28C"/>
<path d="M46.9178 146.162C46.7804 146.162 46.6429 146.108 46.5383 146.003C46.3291 145.794 46.3291 145.453 46.5383 145.241L49.4283 142.351L52.2736 145.196C52.4828 145.406 52.4828 145.746 52.2736 145.959C52.0644 146.168 51.7236 146.168 51.5115 145.959L49.4253 143.872L47.2944 146.003C47.1898 146.108 47.0523 146.162 46.9148 146.162H46.9178Z" fill="#2CA28C"/>
<path d="M52.0285 146.162C51.891 146.162 51.7535 146.108 51.6489 146.003C51.4397 145.794 51.4397 145.453 51.6489 145.241L54.539 142.351L57.3842 145.196C57.5934 145.406 57.5934 145.746 57.3842 145.959C57.175 146.168 56.8343 146.168 56.6221 145.959L54.536 143.872L52.405 146.003C52.3004 146.108 52.163 146.162 52.0255 146.162H52.0285Z" fill="#2CA28C"/>
<path d="M20.3484 92.6194H15.8653V97.1025H20.3484V92.6194Z" fill="#2CA28C"/>
<path d="M53.732 89.2422H51.341V91.6332H53.732V89.2422Z" fill="#EEE3D1"/>
<path d="M31.4962 66.5282H29.1053V68.9191H31.4962V66.5282Z" fill="#C04365"/>
<path d="M38.1908 143.158H35.7999V145.549H38.1908V143.158Z" fill="#2CA28C"/>
<path d="M16.5528 77.0484H14.1618V79.4393H16.5528V77.0484Z" fill="#2CA28C"/>
<path d="M53.8516 115.304H51.4606V117.695H53.8516V115.304Z" fill="#C04365"/>
<path d="M55.7643 129.649H53.3734V132.04H55.7643V129.649Z" fill="#EEE3D1"/>
<path d="M23.1279 50.987H20.7369V53.378H23.1279V50.987Z" fill="#EEE3D1"/>
<path d="M197.347 4.93134V9.05573C197.347 9.7491 198.423 9.7491 198.423 9.05573V4.93134C198.423 4.23797 197.347 4.23797 197.347 4.93134Z" fill="#C04365"/>
<path d="M155.069 6.15371C156.041 7.12503 157.015 8.09934 157.986 9.07067C158.477 9.56081 159.239 8.80168 158.749 8.30855C157.777 7.33723 156.803 6.36292 155.832 5.39159C155.341 4.90145 154.579 5.66057 155.069 6.15371Z" fill="#C04365"/>
<path d="M157.986 5.39157C157.015 6.36289 156.041 7.3372 155.069 8.30853C154.579 8.79867 155.338 9.56079 155.832 9.07064C156.803 8.09932 157.777 7.12501 158.749 6.15368C159.239 5.66354 158.48 4.90142 157.986 5.39157Z" fill="#C04365"/>
<path d="M106.414 23.249C107.385 24.2203 108.359 25.1946 109.331 26.166C109.821 26.6561 110.583 25.897 110.093 25.4039C109.121 24.4325 108.147 23.4582 107.176 22.4869C106.686 21.9967 105.923 22.7559 106.414 23.249Z" fill="#FE926B"/>
<path d="M109.331 22.4869C108.359 23.4582 107.385 24.4325 106.414 25.4038C105.923 25.894 106.683 26.6561 107.176 26.166C108.147 25.1946 109.121 24.2203 110.093 23.249C110.583 22.7588 109.824 21.9967 109.331 22.4869Z" fill="#FE926B"/>
<path d="M199.679 4.93134V9.05573C199.679 9.7491 200.755 9.7491 200.755 9.05573V4.93134C200.755 4.23797 199.679 4.23797 199.679 4.93134Z" fill="#C04365"/>
<path d="M139.965 29.3489C138.285 29.3489 136.916 27.9801 136.916 26.3004C136.916 24.6208 138.285 23.252 139.965 23.252C141.644 23.252 143.013 24.6178 143.013 26.3004C143.013 27.9831 141.644 29.3489 139.965 29.3489ZM139.965 24.3279C138.877 24.3279 137.992 25.2126 137.992 26.3004C137.992 27.3883 138.877 28.273 139.965 28.273C141.053 28.273 141.937 27.3883 141.937 26.3004C141.937 25.2126 141.053 24.3279 139.965 24.3279Z" fill="#C04365"/>
<path d="M107.803 6.15669C107.723 5.14054 108.162 4.13933 109.286 4.0407C110.529 3.93012 111.058 5.09272 111.031 6.15669C111.013 6.85007 112.089 6.85007 112.107 6.15669C112.146 4.49199 111.184 3.01259 109.414 2.96178C107.657 2.91098 106.602 4.55177 106.727 6.15669C106.781 6.84409 107.857 6.85007 107.803 6.15669Z" fill="#EEE3D1"/>
<path d="M132.852 6.09692C131.172 6.09692 129.803 4.73109 129.803 3.04846C129.803 1.36583 131.172 0 132.852 0C134.531 0 135.9 1.36882 135.9 3.04846C135.9 4.7281 134.531 6.09692 132.852 6.09692ZM132.852 1.07593C131.764 1.07593 130.879 1.96058 130.879 3.04846C130.879 4.13634 131.764 5.02099 132.852 5.02099C133.939 5.02099 134.824 4.13634 134.824 3.04846C134.824 1.96058 133.939 1.07593 132.852 1.07593Z" fill="#EEE3D1"/>
<path d="M182.455 14.8448C182.317 14.8448 182.18 14.791 182.075 14.6864C181.866 14.4772 181.866 14.1365 182.075 13.9243L184.965 11.0342L187.811 13.8795C188.02 14.0887 188.02 14.4294 187.811 14.6416C187.601 14.8538 187.261 14.8508 187.048 14.6416L184.962 12.5555L182.831 14.6864C182.727 14.791 182.589 14.8448 182.452 14.8448H182.455Z" fill="#EEE3D1"/>
<path d="M187.565 14.8448C187.428 14.8448 187.291 14.791 187.186 14.6864C186.977 14.4772 186.977 14.1365 187.186 13.9243L190.076 11.0342L192.921 13.8795C193.13 14.0887 193.13 14.4294 192.921 14.6416C192.712 14.8538 192.371 14.8508 192.159 14.6416L190.073 12.5555L187.942 14.6864C187.837 14.791 187.7 14.8448 187.562 14.8448H187.565Z" fill="#EEE3D1"/>
<path d="M151.172 6.33603H146.689V10.8191H151.172V6.33603Z" fill="#EEE3D1"/>
<path d="M171.884 31.2617C171.803 30.2455 172.242 29.2443 173.366 29.1457C174.61 29.0351 175.139 30.1947 175.112 31.2617C175.094 31.9551 176.17 31.9551 176.188 31.2617C176.226 29.597 175.264 28.1176 173.495 28.0668C171.737 28.016 170.682 29.6568 170.808 31.2617C170.862 31.9491 171.938 31.9551 171.884 31.2617Z" fill="#FE926B"/>
<path d="M169.373 9.26494C169.293 8.24879 169.732 7.24757 170.856 7.14895C172.099 7.03837 172.628 8.19798 172.601 9.26494C172.583 9.95831 173.659 9.95831 173.677 9.26494C173.716 7.60024 172.754 6.12084 170.984 6.07003C169.227 6.01922 168.172 7.66001 168.297 9.26494C168.351 9.95234 169.427 9.95831 169.373 9.26494Z" fill="#EEE3D1"/>
<path d="M137.137 46.3217C138.109 47.293 139.083 48.2673 140.054 49.2386C140.544 49.7288 141.307 48.9697 140.816 48.4765C139.845 47.5052 138.871 46.5309 137.899 45.5596C137.409 45.0694 136.647 45.8285 137.137 46.3217Z" fill="#FE926B"/>
<path d="M140.054 45.5596C139.083 46.5309 138.109 47.5052 137.137 48.4765C136.647 48.9667 137.406 49.7288 137.899 49.2386C138.871 48.2673 139.845 47.293 140.816 46.3217C141.307 45.8315 140.547 45.0694 140.054 45.5596Z" fill="#FE926B"/>
<path d="M112.409 37.1793C110.729 37.1793 109.36 35.8105 109.36 34.1308C109.36 32.4512 110.729 31.0824 112.409 31.0824C114.089 31.0824 115.457 32.4512 115.457 34.1308C115.457 35.8105 114.089 37.1793 112.409 37.1793ZM112.409 32.1583C111.321 32.1583 110.436 33.0429 110.436 34.1308C110.436 35.2187 111.321 36.1034 112.409 36.1034C113.497 36.1034 114.381 35.2187 114.381 34.1308C114.381 33.0429 113.497 32.1583 112.409 32.1583Z" fill="#FE926B"/>
<path d="M107.663 47.4902C107.756 49.0414 109.038 50.2697 110.613 50.2697C112.188 50.2697 113.47 49.0414 113.563 47.4902H107.663Z" fill="#FE926B"/>
<path d="M120.108 47.4902C120.015 45.9391 118.733 44.7108 117.158 44.7108C115.583 44.7108 114.301 45.9391 114.208 47.4902H120.108Z" fill="#C04365"/>
<path d="M120.664 47.4902C120.756 49.0414 122.038 50.2697 123.614 50.2697C125.189 50.2697 126.471 49.0414 126.563 47.4902H120.664Z" fill="#EEE3D1"/>
<path d="M133.109 47.4902C133.016 45.9391 131.734 44.7108 130.159 44.7108C128.584 44.7108 127.302 45.9391 127.209 47.4902H133.109Z" fill="#FE926B"/>
<path d="M114.91 22.6154C114.773 22.6154 114.636 22.5616 114.531 22.457C114.322 22.2478 114.322 21.9071 114.531 21.6949L117.421 18.8048L120.266 21.6501C120.475 21.8593 120.475 22.2 120.266 22.4122C120.057 22.6214 119.716 22.6214 119.504 22.4122L117.418 20.3261L115.287 22.457C115.182 22.5616 115.045 22.6154 114.908 22.6154H114.91Z" fill="#FE926B"/>
<path d="M120.021 22.6154C119.884 22.6154 119.746 22.5616 119.642 22.457C119.432 22.2478 119.432 21.9071 119.642 21.6949L122.532 18.8048L125.377 21.6501C125.586 21.8593 125.586 22.2 125.377 22.4122C125.168 22.6214 124.827 22.6214 124.615 22.4122L122.529 20.3261L120.398 22.457C120.293 22.5616 120.156 22.6154 120.018 22.6154H120.021Z" fill="#FE926B"/>
<path d="M162.795 21.5933C162.658 21.5933 162.52 21.5395 162.416 21.4349C162.206 21.2257 162.206 20.885 162.416 20.6728L165.306 17.7827L168.151 20.6279C168.36 20.8371 168.36 21.1778 168.151 21.39C167.942 21.5992 167.601 21.5992 167.389 21.39L165.303 19.3039L163.172 21.4349C163.067 21.5395 162.93 21.5933 162.792 21.5933H162.795Z" fill="#FE926B"/>
<path d="M167.906 21.5933C167.768 21.5933 167.631 21.5395 167.526 21.4349C167.317 21.2257 167.317 20.885 167.526 20.6728L170.416 17.7827L173.262 20.6279C173.471 20.8371 173.471 21.1778 173.262 21.39C173.052 21.5992 172.712 21.5992 172.5 21.39L170.413 19.3039L168.282 21.4349C168.178 21.5395 168.04 21.5933 167.903 21.5933H167.906Z" fill="#FE926B"/>
<path d="M151.172 34.7883H146.689V39.2714H151.172V34.7883Z" fill="#FE926B"/>
<path d="M123.736 2.5105H117.37C117.074 2.5105 116.832 2.26842 116.832 1.97254C116.832 1.67665 117.074 1.43457 117.37 1.43457H123.736C124.032 1.43457 124.274 1.67665 124.274 1.97254C124.274 2.26842 124.032 2.5105 123.736 2.5105Z" fill="#EEE3D1"/>
<path d="M123.736 5.59482H117.37C117.074 5.59482 116.832 5.35274 116.832 5.05686C116.832 4.76098 117.074 4.5189 117.37 4.5189H123.736C124.032 4.5189 124.274 4.76098 124.274 5.05686C124.274 5.35274 124.032 5.59482 123.736 5.59482Z" fill="#FE926B"/>
<path d="M123.736 8.67916H117.37C117.074 8.67916 116.832 8.43707 116.832 8.14119C116.832 7.84531 117.074 7.60323 117.37 7.60323H123.736C124.032 7.60323 124.274 7.84531 124.274 8.14119C124.274 8.43707 124.032 8.67916 123.736 8.67916Z" fill="#C04365"/>
<path d="M123.736 11.7635H117.37C117.074 11.7635 116.832 11.5214 116.832 11.2255C116.832 10.9296 117.074 10.6875 117.37 10.6875H123.736C124.032 10.6875 124.274 10.9296 124.274 11.2255C124.274 11.5214 124.032 11.7635 123.736 11.7635Z" fill="#2CA28C"/>
<path d="M155.476 18.4701H149.11C148.814 18.4701 148.572 18.228 148.572 17.9321C148.572 17.6363 148.814 17.3942 149.11 17.3942H155.476C155.772 17.3942 156.014 17.6363 156.014 17.9321C156.014 18.228 155.772 18.4701 155.476 18.4701Z" fill="#EEE3D1"/>
<path d="M155.476 21.5544H149.11C148.814 21.5544 148.572 21.3123 148.572 21.0165C148.572 20.7206 148.814 20.4785 149.11 20.4785H155.476C155.772 20.4785 156.014 20.7206 156.014 21.0165C156.014 21.3123 155.772 21.5544 155.476 21.5544Z" fill="#FE926B"/>
<path d="M155.476 24.6388H149.11C148.814 24.6388 148.572 24.3967 148.572 24.1008C148.572 23.8049 148.814 23.5628 149.11 23.5628H155.476C155.772 23.5628 156.014 23.8049 156.014 24.1008C156.014 24.3967 155.772 24.6388 155.476 24.6388Z" fill="#C04365"/>
<path d="M155.476 27.7231H149.11C148.814 27.7231 148.572 27.481 148.572 27.1851C148.572 26.8892 148.814 26.6472 149.11 26.6472H155.476C155.772 26.6472 156.014 26.8892 156.014 27.1851C156.014 27.481 155.772 27.7231 155.476 27.7231Z" fill="#2CA28C"/>
<path d="M182.404 6.75443C182.323 5.73828 182.763 4.73707 183.886 4.63844C185.13 4.52786 185.659 5.69046 185.632 6.75443C185.614 7.44781 186.69 7.44781 186.708 6.75443C186.747 5.08974 185.784 3.61033 184.015 3.55953C182.258 3.50872 181.203 5.14951 181.328 6.75443C181.382 7.44183 182.458 7.44781 182.404 6.75443Z" fill="#2CA28C"/>
<path d="M184.078 21.0703V25.1946C184.078 25.888 185.154 25.888 185.154 25.1946V21.0703C185.154 20.3769 184.078 20.3769 184.078 21.0703Z" fill="#2CA28C"/>
<path d="M186.409 21.0703V25.1946C186.409 25.888 187.485 25.888 187.485 25.1946V21.0703C187.485 20.3769 186.409 20.3769 186.409 21.0703Z" fill="#2CA28C"/>
<path d="M184.885 36.3126C183.205 36.3126 181.836 34.9437 181.836 33.2641C181.836 31.5845 183.205 30.2156 184.885 30.2156C186.564 30.2156 187.933 31.5815 187.933 33.2641C187.933 34.9467 186.564 36.3126 184.885 36.3126ZM184.885 31.2916C183.797 31.2916 182.912 32.1762 182.912 33.2641C182.912 34.352 183.797 35.2366 184.885 35.2366C185.973 35.2366 186.857 34.352 186.857 33.2641C186.857 32.1762 185.973 31.2916 184.885 31.2916Z" fill="#2CA28C"/>
<path d="M156.561 40.0783C156.653 41.6294 157.936 42.8578 159.511 42.8578C161.086 42.8578 162.368 41.6294 162.46 40.0783H156.561Z" fill="#2CA28C"/>
<path d="M169.003 40.0783C168.91 38.5272 167.628 37.2988 166.053 37.2988C164.478 37.2988 163.196 38.5272 163.103 40.0783H169.003Z" fill="#EEE3D1"/>
<path d="M169.562 40.0783C169.654 41.6294 170.936 42.8578 172.511 42.8578C174.087 42.8578 175.369 41.6294 175.461 40.0783H169.562Z" fill="#FE926B"/>
<path d="M182.004 40.0783C181.911 38.5272 180.629 37.2988 179.054 37.2988C177.479 37.2988 176.197 38.5272 176.104 40.0783H182.004Z" fill="#2CA28C"/>
<path d="M117.487 41.4232C117.349 41.4232 117.212 41.3694 117.107 41.2648C116.898 41.0556 116.898 40.7149 117.107 40.5027L119.997 37.6126L122.842 40.4579C123.052 40.6671 123.052 41.0078 122.842 41.22C122.633 41.4292 122.293 41.4292 122.08 41.22L119.994 39.1339L117.863 41.2648C117.759 41.3694 117.621 41.4232 117.484 41.4232H117.487Z" fill="#2CA28C"/>
<path d="M122.597 41.4232C122.46 41.4232 122.322 41.3694 122.218 41.2648C122.009 41.0556 122.009 40.7149 122.218 40.5027L125.108 37.6126L127.953 40.4579C128.162 40.6671 128.162 41.0078 127.953 41.22C127.744 41.4292 127.403 41.4292 127.191 41.22L125.105 39.1339L122.974 41.2648C122.869 41.3694 122.732 41.4232 122.594 41.4232H122.597Z" fill="#2CA28C"/>
<path d="M191.487 49.2087C191.349 49.2087 191.212 49.155 191.107 49.0504C190.898 48.8411 190.898 48.5004 191.107 48.2882L193.997 45.3982L196.842 48.2434C197.052 48.4526 197.052 48.7933 196.842 49.0055C196.633 49.2147 196.292 49.2147 196.08 49.0055L193.994 46.9194L191.863 49.0504C191.759 49.155 191.621 49.2087 191.484 49.2087H191.487Z" fill="#2CA28C"/>
<path d="M196.597 49.2087C196.46 49.2087 196.322 49.155 196.218 49.0504C196.009 48.8411 196.009 48.5004 196.218 48.2882L199.108 45.3982L201.953 48.2434C202.162 48.4526 202.162 48.7933 201.953 49.0055C201.744 49.2147 201.403 49.2147 201.191 49.0055L199.105 46.9194L196.974 49.0504C196.869 49.155 196.732 49.2087 196.594 49.2087H196.597Z" fill="#2CA28C"/>
<path d="M131.596 32.2181H129.205V34.609H131.596V32.2181Z" fill="#EEE3D1"/>
<path d="M136.617 11.7754H134.226V14.1664H136.617V11.7754Z" fill="#C04365"/>
<path d="M182.763 46.2051H180.372V48.5961H182.763V46.2051Z" fill="#2CA28C"/>
<path d="M198.423 18.3505H196.032V20.7415H198.423V18.3505Z" fill="#C04365"/>
<path d="M153.234 45.6074H150.843V47.9983H153.234V45.6074Z" fill="#EEE3D1"/>
<path d="M200.336 32.6962H197.945V35.0872H200.336V32.6962Z" fill="#EEE3D1"/>
<path d="M100.965 4.93134V9.05573C100.965 9.7491 102.041 9.7491 102.041 9.05573V4.93134C102.041 4.23797 100.965 4.23797 100.965 4.93134Z" fill="#C04365"/>
<path d="M58.6903 6.15371C59.6616 7.12503 60.6359 8.09934 61.6072 9.07067C62.0973 9.56081 62.8595 8.80168 62.3693 8.30855L59.4524 5.39159C58.9622 4.90145 58.2001 5.66057 58.6903 6.15371Z" fill="#C04365"/>
<path d="M61.6072 5.39157C60.6359 6.36289 59.6616 7.3372 58.6903 8.30853C58.2001 8.79867 58.9593 9.56079 59.4524 9.07064L62.3694 6.15368C62.8595 5.66354 62.1004 4.90142 61.6072 5.39157Z" fill="#C04365"/>
<path d="M10.0344 23.249L12.9514 26.166C13.4415 26.6561 14.2036 25.897 13.7135 25.4039L10.7965 22.4869C10.3064 21.9967 9.54427 22.7559 10.0344 23.249Z" fill="#FE926B"/>
<path d="M12.9514 22.4869C11.98 23.4582 11.0057 24.4325 10.0344 25.4038C9.54426 25.894 10.3034 26.6561 10.7965 26.166C11.7678 25.1946 12.7422 24.2203 13.7135 23.249C14.2036 22.7588 13.4445 21.9967 12.9514 22.4869Z" fill="#FE926B"/>
<path d="M103.296 4.93134V9.05573C103.296 9.7491 104.372 9.7491 104.372 9.05573V4.93134C104.372 4.23797 103.296 4.23797 103.296 4.93134Z" fill="#C04365"/>
<path d="M43.5825 29.3489C41.9028 29.3489 40.534 27.9801 40.534 26.3004C40.534 24.6208 41.9028 23.252 43.5825 23.252C45.2621 23.252 46.6309 24.6178 46.6309 26.3004C46.6309 27.9831 45.2621 29.3489 43.5825 29.3489ZM43.5825 24.3279C42.4946 24.3279 41.6099 25.2126 41.6099 26.3004C41.6099 27.3883 42.4946 28.273 43.5825 28.273C44.6704 28.273 45.555 27.3883 45.555 26.3004C45.555 25.2126 44.6704 24.3279 43.5825 24.3279Z" fill="#C04365"/>
<path d="M11.4242 6.15669C11.3435 5.14054 11.7828 4.13933 12.9066 4.0407C14.1499 3.93012 14.6789 5.09272 14.652 6.15669C14.634 6.85007 15.71 6.85007 15.7279 6.15669C15.7667 4.49199 14.8044 3.01259 13.0351 2.96178C11.2777 2.91098 10.2227 4.55177 10.3482 6.15669C10.402 6.84409 11.478 6.85007 11.4242 6.15669Z" fill="#EEE3D1"/>
<path d="M36.4694 6.09692C34.7897 6.09692 33.4209 4.73109 33.4209 3.04846C33.4209 1.36583 34.7897 0 36.4694 0C38.149 0 39.5178 1.36882 39.5178 3.04846C39.5178 4.7281 38.149 6.09692 36.4694 6.09692ZM36.4694 1.07593C35.3815 1.07593 34.4968 1.96058 34.4968 3.04846C34.4968 4.13634 35.3815 5.02099 36.4694 5.02099C37.5573 5.02099 38.4419 4.13634 38.4419 3.04846C38.4419 1.96058 37.5573 1.07593 36.4694 1.07593Z" fill="#EEE3D1"/>
<path d="M86.0726 14.8448C85.9352 14.8448 85.7977 14.791 85.6931 14.6864C85.4839 14.4772 85.4839 14.1365 85.6931 13.9243L88.5831 11.0342L91.4284 13.8795C91.6376 14.0887 91.6376 14.4294 91.4284 14.6416C91.2192 14.8538 90.8784 14.8508 90.6662 14.6416L88.5801 12.5555L86.4492 14.6864C86.3446 14.791 86.2071 14.8448 86.0696 14.8448H86.0726Z" fill="#EEE3D1"/>
<path d="M91.1833 14.8448C91.0458 14.8448 90.9083 14.791 90.8037 14.6864C90.5945 14.4772 90.5945 14.1365 90.8037 13.9243L93.6938 11.0342L96.539 13.8795C96.7482 14.0887 96.7482 14.4294 96.539 14.6416C96.3298 14.8538 95.9891 14.8508 95.7769 14.6416L93.6908 12.5555L91.5598 14.6864C91.4552 14.791 91.3178 14.8448 91.1803 14.8448H91.1833Z" fill="#EEE3D1"/>
<path d="M54.79 6.33603H50.307V10.8191H54.79V6.33603Z" fill="#EEE3D1"/>
<path d="M75.5017 31.2617C75.421 30.2455 75.8603 29.2443 76.984 29.1457C78.2273 29.0351 78.7563 30.1947 78.7294 31.2617C78.7115 31.9551 79.7874 31.9551 79.8054 31.2617C79.8442 29.597 78.8819 28.1176 77.1125 28.0668C75.3552 28.016 74.3002 29.6568 74.4257 31.2617C74.4795 31.9491 75.5555 31.9551 75.5017 31.2617Z" fill="#FE926B"/>
<path d="M72.9911 9.26494C72.9104 8.24879 73.3498 7.24757 74.4735 7.14895C75.7168 7.03837 76.2458 8.19798 76.2189 9.26494C76.201 9.95831 77.2769 9.95831 77.2948 9.26494C77.3337 7.60024 76.3713 6.12084 74.602 6.07003C72.8447 6.01922 71.7897 7.66001 71.9152 9.26494C71.969 9.95234 73.0449 9.95831 72.9911 9.26494Z" fill="#EEE3D1"/>
<path d="M40.7581 46.3217C41.7294 47.293 42.7038 48.2673 43.6751 49.2386C44.1652 49.7288 44.9273 48.9697 44.4372 48.4765L41.5202 45.5596C41.0301 45.0694 40.268 45.8285 40.7581 46.3217Z" fill="#FE926B"/>
<path d="M43.6751 45.5596C42.7038 46.5309 41.7295 47.5052 40.7582 48.4765C40.268 48.9667 41.0271 49.7288 41.5203 49.2386L44.4372 46.3217C44.9274 45.8315 44.1683 45.0694 43.6751 45.5596Z" fill="#FE926B"/>
<path d="M16.0268 37.1793C14.3471 37.1793 12.9783 35.8105 12.9783 34.1308C12.9783 32.4512 14.3471 31.0824 16.0268 31.0824C17.7064 31.0824 19.0752 32.4512 19.0752 34.1308C19.0752 35.8105 17.7064 37.1793 16.0268 37.1793ZM16.0268 32.1583C14.9389 32.1583 14.0542 33.0429 14.0542 34.1308C14.0542 35.2187 14.9389 36.1034 16.0268 36.1034C17.1146 36.1034 17.9993 35.2187 17.9993 34.1308C17.9993 33.0429 17.1146 32.1583 16.0268 32.1583Z" fill="#FE926B"/>
<path d="M11.2837 47.4902C11.3764 49.0414 12.6585 50.2697 14.2335 50.2697C15.8086 50.2697 17.0907 49.0414 17.1834 47.4902H11.2837Z" fill="#FE926B"/>
<path d="M23.7286 47.4902C23.636 45.9391 22.3538 44.7108 20.7788 44.7108C19.2037 44.7108 17.9216 45.9391 17.8289 47.4902H23.7286Z" fill="#C04365"/>
<path d="M24.2845 47.4902C24.3771 49.0414 25.6593 50.2697 27.2343 50.2697C28.8094 50.2697 30.0915 49.0414 30.1842 47.4902H24.2845Z" fill="#EEE3D1"/>
<path d="M36.7294 47.4902C36.6367 45.9391 35.3546 44.7108 33.7795 44.7108C32.2045 44.7108 30.9224 45.9391 30.8297 47.4902H36.7294Z" fill="#FE926B"/>
<path d="M18.5283 22.6154C18.3908 22.6154 18.2533 22.5616 18.1487 22.457C17.9395 22.2478 17.9395 21.9071 18.1487 21.6949L21.0388 18.8048L23.884 21.6501C24.0932 21.8593 24.0932 22.2 23.884 22.4122C23.6748 22.6244 23.3341 22.6214 23.1219 22.4122L21.0358 20.3261L18.9048 22.457C18.8002 22.5616 18.6628 22.6154 18.5253 22.6154H18.5283Z" fill="#FE926B"/>
<path d="M23.6389 22.6154C23.5015 22.6154 23.364 22.5616 23.2594 22.457C23.0502 22.2478 23.0502 21.9071 23.2594 21.6949L26.1494 18.8048L28.9947 21.6501C29.2039 21.8593 29.2039 22.2 28.9947 22.4122C28.7855 22.6244 28.4448 22.6214 28.2326 22.4122L26.1465 20.3261L24.0155 22.457C23.9109 22.5616 23.7734 22.6154 23.636 22.6154H23.6389Z" fill="#FE926B"/>
<path d="M66.4161 21.5933C66.2786 21.5933 66.1411 21.5395 66.0365 21.4349C65.8273 21.2257 65.8273 20.885 66.0365 20.6728L68.9265 17.7827L71.7718 20.6279C71.981 20.8371 71.981 21.1778 71.7718 21.39C71.5626 21.6022 71.2219 21.5992 71.0097 21.39L68.9236 19.3039L66.7926 21.4349C66.688 21.5395 66.5505 21.5933 66.4131 21.5933H66.4161Z" fill="#FE926B"/>
<path d="M71.5267 21.5933C71.3892 21.5933 71.2517 21.5395 71.1471 21.4349C70.9379 21.2257 70.9379 20.885 71.1471 20.6728L74.0372 17.7827L76.8824 20.6279C77.0916 20.8371 77.0916 21.1778 76.8824 21.39C76.6732 21.6022 76.3325 21.5992 76.1203 21.39L74.0342 19.3039L71.9033 21.4349C71.7986 21.5395 71.6612 21.5933 71.5237 21.5933H71.5267Z" fill="#FE926B"/>
<path d="M54.79 34.7883H50.307V39.2714H54.79V34.7883Z" fill="#FE926B"/>
<path d="M27.3539 2.5105H20.988C20.6921 2.5105 20.45 2.26842 20.45 1.97254C20.45 1.67665 20.6921 1.43457 20.988 1.43457H27.3539C27.6498 1.43457 27.8919 1.67665 27.8919 1.97254C27.8919 2.26842 27.6498 2.5105 27.3539 2.5105Z" fill="#EEE3D1"/>
<path d="M27.3539 5.59482H20.988C20.6921 5.59482 20.45 5.35274 20.45 5.05686C20.45 4.76098 20.6921 4.5189 20.988 4.5189H27.3539C27.6498 4.5189 27.8919 4.76098 27.8919 5.05686C27.8919 5.35274 27.6498 5.59482 27.3539 5.59482Z" fill="#FE926B"/>
<path d="M27.3539 8.67916H20.988C20.6921 8.67916 20.45 8.43707 20.45 8.14119C20.45 7.84531 20.6921 7.60323 20.988 7.60323H27.3539C27.6498 7.60323 27.8919 7.84531 27.8919 8.14119C27.8919 8.43707 27.6498 8.67916 27.3539 8.67916Z" fill="#C04365"/>
<path d="M27.3539 11.7635H20.988C20.6921 11.7635 20.45 11.5214 20.45 11.2255C20.45 10.9296 20.6921 10.6875 20.988 10.6875H27.3539C27.6498 10.6875 27.8919 10.9296 27.8919 11.2255C27.8919 11.5214 27.6498 11.7635 27.3539 11.7635Z" fill="#2CA28C"/>
<path d="M59.0937 18.4701H52.7278C52.432 18.4701 52.1899 18.228 52.1899 17.9321C52.1899 17.6363 52.432 17.3942 52.7278 17.3942H59.0937C59.3896 17.3942 59.6317 17.6363 59.6317 17.9321C59.6317 18.228 59.3896 18.4701 59.0937 18.4701Z" fill="#EEE3D1"/>
<path d="M59.0937 21.5544H52.7278C52.432 21.5544 52.1899 21.3123 52.1899 21.0165C52.1899 20.7206 52.432 20.4785 52.7278 20.4785H59.0937C59.3896 20.4785 59.6317 20.7206 59.6317 21.0165C59.6317 21.3123 59.3896 21.5544 59.0937 21.5544Z" fill="#FE926B"/>
<path d="M59.0937 24.6388H52.7278C52.432 24.6388 52.1899 24.3967 52.1899 24.1008C52.1899 23.8049 52.432 23.5628 52.7278 23.5628H59.0937C59.3896 23.5628 59.6317 23.8049 59.6317 24.1008C59.6317 24.3967 59.3896 24.6388 59.0937 24.6388Z" fill="#C04365"/>
<path d="M59.0937 27.7231H52.7278C52.432 27.7231 52.1899 27.481 52.1899 27.1851C52.1899 26.8892 52.432 26.6472 52.7278 26.6472H59.0937C59.3896 26.6472 59.6317 26.8892 59.6317 27.1851C59.6317 27.481 59.3896 27.7231 59.0937 27.7231Z" fill="#2CA28C"/>
<path d="M86.0218 6.75443C85.9411 5.73828 86.3804 4.73707 87.5042 4.63844C88.7475 4.52786 89.2765 5.69046 89.2496 6.75443C89.2346 7.44781 90.3106 7.44781 90.3255 6.75443C90.3644 5.08974 89.402 3.61033 87.6327 3.55953C85.8754 3.50872 84.8204 5.14951 84.9459 6.75443C84.9997 7.44183 86.0756 7.44781 86.0218 6.75443Z" fill="#2CA28C"/>
<path d="M87.6955 21.0703V25.1946C87.6955 25.888 88.7714 25.888 88.7714 25.1946V21.0703C88.7714 20.3769 87.6955 20.3769 87.6955 21.0703Z" fill="#2CA28C"/>
<path d="M90.0267 21.0703V25.1946C90.0267 25.888 91.1026 25.888 91.1026 25.1946V21.0703C91.1026 20.3769 90.0267 20.3769 90.0267 21.0703Z" fill="#2CA28C"/>
<path d="M88.5024 36.3126C86.8228 36.3126 85.454 34.9437 85.454 33.2641C85.454 31.5845 86.8228 30.2156 88.5024 30.2156C90.1821 30.2156 91.5509 31.5815 91.5509 33.2641C91.5509 34.9467 90.1821 36.3126 88.5024 36.3126ZM88.5024 31.2916C87.4146 31.2916 86.5299 32.1762 86.5299 33.2641C86.5299 34.352 87.4146 35.2366 88.5024 35.2366C89.5903 35.2366 90.475 34.352 90.475 33.2641C90.475 32.1762 89.5903 31.2916 88.5024 31.2916Z" fill="#2CA28C"/>
<path d="M60.1786 40.0783C60.2713 41.6294 61.5535 42.8578 63.1285 42.8578C64.7035 42.8578 65.9857 41.6294 66.0783 40.0783H60.1786Z" fill="#2CA28C"/>
<path d="M72.6236 40.0783C72.5309 38.5272 71.2488 37.2988 69.6737 37.2988C68.0987 37.2988 66.8165 38.5272 66.7239 40.0783H72.6236Z" fill="#EEE3D1"/>
<path d="M73.1794 40.0783C73.2721 41.6294 74.5542 42.8578 76.1293 42.8578C77.7043 42.8578 78.9864 41.6294 79.0791 40.0783H73.1794Z" fill="#FE926B"/>
<path d="M85.6243 40.0783C85.5317 38.5272 84.2495 37.2988 82.6745 37.2988C81.0994 37.2988 79.8173 38.5272 79.7246 40.0783H85.6243Z" fill="#2CA28C"/>
<path d="M21.1075 41.4232C20.97 41.4232 20.8326 41.3694 20.728 41.2648C20.5188 41.0556 20.5188 40.7149 20.728 40.5027L23.618 37.6126L26.4633 40.4579C26.6725 40.6671 26.6725 41.0078 26.4633 41.22C26.254 41.4292 25.9133 41.4292 25.7011 41.22L23.615 39.1339L21.4841 41.2648C21.3795 41.3694 21.242 41.4232 21.1045 41.4232H21.1075Z" fill="#2CA28C"/>
<path d="M26.2182 41.4232C26.0807 41.4232 25.9432 41.3694 25.8386 41.2648C25.6294 41.0556 25.6294 40.7149 25.8386 40.5027L28.7287 37.6126L31.5739 40.4579C31.7831 40.6671 31.7831 41.0078 31.5739 41.22C31.3647 41.4292 31.024 41.4292 30.8118 41.22L28.7257 39.1339L26.5947 41.2648C26.4901 41.3694 26.3526 41.4232 26.2152 41.4232H26.2182Z" fill="#2CA28C"/>
<path d="M95.1074 49.2087C94.9699 49.2087 94.8325 49.155 94.7279 49.0504C94.5186 48.8411 94.5186 48.5004 94.7279 48.2882L97.6179 45.3982L100.463 48.2434C100.672 48.4526 100.672 48.7933 100.463 49.0055C100.254 49.2177 99.9132 49.2147 99.701 49.0055L97.6149 46.9194L95.484 49.0504C95.3794 49.155 95.2419 49.2087 95.1044 49.2087H95.1074Z" fill="#2CA28C"/>
<path d="M100.218 49.2087C100.081 49.2087 99.9431 49.155 99.8385 49.0504C99.6293 48.8411 99.6293 48.5004 99.8385 48.2882L102.729 45.3982L105.574 48.2434C105.783 48.4526 105.783 48.7933 105.574 49.0055C105.365 49.2177 105.024 49.2147 104.812 49.0055L102.726 46.9194L100.595 49.0504C100.49 49.155 100.353 49.2087 100.215 49.2087H100.218Z" fill="#2CA28C"/>
<path d="M35.2141 32.2181H32.8232V34.609H35.2141V32.2181Z" fill="#EEE3D1"/>
<path d="M40.2351 11.7754H37.8442V14.1664H40.2351V11.7754Z" fill="#C04365"/>
<path d="M86.3805 46.2051H83.9895V48.5961H86.3805V46.2051Z" fill="#2CA28C"/>
<path d="M102.041 18.3505H99.6503V20.7415H102.041V18.3505Z" fill="#C04365"/>
<path d="M56.8522 45.6074H54.4613V47.9983H56.8522V45.6074Z" fill="#EEE3D1"/>
<path d="M103.954 32.6962H101.563V35.0872H103.954V32.6962Z" fill="#EEE3D1"/>
</g>
<defs>
<filter id="filter0_d_8_3238" x="0.000244141" y="0" width="208.716" height="208" filterUnits="userSpaceOnUse" color-interpolation-filters="sRGB">
<feFlood flood-opacity="0" result="BackgroundImageFix"/>
<feColorMatrix in="SourceAlpha" type="matrix" values="0 0 0 0 0 0 0 0 0 0 0 0 0 0 0 0 0 0 127 0" result="hardAlpha"/>
<feOffset dy="4"/>
<feGaussianBlur stdDeviation="2"/>
<feComposite in2="hardAlpha" operator="out"/>
<feColorMatrix type="matrix" values="0 0 0 0 0 0 0 0 0 0 0 0 0 0 0 0 0 0 0.25 0"/>
<feBlend mode="normal" in2="BackgroundImageFix" result="effect1_dropShadow_8_3238"/>
<feBlend mode="normal" in="SourceGraphic" in2="effect1_dropShadow_8_3238" result="shape"/>
</filter>
</defs>
</svg>
