<svg  width="366" height="206" viewBox="0 0 366 206" fill="none" xmlns="http://www.w3.org/2000/svg">
<path d="M75.2 2.33324C14.2667 13.3999 1.73333 57.7999 47.6 100.333C78.5333 128.867 131.067 154.6 170.533 160.467C185.467 162.6 207.6 161.4 218.8 157.8C235.333 152.6 245.6 139 243.2 125.667C239.467 105.533 213.6 85.6666 179.333 76.8666C157.867 71.3999 123.333 70.8666 121.6 76.0666C120.933 78.0666 123.6 78.4666 146 80.1999C168.533 81.9333 185.333 86.1999 202 94.3333C222.667 104.467 234.667 117.8 234.667 130.6C234.667 144.2 216.533 153.667 190.133 153.667C146.533 153.667 86.5333 126.867 51.3333 91.6666C34.6667 74.9999 28.8 64.5999 28.8 50.9999C28.6667 43.7999 29.3333 41.2666 32.4 35.9333C50 5.93326 114.8 0.999908 190.667 23.9332C232.133 36.3332 262.267 48.9999 287.2 64.1999C304.8 74.9999 318.667 80.5999 309.733 73.2666C302.533 67.2666 269.867 47.2666 256.667 40.7333C222.933 23.9333 171.467 7.79991 134.533 2.33324C117.6 -0.0667572 88.4 -0.0667572 75.2 2.33324Z" fill="black"/>
<path d="M116.667 47.1333C105.867 48.7333 95.4667 54.0666 92.1334 59.5333C88 66.1999 88.4 75.6666 93.2 83.1333C101.733 96.7333 126.4 111.133 152.267 117.667C164.8 120.867 185.867 122.733 187.2 120.6C188.533 118.467 186.667 117.8 175.2 116.2C143.867 111.933 102.933 89.7999 98.5334 74.8666C96.2667 67.5333 98.5334 63.3999 107.2 59.1333C112.8 56.3333 116.133 55.7999 131.2 55.2666C150 54.5999 161.333 56.1999 185.333 62.4666C215.2 70.3333 250.533 85.7999 273.867 101.267C289.733 111.667 308.4 129.933 313.867 140.2C321.067 153.667 318.4 166.733 306.4 177C282.267 197.667 232.8 203.133 173.2 191.533C143.067 185.667 133.333 182.2 78.9334 157.667C72 154.6 66.1334 152.467 65.7334 152.867C63.7334 154.733 67.6 158.2 80.1334 165.533C106.133 181 140.667 193.533 173.867 199.533C224.933 209 266.667 206.6 295.333 192.467C308.133 186.067 316.133 179.533 321.067 171.267C324.133 165.933 324.667 163.533 324.667 155C324.667 146.6 324 143.667 320.667 137C315.2 126.067 295.067 106.067 278.8 95.2666C229.467 62.7333 156 40.8666 116.667 47.1333Z" fill="black"/>
<path d="M0.66667 111.133C-1.2 113.933 1.6 124.6 6.66667 134.733C14.6667 150.6 32 169.933 32 162.867C32 161.933 27.7333 154.733 22.5333 146.733C17.3333 138.867 10.8 127.267 7.86667 121C4.93334 114.733 2.26667 109.667 2 109.667C1.73334 109.667 1.06667 110.333 0.66667 111.133Z" fill="black"/>
<path d="M355.333 140.333C354.933 141 355.6 145 356.8 149C358.8 155.933 358.8 157 356.667 163.4C355.467 167.267 352.667 173.4 350.533 177.133C346.267 184.733 345.6 188.333 348.667 188.333C351.067 188.333 357.867 179.267 362.133 170.333C366.667 160.867 366.4 153.133 361.333 145.267C357.2 138.6 356.667 138.2 355.333 140.333Z" fill="black"/>
</svg>
